/* XPM */
static char *_ed6a5674e16424eda2d4fd1213778c59RJ8TVqwe36awNx9[] = {
/* columns rows colors chars-per-pixel */
"64 64 83 1 ",
"  c black",
". c #0D0504",
"X c #1A0C0A",
"o c #150314",
"O c #120417",
"+ c #1A0412",
"@ c #1B0412",
"# c #120418",
"$ c #3C0A0D",
"% c #2E0610",
"& c #340610",
"* c #260E23",
"= c #221325",
"- c #321631",
"; c #331839",
": c #35193A",
"> c #392321",
", c #5B0B0F",
"< c #63140A",
"1 c #79160D",
"2 c #711F1B",
"3 c #4C1325",
"4 c #4D1326",
"5 c #6C1620",
"6 c #64192B",
"7 c #661A2C",
"8 c #563D38",
"9 c #002D51",
"0 c #512243",
"q c #532244",
"w c #572956",
"e c #65305A",
"r c #76356E",
"t c #005668",
"y c #6A4542",
"u c #435B69",
"i c #9F2707",
"p c #BD2130",
"a c #FF0E00",
"s c #FF1B00",
"d c #FF2800",
"f c #FF4C00",
"g c #FF5600",
"h c #FF5900",
"j c #FF4013",
"k c #FF4A1B",
"l c #FF6200",
"z c #FF6500",
"x c #FF6307",
"c c #FF6E00",
"v c #FF6E07",
"b c #FF7100",
"n c #FF7500",
"m c #FF7900",
"M c #FF7D00",
"N c #B7324A",
"B c #923E77",
"V c #FF7479",
"C c #FF8400",
"Z c #FF8F00",
"A c #FF9A00",
"S c #FF9F00",
"D c #FFA000",
"F c #FFA800",
"G c #FFB300",
"H c #FFB700",
"J c #FFBD00",
"K c #CBDC00",
"L c #FFC300",
"P c #FFC900",
"I c #FFCF00",
"U c #FFD000",
"Y c #FFD400",
"T c #FFDE00",
"R c #FEE200",
"E c #FFE500",
"W c #FFEA00",
"Q c #FFEF00",
"! c #FFF200",
"~ c #FFF400",
"^ c yellow",
"/ c #CF4F8B",
"( c #009ADE",
/* pixels */
"######################################################:#########",
"##########################################r#####################",
"####################################e########################=##",
"############4###############################################=9=#",
"#########=#4p4###########################################=#=9(9=",
"############4########w#######################q#######w######=9=#",
"###############*############################qBw##############=##",
"##########r###############r##################w############r#####",
"######################################4#########################",
"#####################################47=########################",
"################################r#####=#########################",
"##/####=###############=##:#######################/####=##:#####",
"#############r###########:/:#r#ddd##########q############:/:#r##",
"##########################:###ddddd#######################:#####",
"#####r###############r###sss##ddddd##################r##########",
"#########################ssss#ddddd#############################",
"##########4#############sssscf#ddd##############################",
"#######################:#sss#f###########################7######",
"########=######r############t##################r###############r",
"##q###############################q######OO#######q#########=###",
"#qrq#############   #############qrq####OOOO###############=9=##",
"##q##########    >>>> RR#######r##0####%OOOO##############=9(9=#",
"###########  >>>>>>>88^^^R##$$$$#######%%OOO#<<<<##########=9=##",
"#########  >>>>>>>88888^^^^$$$$$$#######%OOO<2<<<<##########=###",
"#######  >>>>>>>88888888^^^^$$$$$#####4nnl##2u2<<<<###:#########",
"###### >>>>>>>>888888888^^^^^$QQQPP####nnll#<2<<<<<#############",
"#####  >>>>>>>88888XX>88Xdd^^QQQQPPPP##nnl##<<<<<<<#############",
"###  >>>>>>>88888XX>>>>8Xndd^QQQHHPPP#######<<<<<<#########:####",
"## >>>>>>>>88888XX>>>>>88llndddQHHH^^P#######<<<<<###*##########",
"## >>>>>>>>888888X>>>>>88llnnd^^^W^^^^#######*#####fff#######*##",
"# >...X>>>>8888888>>>>888lndd^^^^^^^^^*#####K^^^^QQfffff########",
"#>>..XX>>>888X8888888888lnddd^^^^^^^^^mmngg^^^^^^^QQQfff########",
"#>>.XXX>>>88X>>>8888888ddd^dd^^^^^^^^^mmmUg^^^^^^^^QQffff##OOOOO",
"# >>XX>>>>8X>>>88888888dd^^d^^^^^^E^^mmmmUg^^^^^^^^QQffff+,,5OOO",
"# >>>>>>>8888888888888^^^^^^^^^^^EEE+FmmmUgY^^^^^^^QQfffx+,5N5,O",
"## >>>>>>8888888888888^^^^^^^^II++++++TTzz#MMM^^^^^QWffxx+,,5,k%",
"## >>..>>888888888XX88^^^^^^^^InDGGG1Szzzzz#MM^^^^^QfffxOO+,,kkk",
"### ..X>>888888XXXX>>8^^^^^^^hPb~GGJJbbbzzzzMML^^^^ffffOOO+++djj",
"### ..X>>88888XXX>>>>^^^^^^hhhP~~CZZZ!bbzzzz##vvvvv#f##O4OOO+++#",
"##:# .X>>88888XX>>>>^^^^^^!hhh#CCCGGG^bbbzzz#ivvvvvo###463OOOO##",
"#:/:  >>>>8888XX>>>AA^^^^^hhh##CCCGGGGbbbzz#9#vvvvv-##47V63OOOO#",
"##:## >>>>888888>>>AAAAAA##**###CCGGG&#bzz####vvvvvo###473OO;###",
"#####  >>>888yyyy   AAAA###*w*###CFF&#####9###oovoo#####4#######",
"####*# >>>8yy     9#########**######*###########oo##*###O#######",
"###*r*#      ######################*r*#############*r*##########",
"####*#################9######aa#####*###############*#######=###",
"#########:#################waaaa############=############:######",
"########:/:#################aaaa########################:/:#####",
"#########:###################aa##########################:######",
"####*################r##########################################",
"###*4*#####################e####################################",
"##*4p4*#########################################################",
"#*4pVp4*########################################################",
"##*4p4*###w#######q#######################w###############w#####",
"###*4*###########wBq############################################",
"#r##*#############w##################r###############r##########",
"#########################4#####=################################",
"########################=74###=9=###############################",
"#############=###########=###=9(9=##############################",
"#####:##=###=/=###q###########=9=#######=############:##=#######",
"##r#:/:######=###qrq###########=##r#################:/:#######w#",
"#####:############q##################:###############:##########",
"##########r###############################r###############r#####",
"################################################################"
};
