/* XPM */
static char *fb6420fc5fd745faf47977ffe86453f1lwVStT2gfXSSapFe[] = {
/* columns rows colors chars-per-pixel */
"64 64 78 1 ",
"  c black",
". c #0D0504",
"X c #1A0C0A",
"o c #150314",
"O c #120416",
"+ c #120417",
"@ c #120418",
"# c #3C0A0D",
"$ c #340610",
"% c #260E23",
"& c #221325",
"* c #331838",
"= c #35193A",
"- c #392321",
"; c #44090F",
": c #481114",
"> c #641317",
", c #4D1326",
"< c #451428",
"1 c #571723",
"2 c #501822",
"3 c #661A2C",
"4 c #563D38",
"5 c #002D51",
"6 c #532244",
"7 c #572956",
"8 c #65305A",
"9 c #76356E",
"0 c #6A4542",
"q c #B1220A",
"w c #BD2130",
"e c #FF0300",
"r c #FF3400",
"t c #FF3913",
"y c #FF4000",
"u c #FF4C00",
"i c #FF440B",
"p c #FF470A",
"a c #FF5900",
"s c #FF4614",
"d c #FF4E14",
"f c #FF551C",
"g c #FF5A1D",
"h c #FF7200",
"j c #FF7900",
"k c #FF7A00",
"l c #FF7D00",
"z c #FF6B15",
"x c #FF771F",
"c c #FF7E1F",
"v c #AD3855",
"b c #923E77",
"n c #AF3B61",
"m c #FF767B",
"M c #FF8400",
"N c #FC8900",
"B c #FF9000",
"V c #FF9500",
"C c #FF9A00",
"Z c #FF9F00",
"A c #F0A100",
"S c #FFA200",
"D c orange",
"F c #FFAD00",
"G c #FFB100",
"H c #FFBB00",
"J c #FF8929",
"K c #FFC900",
"L c gold",
"P c #FFD900",
"I c #FFE400",
"U c #FFE700",
"Y c #FFEE00",
"T c #F5F300",
"R c #FFF900",
"E c yellow",
"W c #CF4F8B",
"Q c #009ADE",
/* pixels */
"@@@@@@@@@@@@@@@@@@@@@@@@@@@@@@@@@@@@@@@@@@@@@@@@@@@@@@=@@@@@@@@@",
"@@@@@@@@@@@@@@@@@@@@@@@@@@@@@@@@@@@@@@@@@@9@@@@@@@@@@@@@@@@@@@@@",
"@@@@@@@@@@@@@@@@@@@@@@@@@@@@@@@@@@@@8@@@@@@@@@@@@@@@@@@@@@@@@&@@",
"@@@@@@@@@@@@,@@@@@@@@@@@@@@@@@@@@@@@@@@@@@@@@@@@@@@@@@@@@@@@&5&@",
"@@@@@@@@@&@,w,@@@@@@@@@@@@@@@@@@@@@@@@@@@@@@@@@@@@@@@@@@@&@&5Q5&",
"@@@@@@@@@@@@,@@@@@@@@7@@@@@@@@@@@@@@@@@@@@@@@6@@@@@@@7@@@@@@&5&@",
"@@@@@@@@@@@@@@@%@@@@@@@@@@@@@@@@@@@@@@@@@@@@6b7@@@@@@@@@@@@@@&@@",
"@@@@@@@@@@9@@@@@@@@@@@@@@@9@@@@@@@@@@@@@@@@@@7@@@@@@@@@@@@9@@@@@",
"@@@@@@@@@@@@@@@@@@@@@@@@@@@@@@@@@@@@@@,@@@@@@@@@@@@@@@@@@@@@@@@@",
"@@@@@@@@@@@@@@@@@@@@@@@@@@@@@@@@@@@@@,3&@@@@@@@@@@@@@@@@@@@@@@@@",
"@@@@@@@@@@@@@@@@@@@@@@@@@@@@@@@@9@@@@@&@@@@@@@@@@@@@@@@@@@@@@@@@",
"@@W@@@@&@@@@@@@@@@@@@@@&@@=@@@@@@@@@@@@@@@@@@@@@@@W@@@@&@@=@@@@@",
"@@@@@@@@@@@@@9@@@@@@@@@@@=W=@9@@@@@@@@@@@@@@6@@@@@@@@@@@@=W=@9@@",
"@@@@@@@@@@@@@@@@@@@@@@@@@@=@@@@@@@@e@@@@@@@@@@@@@@@@@@@@@@=@@@@@",
"@@@@@9@@@@@@@@@@@@@@@9@@@@@@@uuuu@@e@@@@@@@@@@@@@@@@@9@@@@@@@@@@",
"@@@@@@@@@@@@@@@@@@@@@@@@@@@@@uuuuu@@@@@@@@@@@@@@@@@@@@@@@@@@@@@@",
"@@@@@@@@@@,@@@@@@@@@@@@@@yyyuuuuuuu@@@@@@@@@@@@@@@@@@@@@@@@@@@@@",
"@@@@@@@@@@@@@@@@@@@@@@@=yyyyuuuuuuu@@@@@@@@@@@@@@@@@@@@@@3@@@@@@",
"@@@@@@@@&@@@@@@9@@@@@@@yyyyyBuuuuuu@@@@@@@@@@@@9@@@@@@@@@@@@@@@9",
"@@6@@@@@@@@@@@@@@@@@@@@@yyyyGHuuuu6@@@@@@@@@@@@@@@6@@@@@@@@@&@@@",
"@696@@@@@     @@@@6@@@@@@yyyG@@u@696@@@@@@@@@@@@@@@@@@@@@@@&5&@@",
"@@6@@@@  00000     @@@@@@@yy@@@9@@6@@+@@@@@@@@@@@@@@@@@@@@&5Q5&@",
"@@@@@@ 00444----000   TT@3@@@@@@+O++++@ooo@@@@@@@@@@@@@@@@@&5&@@",
"@@@@@ 04444------4400EEETTTuuu@@+++++iioooo@@=@@@@@@@@@@@@@@&@@@",
"@@@@@ -444-------X444EEEEEEuuEEUOO+OOiiooooaaaaa@@@@@@=@@@@@@@@@",
"@@@@ --X44------XX44444EEEEEEEEUUO++OSSFoooaaaaaa@@@@@@@@@@@@@@@",
"@@  --XX444XXXXXX444444EEEEEEEEUUU++SSSF@@@aaaaaa@@@@@@@@@@@@@@@",
"@ 00XXX44444444XX44444--rErEEEEUUUU+SSSM@@@aaaaaaa@@@@@@@@@=@@@@",
"@ 04444444444444444444--rrEEEEKKUUUU+SSM@@@aaaaaaa@@@%@@@@@@@@@@",
"@ 04444444444444444444--XrrrGEEEEEUUUSM@@@@aaaaaaa@@@@@@@@@@@%@@",
" -44444444444444444444-XXkrrBGEEEEEEECEkk@@@aEEEEEhhhh%@@@@@@@@@",
" -X44---44444----4444--X.kkrBBEEEEEEECEkkk@EEEEEEEEhhh@@@++++++@",
" -X4------444----X44---..kkrrNGEEEEEEEEEkkEEEEEEEEEhhhh@@++++++@",
" XX4------X444XXX44------rkrrrEEEEEECEEEkkEEEEEEEEEEhhhhqddd<+++",
" X44-----XX4444444------rrrrBEEEEEEEPEEEEEEAEEEEEEEEhhVVqdddv*++",
" 0444XXXXX4444444----XXErBBBEEEEIIIIEENMNNEAEEEEEEEhhhVVgggddJ++",
" 044444444444444-----XXEEEEEEEEEIURREZNNNNNAAEEEEEhhhhN$ggggJc@@",
" 04444444444444-----XEEEEEEEEEEDRRYYHZZNNNN@@EEZEEhhhhtttfggJxz@",
"@ 04444444---------EEEEEEEElDDDDYYYYYZZNNNN@@ZZZZZLh@@ttttfssx@@",
"@@ ---------------GEEEEEEEEl%DDDYYYYYZZNNN@@@ZZZZZZ@@@;ttttt$$@@",
"@=W --------------GGGGGGF@@@@@DDSYYY++@@@@@@5SZZS2v=@@>tttttt@@@",
"@@=@     ---------  GGGG@@@%%@@DDYYi++@%@@@@@##:##=@@@@>tttt1@@@",
"@@@@@@@@,         @@@@@@@@@%7%@@@@@@@@@@@@5@@@@@@@@@@@@@,@@@@@@@",
"@@@@%@@@@@@@@@@@@@5@@@@@@@@@rrr@@@@@%@@@@@@@@@@@@@@@%@@@@@@@@@@@",
"@@@%9%@@@@@@@@@@@@@@@@@@@@@@rrrr@@@%9%@@@@@@@@@@@@@%9%@@@@@@@@@@",
"@@@@%@@@@@@@@@@@@@@@@@5@@@@@rrrr@@@@%@@@@@@@@@@@@@@@%@@@@@@@&@@@",
"@@@@@@@@@=@@@@@@@@@@@@@@@@@7rrrr@@@@@@@@@@@@&@@@@@@@@@@@@=@@@@@@",
"@@@@@@@@=W=@@@@@@@@@@@@@@@@@rrr@@@@@@@@@@@@@@@@@@@@@@@@@=W=@@@@@",
"@@@@@@@@@=@@@@@@@@@@@@@@@@@@@@@@@@@@@@@@@@@@@@@@@@@@@@@@@=@@@@@@",
"@@@@%@@@@@@@@@@@@@@@@9@@@@@@@@@@@@@@@@@@@@@@@@@@@@@@@@@@@@@@@@@@",
"@@@%,%@@@@@@@@@@@@@@@@@@@@@8@@@@@@@@@@@@@@@@@@@@@@@@@@@@@@@@@@@@",
"@@%,w,%@@@@@@@@@@@@@@@@@@@@@@@@@@@@@@@@@@@@@@@@@@@@@@@@@@@@@@@@@",
"@%,wmw,%@@@@@@@@@@@@@@@@@@@@@@@@@@@@@@@@@@@@@@@@@@@@@@@@@@@@@@@@",
"@@%,w,%@@@7@@@@@@@6@@@@@@@@@@@@@@@@@@@@@@@7@@@@@@@@@@@@@@@7@@@@@",
"@@@%,%@@@@@@@@@@@7b6@@@@@@@@@@@@@@@@@@@@@@@@@@@@@@@@@@@@@@@@@@@@",
"@9@@%@@@@@@@@@@@@@7@@@@@@@@@@@@@@@@@@9@@@@@@@@@@@@@@@9@@@@@@@@@@",
"@@@@@@@@@@@@@@@@@@@@@@@@@,@@@@@&@@@@@@@@@@@@@@@@@@@@@@@@@@@@@@@@",
"@@@@@@@@@@@@@@@@@@@@@@@@&3,@@@&5&@@@@@@@@@@@@@@@@@@@@@@@@@@@@@@@",
"@@@@@@@@@@@@@&@@@@@@@@@@@&@@@&5Q5&@@@@@@@@@@@@@@@@@@@@@@@@@@@@@@",
"@@@@@=@@&@@@&W&@@@6@@@@@@@@@@@&5&@@@@@@@&@@@@@@@@@@@@=@@&@@@@@@@",
"@@9@=W=@@@@@@&@@@696@@@@@@@@@@@&@@9@@@@@@@@@@@@@@@@@=W=@@@@@@@7@",
"@@@@@=@@@@@@@@@@@@6@@@@@@@@@@@@@@@@@@=@@@@@@@@@@@@@@@=@@@@@@@@@@",
"@@@@@@@@@@9@@@@@@@@@@@@@@@@@@@@@@@@@@@@@@@9@@@@@@@@@@@@@@@9@@@@@",
"@@@@@@@@@@@@@@@@@@@@@@@@@@@@@@@@@@@@@@@@@@@@@@@@@@@@@@@@@@@@@@@@"
};
