/* XPM */
static char *_348ec2dc6e84031f36cc164f7e9ae1bYbi8uOp7QLwVdQbF[] = {
/* columns rows colors chars-per-pixel */
"64 64 81 1 ",
"  c black",
". c #0D0504",
"X c #1A0C0A",
"o c #130315",
"O c #170314",
"+ c #120417",
"@ c #1B0412",
"# c #120418",
"$ c #270610",
"% c #2E0610",
"& c #260E23",
"* c #221325",
"= c #331939",
"- c #35193A",
"; c #392321",
": c #5B0E0D",
"> c #5D0E0D",
", c #49101F",
"< c #63140A",
"1 c #68110D",
"2 c #771714",
"3 c #4D1326",
"4 c #5F1624",
"5 c #661A2C",
"6 c #563D38",
"7 c #002D51",
"8 c #532244",
"9 c #572956",
"0 c #65305A",
"q c #76356E",
"w c #6A4542",
"e c #A81B0F",
"r c #9F2707",
"t c #A52A09",
"y c #A82D11",
"u c #BD2130",
"i c #FF1B00",
"p c #CC2310",
"a c #D32817",
"s c #FF2800",
"d c #FF3400",
"f c #FF5600",
"g c #FF5900",
"h c #FF4E14",
"j c #FF5A1D",
"k c #FF6200",
"l c #FF6500",
"z c #FF6D00",
"x c #FF7400",
"c c #FF7D00",
"v c #FF7C05",
"b c #923E77",
"n c #935143",
"m c #BE467D",
"M c #F56467",
"N c #FF767B",
"B c #FF8400",
"V c #FC8900",
"C c DarkOrange",
"Z c #FF8F00",
"A c #FF9D00",
"S c orange",
"D c #E3B900",
"F c #FFB700",
"G c #FFBD00",
"H c #FFC200",
"J c #FFC500",
"K c #FFD000",
"L c #FFD300",
"P c #FFD500",
"I c #C1E800",
"U c #FFE600",
"Y c #FAE800",
"T c #FFEB00",
"R c #FFEF00",
"E c #FFF400",
"W c #FFF500",
"Q c #FFFB00",
"! c yellow",
"~ c #CF4F8B",
"^ c #009ADE",
/* pixels */
"######################################################-#########",
"##########################################q#####################",
"####################################0########################*##",
"############3###############################################*7*#",
"#########*#3u3###########################################*#*7^7*",
"############3########9#######################8#######9######*7*#",
"###############&############################8b9##############*##",
"##########q###############q##################9############q#####",
"######################################3#########################",
"#####################################35*########################",
"################################q#####*#########################",
"##~####*###############*##-#######################~####*##-#####",
"#############q###########-~-#q##############8############-~-#q##",
"##########################-###dd##########################-#####",
"#####q###############q#######dddd####################q##########",
"############################dddddd##############################",
"##########3#############sss#dddddd##############################",
"########     ##########sssssddddd########################5######",
"#######  ;;;;  q#######ssssBfddd###############q###############q",
"##8###  ;...;;; ########sssf######8####+##########8#########*###",
"#8q8#  ;;....;;;  8##############8q8++#+#++################*7*##",
"##8#  ;;;XXXX.;;;;  ###########q##8#++++++################*7^7*#",
"###  .;;;;XXX;;;;;;; ####5#######+++++o+++#####+###########*7*##",
"##  ...;;;;;;;;;;;;;  #YY##<<<##++++++:o+++#ryr+############*###",
"#  .XXX;;;;;;;;;;;;;;  !!Y<<<<<+++++++2++++rynyrr#####-#########",
"  ;;;;;;;;;;;;;;;;;;;; !!!!<<<<++++++BBC+#rrryrrr###############",
" ;;;;;666666666666;;;;; !!!<QQQLPL+++BBBz#rrrrrrr###############",
";;;;;666666X6666666;;;;;!s!!QQQLLLL+&BBzz#rrrrrrr##########-####",
";;;66666666XXX666666;;;;ss!!QQGGLLLL++Bz##rrrrrrr####&##########",
" ;666666666;;;66666666;;;sf!GWGGGL!L++#####rrtrr#############&##",
" w6666666666;;666666666;;BfBsWWW!!!!##&####IIrr##ggg##&#########",
"#ww6666666666;666XXX6666;BBssss!!!!!DB####I!!!!!!!gggg##########",
"# ww66XXX66666666X;XX6666Bffsss!!!!!!BBUk!!!!!!!!!!gggg#########",
"## w6XXXXX6666666;;;XX66BBfsss!E!!!!BBUUk!!!!!!!!!!gggg##ooo=###",
"## w6;;;;X6666666;;;;X66sss!!!!!!!!BBBUUkT!!!!!!!!!!ggg#%ppam=##",
"### w;;;;;X666666;;;;;66sss!!!!RRR$FBBW!kTV!!!!!!!!gggx%ppppa###",
"#### ;;;;;;X666666;;;;66s!!!PPWHHH$$WWExzxVV!!!!!!!ggxx#%pppjh##",
"####  ;;;;;66666666666Xs!!!!!c!!HHKKcxzxxxVVC!!!!!gggxo#%ppjjh:#",
"##### w;;;;6666666666X!s!!!ll!!!HKL!cBxxxz#VL!!!PSgggOOO3e%%hh##",
"##-##  w66666XXXX666!!!!!!lll!!ZAJJ!cccxxx##vvvvvv=##OO,4,O%%o##",
"#-~-##  w6666;;;XX6!!!!!!!ll#CZZJJJJcBcxxz##vvvvvv~-##,4M4,O####",
"##-####  wwww;;; SSS!!!!!ll&&#ZZJJJJ1Bcxx###vvvvvv-###O,4,OO=###",
"########3     ### SSSSSS###&9&CZFJJ1######7#@vvvv@######,oo#####",
"####&#############7#########&&##Co1#&########@@@@###&###++Oo####",
"###&q&#############################&q&#############&q&##########",
"####&#################7#####i#######&###############&#######*###",
"#########-#################iiii#############*############-######",
"########-~-################iiii#########################-~=#####",
"#########-#################iiii##########################-######",
"####&################q######i###################################",
"###&3&#####################0####################################",
"##&3u3&#########################################################",
"#&3uNu3&########################################################",
"##&3u3&###9#######8#######################9###############9#####",
"###&3&###########9b8############################################",
"#q##&#############9##################q###############q##########",
"#########################3#####*################################",
"########################*53###*7*###############################",
"#############*###########*###*7^7*##############################",
"#####-##*###*~*###8###########*7*#######*############-##*#######",
"##q#-~-######*###8q8###########*##q#################-~-#######9#",
"#####-############8##################-###############-##########",
"##########q###############################q###############q#####",
"################################################################"
};
