/* XPM */
static char *_5fcb4d5946c4e4ef137159854ed0253M5TXXshCwsjK9Yzz[] = {
/* columns rows colors chars-per-pixel */
"64 64 76 1 ",
"  c black",
". c #0D0504",
"X c #1A0C0A",
"o c #120315",
"O c #150314",
"+ c #120417",
"@ c #1A0412",
"# c #1B0412",
"$ c #1E0412",
"% c #120418",
"& c #3C0A0D",
"* c #3D090F",
"= c #270610",
"- c #260E23",
"; c #221325",
": c #321634",
"> c #331939",
", c #35193A",
"< c #392321",
"1 c #63140A",
"2 c #4C1326",
"3 c #4D1326",
"4 c #501822",
"5 c #661A2C",
"6 c #563D38",
"7 c #002D51",
"8 c #532244",
"9 c #572956",
"0 c #65305A",
"q c #76356E",
"w c #005668",
"e c #6A4542",
"r c #9F2707",
"t c #A52A09",
"y c #BD2130",
"u c #FF0300",
"i c #FF0E00",
"p c #FF1B00",
"a c #CC2310",
"s c #F33409",
"d c #FF4000",
"f c #FF4C00",
"g c #FF5600",
"h c #FF5707",
"j c #FF5900",
"k c #FF6200",
"l c #FF6500",
"z c #FF6D00",
"x c #FF6209",
"c c #FF7200",
"v c #FF7900",
"b c #923E77",
"n c #BE467D",
"m c #FF767B",
"M c #FF8F00",
"N c #FF810A",
"B c #F69500",
"V c #FF9700",
"C c #F0A100",
"Z c #FFA100",
"A c #FFAB00",
"S c #FFB100",
"D c #FFBF00",
"F c #B8F300",
"G c #FFC700",
"H c #FFC900",
"J c #FFD400",
"K c #FFDB00",
"L c #FFDC00",
"P c #FFE400",
"I c #FFF100",
"U c #FFF600",
"Y c yellow",
"T c #006789",
"R c #CF4F8B",
"E c #009ADE",
/* pixels */
"%%%%%%%%%%%%%%%%%%%%%%%%%%%%%%%%%%%%%%%%%%%%%%%%%%%%%%,%%%%%%%%%",
"%%%%%%%%%%%%%%%%%%%%%%%%%%%%%%%%%%%%%%%%%%q%%%%%%%%%%%%%%%%%%%%%",
"%%%%%%%%%%%%%%%%%%%%%%%%%%%%%%%%%%%%0%%%%%%%%%%%%%%%%%%%%%%%%;%%",
"%%%%%%%%%%%%3%%%%%%%%%%%%%%%%%%%%%%%%%%%%%%%%%%%%%%%%%%%%%%%;7;%",
"%%%%%%%%%;%3y3%%%%%%%%%%%%%%%%%%%%%%%%%%%%%%%%%%%%%%%%%%%;%;7E7;",
"%%%%%%%%%%%%3%%%%%%%%9%%%%%%%%%%%%%%%%%%%%%%%8%%%%%%%9%%%%%%;7;%",
"%%%%%%%%%%%%%%%-%%%%%%%%%%%%%%%%%%%%%%%%%%%%8b9%%%%%%%%%%%%%%;%%",
"%%%%%%%%%%q%%%%%%%%%%%%%%%q%%%%%%%%%%%%%%%%%%9%%%%%%%%%%%%q%%%%%",
"%%%%%%%%%%%%%%%%%%%%%%%%%%%%%%%%%%%%%%3%%%%%%%%%%%%%%%%%%%%%%%%%",
"%%%%%%%%%%%%%%%%%%%%%%%%%%%%%%%%%%%%%35;%%%%%%%%%%%%%%%%%%%%%%%%",
"%%%%%%%%%%%%%%%%%%%%%%%%%%%%%%%%q%%%%%;%%%%%%%%%%%%%%%%%%%%%%%%%",
"%%R%%%%;%%%%%%%%%%%%%%%;%%,%%%%pp%%%%%%%%%%%%%%%%%R%%%%;%%,%%%%%",
"%%%%%%%%%%%%%q%%%%%%%%%%%,R,%qpppp%%%%%%%%%%8%%%%%%%%%%%%,R,%q%%",
"%%%%%%%%%%%%%%%%%%%%%%%%%%,%%ppppp%%%%%%%%%%%%%%%%%%%%%%%%,%%%%%",
"%%%%%q%%%%%%%%%%%%%%%q%%iii%%%pppp%%%%%%%%%%%%%%%%%%%q%%%%%%%%%%",
"%%%%%%%%%%%%%%%%%%%%%%%%iiii%%pppp%%%%%%%%%%%%%%%%%%%%%%%%%%%%%%",
"%%%%%%%%%%3%%%%%%%%%%%%%iii%d%%%%%%%%%%%%%%%%%%%%%%%%%%%%%%%%%%%",
"%%%%%%%%%%%%%%%%%%%%%%%,%i%%%%%%%%%%%%%%%%%%%%%%%%%%%%%%%5%%%%%%",
"%%%%%%%%;%%  %%q%%%%%%%%%%%%w%%%%%%%%%%%%%%%%%%q%%%%%%%%%%%%%%%q",
"%%8%%%%    ee %%%%%%%%%%%%%%%%%%%%8%%%%%+++%%%%%%%8%%%%%%%%%;%%%",
"%8q8%  <<6eee      %%%%%%%%%%%%%%8q8%%%+++++%%%%%%%%%%%%%%%;7;%%",
"%%8  XXXX6666X<<<eeYYLLL%%%%%=%q%%8%%%%@++++%%%%%%%%%%%%%%;7E7;%",
"%% ee66666666XXXX66eYYYYYL%=====%%%%%%%@@+++%&&&&&%%%%%%%%%;7;%%",
"%%e6666<<<66666X6666eYYYYYY=====s%%%%%%%@++%&4&&&&%%%%%%%%%%;%%%",
"%%e6666<<<<6666666666eYYYYYY====s%%%%%3llg%&4T4&&&&%%%,%%%%%%%%%",
"% <666X<<<<666666<<<<epYYYYYY==PIDD%%%%llg%&&4&&&&&%%%%%%%%%%%%%",
"%<<6666X<<<666666X<<<<pYYYYYYPPPSDDD%%%Rgg%&&&&&&&%%%%%%%%%%%%%%",
"% <<666X<<<666666X<<<<plpYpYYPSSSDDDD%%+%%%%&&&&&&%%%%%%%%%,%%%%",
"% <<6666XXX666666XX<<<<gllppYSSLSSSYYD%%%FFFFY&&&%%%%-%%%%%%%%%%",
"%  <<6666XX6666666X<<<<ggllYSYYYYYYYYY%%FFFFFFF%%%%%%%%%%%%%%-%%",
"%% <<<666666666666XX<<6ggglppYYYYYYYYY-%FFFFYYYYBKKrrrt%%%%%%%%%",
"%% <<<<666666<<666XXXX6eggglppYYYYYYYYzYYFYYYYYYYYKKrrrr%%%%%%%%",
"%, <<<<66666X<<66666666elglppYYYYYYYYYzzYYYYYYYYYYKKKrrrr%%%%%%%",
"%%  <<<<6666X<<66666666eglpppYYYYYYYCzzzYYYYYYYYYYYKKrrrrooO:%%%",
"%%% <<<<<6666XX666666666ppYpYYUYYKKOOzzzzFYYYYYYYYYKKrrrhoO:n:%%",
"%%%  <<<<<<6666666666666pYYYYHH-OOOOOO%Gj%FYYYYYYYYKLrrhhooo:oa%",
"%%%% <<<<<<<<<66666666ppYYYYYYH-OOOOOgjjjjjcccYYYYYKrthh%OoOOaa@",
"%%%%  <<<<<<<<<<<66<<<YYYYYYYYllYZZA&kkjjjj%ccSYYYKrrrh%%%oo%aa@",
"%%%%% <<<<<<<<<<<<<<<YYYYYfffflLKvAAKkkkjjj%%1JJxx1rrr%%3%%oOoa%",
"%%,%%% <<<<XXX<<<.XXYYYYYYfffflLvvZZVkkkjjj%%xxxxxx%%%%353%%%%%%",
"%,R,%%3 <<.XXXX<<..YYYYYYKffff%vvVZZVNlkjjj%7xxxxxx,%%25m52%%%%%",
"%%,%%%%  <<.XXX<<<MMMYYMMfff-%%vvVZZZ$lkjj%%%xxxxxx%%%%352%%>%%%",
"%%%%%%%% <<...<<<< MMMMM%%%-9-%%vVVZ$%%%%%7%%oxxxxo%%%%%2%%%%%%%",
"%%%%-%%%%  <<<<<  7%%%%%%%%%--%%%%%%-%%%%%%%++o+oo%%-%%%%%%%%%%%",
"%%%-q-%%%%% <   %%%%%%%%%%%%%%%%%%%-q-%%%%%%%%%%%%%-q-%%%%%%%%%%",
"%%%%-%%%%%%%%%%%%%%%%%7%%%%%%%%%%%%%-%%%%%%%%%%%%%%%-%%%%%%%;%%%",
"%%%%%%%%%,%%%%%%%%%%%%%%%%%9uu%%%%%%%%%%%%%%;%%%%%%%%%%%%,%%%%%%",
"%%%%%%%%,R,%%%%%%%%%%%%%%%%%uuu%%%%%%%%%%%%%%%%%%%%%%%%%,R,%%%%%",
"%%%%%%%%%,%%%%%%%%%%%%%%%%%%uuu%%%%%%%%%%%%%%%%%%%%%%%%%%,%%%%%%",
"%%%%-%%%%%%%%%%%%%%%%q%%%%%%%u%%%%%%%%%%%%%%%%%%%%%%%%%%%%%%%%%%",
"%%%-3-%%%%%%%%%%%%%%%%%%%%%0%%%%%%%%%%%%%%%%%%%%%%%%%%%%%%%%%%%%",
"%%-3y3-%%%%%%%%%%%%%%%%%%%%%%%%%%%%%%%%%%%%%%%%%%%%%%%%%%%%%%%%%",
"%-3ymy3-%%%%%%%%%%%%%%%%%%%%%%%%%%%%%%%%%%%%%%%%%%%%%%%%%%%%%%%%",
"%%-3y3-%%%9%%%%%%%8%%%%%%%%%%%%%%%%%%%%%%%9%%%%%%%%%%%%%%%9%%%%%",
"%%%-3-%%%%%%%%%%%9b8%%%%%%%%%%%%%%%%%%%%%%%%%%%%%%%%%%%%%%%%%%%%",
"%q%%-%%%%%%%%%%%%%9%%%%%%%%%%%%%%%%%%q%%%%%%%%%%%%%%%q%%%%%%%%%%",
"%%%%%%%%%%%%%%%%%%%%%%%%%3%%%%%;%%%%%%%%%%%%%%%%%%%%%%%%%%%%%%%%",
"%%%%%%%%%%%%%%%%%%%%%%%%;53%%%;7;%%%%%%%%%%%%%%%%%%%%%%%%%%%%%%%",
"%%%%%%%%%%%%%;%%%%%%%%%%%;%%%;7E7;%%%%%%%%%%%%%%%%%%%%%%%%%%%%%%",
"%%%%%,%%;%%%;R;%%%8%%%%%%%%%%%;7;%%%%%%%;%%%%%%%%%%%%,%%;%%%%%%%",
"%%q%,R,%%%%%%;%%%8q8%%%%%%%%%%%;%%q%%%%%%%%%%%%%%%%%,R,%%%%%%%9%",
"%%%%%,%%%%%%%%%%%%8%%%%%%%%%%%%%%%%%%,%%%%%%%%%%%%%%%,%%%%%%%%%%",
"%%%%%%%%%%q%%%%%%%%%%%%%%%%%%%%%%%%%%%%%%%q%%%%%%%%%%%%%%%q%%%%%",
"%%%%%%%%%%%%%%%%%%%%%%%%%%%%%%%%%%%%%%%%%%%%%%%%%%%%%%%%%%%%%%%%"
};
