/* XPM */
static char *_ab8261481544415cd04b0a8be425779FRbHDiGtVyeqqrY9[] = {
/* columns rows colors chars-per-pixel */
"64 64 82 1 ",
"  c black",
". c #0D0504",
"X c #1A0C0A",
"o c #120315",
"O c #120417",
"+ c #1A0412",
"@ c #1E0412",
"# c #120418",
"$ c #3C0A0D",
"% c #270610",
"& c #0C1730",
"* c #260E23",
"= c #221325",
"- c #37142F",
"; c #35193A",
": c #392321",
"> c #5B0E0D",
", c #4A1225",
"< c #4D1326",
"1 c #401628",
"2 c #631620",
"3 c #661A2C",
"4 c #563D38",
"5 c #002D51",
"6 c #532244",
"7 c #572956",
"8 c #65305A",
"9 c #76356E",
"0 c #6A4542",
"q c #86140E",
"w c #9A1A14",
"e c #931C1B",
"r c #A41C16",
"t c #9F2707",
"y c #B1220A",
"u c #BD2130",
"i c #C1270B",
"p c #D42C0C",
"a c #FF2800",
"s c #FF3400",
"d c #FF3B12",
"f c #E43F35",
"g c #FF4000",
"h c #FF4C00",
"j c #FF4013",
"k c #FF461C",
"l c #FF4A1B",
"z c #FF5C16",
"x c #FF6200",
"c c #FF6500",
"v c #FF6D00",
"b c #FF7200",
"n c #FF7900",
"m c #FF7A00",
"M c #FF7D00",
"N c #FF651E",
"B c #FF7427",
"V c #923E77",
"C c #FF767B",
"Z c #FF8400",
"A c #FF8D00",
"S c #FF8F00",
"D c #F69500",
"F c #FF9300",
"G c #FF9A00",
"H c #FFAC00",
"J c #FFAD00",
"K c #E3B900",
"L c #FFB600",
"P c #B8F300",
"I c #FFC300",
"U c #FFC800",
"Y c #FFD300",
"T c #FFDA00",
"R c #FFDD00",
"E c #FFE500",
"W c #F7EE00",
"Q c #FFEA00",
"! c #FFFB00",
"~ c yellow",
"^ c #CF4F8B",
"/ c #009ADE",
/* pixels */
"######################################################;#########",
"##########################################9#####################",
"####################################8########################=##",
"############<###############################################=5=#",
"#########=#<u<###########################################=#=5/5=",
"############<########7#######################6#######7######=5=#",
"###############*############################6V7##############=##",
"##########9###############9##################7############9#####",
"######################################<#########################",
"#####################################<3=########################",
"################################9#####=#########################",
"##^####=###############=##;#######################^####=##;#####",
"#############9###########;^;#9##############6############;^;#9##",
"##########################;###############################;#####",
"#####9###############9########gggg###################9##########",
"##############################ggggg#############################",
"##########<###   #########sssgggggg#############################",
"###########   :::  ####;#ssssmggggg######################3######",
"########=#  04:::: ######ssssGggggs############9###############9",
"##6#####  00444:::: #####sssGGxggg6###############6#########=###",
"#696### 0044444:::X. #####sss####696#######################=5=##",
"##6### 00444444:::X.. #########9##6#####ooo###############=5/5=#",
"####  :::XX44444::X..: ##3########OO##oooooo###############=5=##",
"##  0:::::X444444::.::: WW#######OOOo##ymooo#;##############=###",
"## 0:::::XX444444:::::::~~Wttttt#OOOOO,yoooo;hhhh#####;#########",
"# 044::::XX444444::::::::~~~ttt~~OOOOOFFLoo#hhhhhh##############",
"# 044:::X44444444:::XX..:~~~~~~~~RROOOFFFm#hhhhhhhh#############",
" 0444::X444444444:::XXX.:~~~~~~~~RRR*OFFFm#hhhhhhhh########;####",
" 044444444444::X4:::XX..gg~~~~~~IRRRROFFmm#hhhhhhh###*##########",
" 04444444444::X44::::..Ggg~~~~~~IIR~ROO#####hhhhhh###########*##",
"# :X44444444:XX44::::::Ggmg~~~~~~~~~~I*#####P~~~~Kcccc*#########",
"# :XX444444444444::::::GGmmgg~~~~~~~~~SS#v#P~~~~~~~~ccc####OOOO#",
"# :X4444444444444::::: GGMGs~~~~~~~~~~S!!vv~~~~~~~~~~ccc###OOOOO",
"# XX44444::X44444:::::gmmg~~~~~~~~~~~~S!!vv~~~~~~~~~~cccc#>+-+OO",
" 004444::::X4444::::::ggg~~~~~~~~~~~~SS!!vv~~~~~~~~~~ccxZ>jjjj+O",
"# 0444:::::X444:::::: ~~~~~~~~~~~~~$US~~~QvDD~~~~~~~~ccZZdllljjO",
"#  444::::XX444:::::~~~~~~~~~~~~~~YYY~~~MMMDDD~~~~~~ccZZ@dlllBzy",
"## :X44::XX444::::: ~~~~~~~~~~Z~~YYEESSMMMMMDD~~~~~cccZSqkdllBzi",
"## ::X44444444:::: ~~~~~~~~~bb~~~YEEJ~SSMMMM#Q~~~AQxcc%qwqkkdNzi",
"##;  X4444444:::: J~~~~~~~~~bbGGGGTTT~SSMMMm#SAASSS###%wrwqqldO#",
"#;^;  044444::   #JH~~~~~~~bb#GGGUTTTTSSMMM#5SSAAAS1##<2frwqq+o#",
"##;##  0444::  ##&#JHH~~~HH**##GGUTTTp#SMM###%SSASS####<2wqqe###",
"######     :  ######HHHHH##*7*##GGUTp#####5###%%A%%#####<#%%####",
"####*#############5#########**######*##########%%%##*###########",
"###*9*#############################*9*#############*9*##########",
"####*#################5#####aaaa####*###############*#######=###",
"#########;#################7aaaaa###########=############;######",
"########;^;#################aaaaa#######################;^;#####",
"#########;###################aaa#########################;######",
"####*################9##########################################",
"###*<*#####################8####################################",
"##*<u<*#########################################################",
"#*<uCu<*########################################################",
"##*<u<*###7#######6#######################7###############7#####",
"###*<*###########7V6############################################",
"#9##*#############7##################9###############9##########",
"#########################<#####=################################",
"########################=3<###=5=###############################",
"#############=###########=###=5/5=##############################",
"#####;##=###=^=###6###########=5=#######=############;##=#######",
"##9#;^;######=###696###########=##9#################;^;#######7#",
"#####;############6##################;###############;##########",
"##########9###############################9###############9#####",
"################################################################"
};
