/* XPM */
static char * boom3_xpm[] = {
"64 64 23 1",
" 	c #120418",
".	c #321F3C",
"+	c #68386C",
"@	c #5A3359",
"#	c #241A29",
"$	c #441A2A",
"%	c #143151",
"&	c #A22633",
"*	c #0099DB",
"=	c #4E2D55",
"-	c #4A2745",
";	c #261627",
">	c #804075",
",	c #000000",
"'	c #59202F",
")	c #F79617",
"!	c #B55088",
"~	c #E83B3B",
"{	c #1E5767",
"]	c #5C2F57",
"^	c #2CE8F5",
"/	c #F6757A",
"(	c #171D33",
"                                                      .         ",
"                                          +                     ",
"                                    @                        #  ",
"            $                                               #%# ",
"         # $&$                                           # #%*%#",
"            $        =                       -       =      #%# ",
"               ;                            ->=              #  ",
"          +               +             ,    =            +     ",
"                                      $ ,,                      ",
"                                     $'#,                       ",
"      ,,                        +     #))                       ",
"  !  ,~,)              #  .            )          !    #  .     ",
"      ))))   +           .!. +         )    -            .!. +  ",
"       )))                .                               .     ",
"     + )))           +                )              +          ",
"         )                            )                         ",
"         )$                                                     ",
"                       .                                 '      ",
"        #      +            {                  +               +",
"  -                               -               -     ),, #   ",
" -+-              -              -+-                   )), #%#  ",
"  -                            +  -                    )))#%*%# ",
"                         '                           ))    #%#  ",
"                                             .      )       #   ",
"                                      $     .*.       .         ",
"       $          ;                          .                  ",
"                    -         ;        !                        ",
"           .       -!-       ;+;    ;                      .    ",
"                    -         ;                      ;          ",
"             ;           +                   ;               ;  ",
"      ;              ;                ;               ;         ",
"                                .               .               ",
" .                             .!.                              ",
"                                .                           .   ",
"             .    #                                        .!.  ",
"         #              ]    ;;;               .            .   ",
"     #  #%#                 ;%%;     #               #          ",
"       #%*%#             ; ;%^%;                                ",
"        #%#                ;%%;    ;                    $       ",
"  .      #                 ;;;                    .    $'$      ",
" .!.  $                                     %    .!.  $'/'$     ",
"  .         .    (         ;;     .    ;       ;  .    $'$  .   ",
"        $)                 ;=;            %             $       ",
"    ;   )         %         ;;      ;               ;           ",
"   ;+;)))                          ;+;             ;+;          ",
"    ~,)               %))           ;               ;       #   ",
"    ,))  .            ))   =                #            .      ",
"        .!.          ,)                                 .!.     ",
"         .           ~                                   .      ",
"    ;                +                                          ",
"   ;$;                     @                                    ",
"  ;$&$;                                        )                ",
" ;$&/&$;                                        )))             ",
"  ;$&$;   =       -                       =       ))      =     ",
"   ;$;           =>-                               ,            ",
" +  ;             = )                +             ~,+          ",
"                  ))     $     #                                ",
"                  )     #'$   #%#                               ",
"             #   ))      #   #%*%#                              ",
"     .  #   #!# ~,-           #%#       #            .  #       ",
"  + .!.      #  ,-+-           #  +                 .!.       = ",
"     .            -                  .               .          ",
"          +                               +               +     ",
"                                                                "};
