/* XPM */
static char * boom1_xpm[] = {
"64 64 25 1",
" 	c #120418",
".	c #321F3C",
"+	c #68386C",
"@	c #5A3359",
"#	c #241A29",
"$	c #441A2A",
"%	c #143151",
"&	c #A22633",
"*	c #0099DB",
"=	c #4E2D55",
"-	c #4A2745",
";	c #261627",
">	c #804075",
",	c #59202F",
"'	c #B55088",
")	c #000000",
"!	c #966C6C",
"~	c #625565",
"{	c #3E3546",
"]	c #2E222F",
"^	c #FB6B1D",
"/	c #1E5767",
"(	c #5C2F57",
"_	c #F6757A",
":	c #171D33",
"                                                      .         ",
"                                          +                     ",
"                                    @                        #  ",
"            $                                               #%# ",
"         # $&$                                           # #%*%#",
"            $        =                       -       =      #%# ",
"               ;                            ->=              #  ",
"          +               +                  =            +     ",
"                                      $                         ",
"                                     $,#                        ",
"                                +     #                         ",
"  '    #               #  .      )!!~{!)          '    #  .     ",
"             +           .'. +   )~!~!!!)   -            .'. +  ",
"                          .      ){{~~!{!                 .     ",
"     +       ]~)     +           )~~{{!))            +          ",
"            )]~)                 !~~~{!^^                       ",
"          $ ]{~!)                )!~~~!^                        ",
"           )~~)^^      .         ^^^))!                  ,      ",
"        # ){!)^^^           /    ^^^^^)        +               +",
"  -       ){)^^^^^               ^^^^^^           -         #   ",
" -+-        ^^^^^^^              ^^^^^           {))       #%#  ",
"  -           ^^^^^            +^^^^^          ))~~{      #%*%# ",
"               ^^^^^     ,      ^^^^         ^)~!{{!~)     #%#  ",
"                 ^^^            ^^^         ^^)!!~{{!)      #   ",
"                 ^^^            ^^^   $     ^^)!!~~{!{)         ",
"       $          ;^^          ^^          ^^^){!~!!~~{         ",
"                    ^^        ;^^      '   ^^^^!!))!!~)         ",
"           .       -'^       ;+^^   ;     ^^^^^))^^)!)     .    ",
"                    -         ;          ^^^^^^^^^^^ ;          ",
"             ;           +               ^^^^^^^^^^^         ;  ",
"      ;              ;                ; ^^^^^^^^^     ;         ",
"                                .       ^^^^^^^ .               ",
" .                             .'.     ^^^^^^^                  ",
"            ^^^^^^^            ^.      ^^                   .   ",
"          ^^^^^^^^#            ^      ^^                   .'.  ",
"         ^))^^^^^       (    ;^^               .            .   ",
"     #  #!{{{)^^            ^^^;     #               #          ",
"       #)~~{{{^^         ; ;^^^;                                ",
"        ){~~)^            ^)^^^    ;  ^^                $       ",
"  .      {~~)^           ^){)^^       ^^^^^^      .    $,$      ",
" .'.  $  ]{{)^           )~~)^^        ^^^^^^^^  .'.  $,_,$     ",
"  .       ){.    :       )!~{)    .    ^^^^^^^^^^^.    $,$  .   ",
"        $  )              )!);         ^^^^^^^^^^^^^    $       ",
"    ;             %        );;      ;  ^^^^^)))^)))^;           ",
"   ;+;                             ;+; ^^^^^^)~~~{{));          ",
"    ;                 %             ;   ^^^^^){{{~~{~)      #   ",
"         .                 ^            ^^^^~{{~~!{!     .      ",
"        .'.              ^^^             ^^^{{{{]]])    .'.     ",
"         .               ^^              ^^){{]{{))      .      ",
"    ;                + ^^^                 )))))                ",
"   ;$;                ^^^  @                                    ",
"  ;$&$;              ))^^                                       ",
" ;$&_&$;            ){{)^                                       ",
"  ;$&$;   =       - {]])                  =               =     ",
"   ;$;           =>-)))                                         ",
" +  ;             =                  +               +          ",
"                         $     #                                ",
"                        #,$   #%#                               ",
"             #           #   #%*%#                              ",
"     .  #   #'#   -           #%#       #            .  #       ",
"  + .'.      #   -+-           #  +                 .'.       = ",
"     .            -                  .               .          ",
"          +                               +               +     ",
"                                                                "};
