/* XPM */
static char * boom2_xpm[] = {
"64 64 23 1",
" 	c #120418",
".	c #321F3C",
"+	c #68386C",
"@	c #5A3359",
"#	c #241A29",
"$	c #441A2A",
"%	c #143151",
"&	c #A22633",
"*	c #000000",
"=	c #0099DB",
"-	c #4E2D55",
";	c #E83B3B",
">	c #4A2745",
",	c #261627",
"'	c #F79617",
")	c #804075",
"!	c #B55088",
"~	c #2E222F",
"{	c #1E5767",
"]	c #59202F",
"^	c #5C2F57",
"/	c #F6757A",
"(	c #171D33",
"                                                      .         ",
"                                          +                     ",
"                                    @                        #  ",
"            $                                               #%# ",
"         # $&$                         ****              # #%=%#",
"            $        -                 ;;;;* >       -      #%# ",
"               ,                      '*;;;;>)-              #  ",
"          +               +           '*;;*' -            +     ",
"                                     '''**'                     ",
"                                     '''''                      ",
"        *                       +    ''''                       ",
"  !    *~*             #  .         ''''          !    #  .     ",
"      *;*''' +           .!. +      '''     >            .!. +  ",
"       *''''              .         '''                   .     ",
"     + '''''         +             '''               +          ",
"        '''''                      ''                           ",
"         ''''                      '                            ",
"         '''''         .          ''                     *      ",
"        # '''' +            {                  +       *;;;*   +",
"  >        '''                    >               >   '*;;;;#   ",
" >+>        ''    >              >+>                 ''*;*;;%#  ",
"  >         ''                 +  >                 '''''''%=%# ",
"             '           ]                         ''''''' #%#  ",
"                                             .   ''''''     #   ",
"                                      $     .=.  ''''''         ",
"       $          ,                          .  '''''           ",
"                    >         ,        !       ''''             ",
"           .       >!>       ,+,    ,          '''         .    ",
"                    >         ,               '''    ,          ",
"             ,           +                  '''              ,  ",
"      ,              ,                ,     '         ,         ",
"                                .               .               ",
" .                             .!.                              ",
"                                .                           .   ",
"             .    #                                        .!.  ",
"         #      '       ^    ,,,               .            .   ",
"     #  #%#   '''           ,%%,     #               #          ",
"       #%=%#'''          , ,%'',                                ",
"        #%#'''             ,'''    ,                    $       ",
"  .     ''''               ,''                    .    $]$      ",
" .!.  ''''''               ''               %    .!.  $]/]$     ",
"  .  *''''' .    (        '''     .    ,       ,  .    $]$  .   ",
"    ;;;*'                '''-,            %             $       ",
"    ;;*''         %     '''',,      ,               ,           ",
"   ,;;''               '*'''       ,+,             ,+,          ",
"    *;'               %;;'          ,       ''      ,       #   ",
"     *   .             *;  -                '''          .      ",
"        .!.                                  ''''       .!.     ",
"         .              '                     '''        .      ",
"    ,                + ''                     ''''              ",
"   ,$,                 '   @                   '''''            ",
"  ,$&$,               ''                        ''''            ",
" ,$&/&$,             ''                          '''''          ",
"  ,$&$,   -       > '''                   -       '''**   -     ",
"   ,$,           -)>'''                            '*;;*        ",
" +  ,             - '''              +              ;;;         ",
"                   ''    $     #                                ",
"                  **'   #]$   #%#                               ",
"             #    **     #   #%=%#                              ",
"     .  #   #!#   >           #%#       #            .  #       ",
"  + .!.      #   >+>           #  +                 .!.       - ",
"     .            >                  .               .          ",
"          +                               +               +     ",
"                                                                "};
