/* XPM */
static char * boom0_xpm[] = {
"64 64 26 1",
" 	c #120418",
".	c #321F3C",
"+	c #68386C",
"@	c #5A3359",
"#	c #241A29",
"$	c #441A2A",
"%	c #143151",
"&	c #A22633",
"*	c #0099DB",
"=	c #4E2D55",
"-	c #4A2745",
";	c #261627",
">	c #804075",
",	c #59202F",
"'	c #B55088",
")	c #1E5767",
"!	c #000000",
"~	c #F79617",
"{	c #FB6B1D",
"]	c #2E222F",
"^	c #3E3546",
"/	c #625565",
"(	c #966C6C",
"_	c #E83B3B",
":	c #F6757A",
"<	c #171D33",
"                                                      .         ",
"                                          +                     ",
"                                    @                        #  ",
"            $                                               #%# ",
"         # $&$                                           # #%*%#",
"            $        =                       -       =      #%# ",
"               ;                            ->=              #  ",
"          +               +                  =            +     ",
"                                      $                         ",
"                                     $,#                        ",
"                                +     #                         ",
"  '    #               #  .                       '    #  .     ",
"             +           .'. +              -            .'. +  ",
"                          .                               .     ",
"     +               +                               +          ",
"                                                                ",
"          $                                                     ",
"                       .                                 ,      ",
"        #      +            )                  +               +",
"  -                  !!~~{{!!!!!! -               -         #   ",
" -+-              - ]^/!~!/(((/^((((                       #%#  ",
"  -                !]^/!~{!/((((((^^!                     #%*%# ",
"                  !]^^^(!{!////((//^(!                     #%#  ",
"                 !^^^^(!~{{!^^///((/^((      .              #   ",
"                 !(/^^(~~{{!^^^((/((((!_    .*.       .         ",
"       $         ^^(!~~{{!///^/^^((!{{__!^!! .                  ",
"                 ^^!~~~{{((/^^/^^(!{{_!!(/^^!                   ",
"           .     ^!~~{{{_!((((//^!{{_!^!(///^!             .    ",
"                 ~~~!!{{{_{!((//((!{///^(((((((      ;          ",
"             ;   ~~~^/!{{__{!((((!{_!//((^^^((/!             ;  ",
"      ;         ~~!!^^/{{___{!!!!!{_!(((^/^^(((!      ;         ",
"                ~((^^^^^/{{_____{___^^(((///(((^!               ",
" .              !(//^^^//!{________!/^^/((//(((^^               ",
"                !(//^^/!!{__!//!___{//^(//((((//^           .   ",
"             .  !((/^//{{_!!^^/(!___!!((!!!!(((/!          .'.  ",
"         #      !^((//^{{!((/^^/(___{{!!{{{{((((!           .   ",
"     #  #%#     !^^^/((!{_!////^!__!!!_~!!!!~{!{{    #          ",
"       #%*%#     ^^^//(!~_!^///^!__!((!!////~~{{{               ",
"        #%#      ]^^///!~_!^(//^^__!//(//^^^!!~{        $       ",
"  .      #       !]]]^^~~{__/((!!{{{^//^^///^//!  .    $,$      ",
" .'.  $           !]^^^~{{{{!//__{!!^/((/////^^  .'.  $,:,$     ",
"  .         .    <  ^!~{{!/^{_!{{!/^^^^//((^(/!;  .    $,$  .   ",
"        $           !~~{~!^^!{_{{///^^^^^^^^]!          $       ",
"    ;             %  ~{{~!^//!{{{^^^^^^^]]]]!       ;           ",
"   ;+;                 ~!^^^^^!!!^^]]^^^^]!!       ;+;          ",
"    ;                 %~!]]]^!{]]]]]]]]^!!          ;       #   ",
"         .              ~!]]!{{!!!!!!!!!    #            .      ",
"        .'.                                             .'.     ",
"         .                                               .      ",
"    ;                +                                          ",
"   ;$;                     @                                    ",
"  ;$&$;                                                         ",
" ;$&:&$;                                                        ",
"  ;$&$;   =       -                       =               =     ",
"   ;$;           =>-                                            ",
" +  ;             =                  +               +          ",
"                         $     #                                ",
"                        #,$   #%#                               ",
"             #           #   #%*%#                              ",
"     .  #   #'#   -           #%#       #            .  #       ",
"  + .'.      #   -+-           #  +                 .'.       = ",
"     .            -                  .               .          ",
"          +                               +               +     ",
"                                                                "};
