/* XPM */
static char *_284575130f44075c82bd05d6bec800ffix2IhIC6jHBJR24[] = {
/* columns rows colors chars-per-pixel */
"64 64 22 1 ",
"  c #160C1E",
". c #260E23",
"X c #221325",
"o c #35193A",
"O c #222233",
"+ c #4D1326",
"@ c #661A2C",
"# c #002D51",
"$ c #532244",
"% c #572956",
"& c #65305A",
"* c #76356E",
"= c #BD2130",
"- c #923E77",
"; c #FF767B",
": c #5D5F92",
"> c #5079C3",
", c #CF4F8B",
"< c #009ADE",
"1 c #BDC9E1",
"2 c #FFFDFE",
"3 c white",
/* pixels */
"                                                      o         ",
"                                          *                     ",
"                                    &                        X  ",
"            +                                               X#X ",
"         X +=+                                           X X#<#X",
"            +        %                       $       %    :3X#X ",
"               .                            $-%              X  ",
"          *               *                  %         333*     ",
"                                      +               3::3      ",
"                                     +@X             3:1:       ",
"                                *     X            31111        ",
"  ,    X               X  o                       33111X  o     ",
"             *           o,o *              $    133113  o,o *  ",
"                          o                    3131113    o     ",
"     *               *                  :1    1131111*          ",
"                                             11311113           ",
"          +                                :11311113            ",
"                       o                 3::1113113      @      ",
"        X      *            3331113333333:::1:3111             *",
"  $                      31::::::::1111::::1:3113 $         X   ",
" $*$              $    3:::::::::11:1:::1:1:3311           X#X  ",
"  $                   3:::::::13333311111::3311           X#<#X ",
"                      ::::::1         31113331     3       X#X  ",
"                    3:::::1              3331o    :         X   ",
"                    :::::   11222221  + 3331o<o       o         ",
"       +          .3::::   32OOOOOOO21 33313 o                  ",
"                   1:::1  3OOOOOOOOOO2333131                    ",
"           o       ::::  3OOOOOOOOOOO2331311               o    ",
"                  3:::1 1OOOOOOOOOOOO331  11         .          ",
"             .    3:::  1OOOOOOOOOOO3332  :1 .               .  ",
"      .           31::  3OOOOOOOOOO333OO1 1:          .         ",
"                  31::  2OOOOOOOOO333OOO1 1:3   o               ",
" o                11:1  2OOOOOOOO333OOOO1 1:3                   ",
"                  11:1  2OOOOOOO333OOOOO1 ::3               o   ",
"             o    11:1  2OOOOOO331>OOOO2  ::               o,o  ",
"         X        3111  1OOOOO331OOOOOO2  ::   o            o   ",
"     X  X#X       3111   2OOO331OOOOOOO1 :::         X          ",
"       X#<#X      311:   122331OOOOOOO1  :::                    ",
"        X#X    :  311:3   3331OOOOOOO1  :::             +       ",
"  o      X        31111  33312OOOO221  ::::       o    +@+      ",
" o,o  +          331111 331:  1111    ::::  #    o,o  +@;@+     ",
"  o         o    31111:33113.     o :::::      .  o    +@+  o   ",
"        +       33111133113111:::::::::1  #             +       ",
"    .           31111331:1:1111:::::::              .           ",
"   .*.         31111:31:       333 .*.             .*.          ",
"    .          1111:11: :           .               .       X   ",
"         o    3111::::     %                X            o      ",
"        o,o  3111:::3                                   o,o     ",
"         :  313331:                                      o      ",
"    .   3  313311:   *                                          ",
"   .+.     13331:          &                                    ",
"  .+=+.   31311:     1                                          ",
" .+=;=+. 3113:1                                                 ",
"  .+=+. 3113:     $                       %               %     ",
"   .+.  1131     %-$                                            ",
" *  .  3133       %                  *               *          ",
"      333                +     X                                ",
"      33                X@+   X#X                               ",
"             X           X   X#<#X                              ",
"     o  X   X,X   $           X#X       X            o  X       ",
"  * o,o      X   $*$           X  *                 o,o       % ",
"     o1:          $                  o               o          ",
"          *                               *               *     ",
"                                                                "
};
