/* XPM */
static char *a640e862da4643b7cf6c5c466d7bd5d3YXXUajbPZbIurJ5l[] = {
/* columns rows colors chars-per-pixel */
"64 64 23 1 ",
"  c #120418",
". c #260E23",
"X c #221325",
"o c #35193A",
"O c #222233",
"+ c #4D1326",
"@ c #661A2C",
"# c #002D51",
"$ c #532244",
"% c #572956",
"& c #65305A",
"* c #76356E",
"= c #BD2130",
"- c #923E77",
"; c #FF767B",
": c #5D5F92",
"> c #5079C3",
", c #CF4F8B",
"< c #009ADE",
"1 c #6293EB",
"2 c #BDC9E1",
"3 c #FFFDFE",
"4 c white",
/* pixels */
"                                                      o         ",
"                                          *                     ",
"                                    &                     2  X  ",
"            +                                              4X#X ",
"         X +=+                                           X X#<#X",
"            +        %                       $       %      X#X ",
"               .                            $-%              X  ",
"          *               *                  %           4*     ",
"                                      +                444      ",
"                                     +@X   2          4244      ",
"                                *     X             42244       ",
"  ,    X               X  o                       ,22244  o:    ",
"             *           o,o *              $     22222  o,o *  ",
"                          o                     4242224   o     ",
"     *               *                 :       4244424          ",
"                                      4      44244422           ",
"          +                                 422444:2            ",
"                       o                 44222224::      @      ",
"        X      *            44442444444442222224::             *",
"  $                      42::::::::::22::2222242:4$         X   ",
" $*$              $    4:::::::::::2222222224422           X#X  ",
"  $                   4::::::2444 4444224424442           X#<#X ",
"                      :::::22         422224424            X#X  ",
"                    4:::::2              44424              X   ",
"                    :::::   22333332  + 44424<o  24   o         ",
"       +          .4::::   43OOOOOOO32 34424 o                  ",
"                   2:::2  4OOOOOOOOOO3344242                    ",
"           o       ::::  4OOOOOOOOOOO34424:2               o    ",
"                  4:::4 2OOOOOOOOOOOO442  :2         .          ",
"             .    4:::  2OOOOOOOOOOO4442  :2 .               .  ",
"      .           4:::  4OOOOOOOOOO4442O2 :2          .         ",
"                  42:2  3OOOOOOOO>4442OO2 224   o               ",
" o                4222  3OOOOOOO14422OOO2 2:4                   ",
"                  4222  3OOOOOO>442OOOOO2 ::4               o   ",
"             o    4222  3OOOOO3442OOOOO3  ::               o,o  ",
"         X        4222  2OOOO3442OOOOOO3  ::   o            o   ",
"     X  X#X       422:   3OOO442OOOOOOO2 :::         X          ",
"       X#<#X      44:2   234442OOOOOOO2  :::                    ",
"        X#X       42:44  34442OOOOOOO2  :::             +       ",
"  o      X        22:22 444423OOOO332  ::::       o    +@+      ",
" o,o  +          4:22:244442  2222    ::::  #    o,o  +@;@+     ",
"  o         o   42:422444442.     o :::::      .  o    +@+  o   ",
"        +       4::224:4442222:::::::::4  #             +       ",
"    .          4::2244:422422:::::::::              .           ",
"   .*.   2     4:2244:44       444 .*.             .*.          ",
"    .   :     4::244:44             .               .       X   ",
"         o   4::242:2      %                X            o      ",
"        o,o 4:2:22:4                                    o,o     ",
"         o 42:22224                                      o      ",
"    .      2222224   *                                          ",
"   .+.    2222224        2 &                                    ",
"  .+=+.  422222         :                                       ",
" .+=;=+.422224                                                  ",
"  .+=+. 2222   2  $                       %               %     ",
"   .4. 4224      %-$                                            ",
" *  . 4444        %                  *               *          ",
"      44                 +     X                                ",
"                        X@+   X#X                               ",
"             X           X   X#<#X                              ",
"     o  X   X,X   $           X#X       X            o  X       ",
"  * o,o      X   $*$           X  *                 o,o       % ",
"     o            $                  o               o          ",
"          *                               *               *     ",
"                                                                "
};
