/* XPM */
static char *f59d42b67c9949279c2a21475a87ba9fSOJxbb8tkW9Cn8x3[] = {
/* columns rows colors chars-per-pixel */
"64 64 23 1 ",
"  c #120418",
". c #260E23",
"X c #221325",
"o c #35193A",
"O c #222233",
"+ c #4D1326",
"@ c #661A2C",
"# c #002D51",
"$ c #532244",
"% c #572956",
"& c #65305A",
"* c #76356E",
"= c #BD2130",
"- c #923E77",
"; c #FF767B",
": c #5D5F92",
"> c #5079C3",
", c #CF4F8B",
"< c #009ADE",
"1 c #6293EB",
"2 c #BDC9E1",
"3 c #FFFDFE",
"4 c white",
/* pixels */
"                                                      o         ",
"                                          *                     ",
"                                    &                        X  ",
"            +                                               X#X ",
"         X +=+                                           X X#<#X",
"            +        %                       $       %      X#X ",
"               .                            $-%     :        X  ",
"          *               *                  %           44     ",
"                                      +                4444     ",
"                                     +@X              4::4      ",
"                                *     X              ::::       ",
"  ,    X               X  o                  4    ,4:::24 o     ",
"             *           o,o *              2     ::::24 o,o *  ",
"                          o                     4:::244   o     ",
"     *               *                         222:242          ",
"                                              2222222           ",
"          +                                 42222242            ",
"                       o                 44422222224     @      ",
"        X      *            44422244444444242224424            *",
"  $                      4::::::222244422222224424$ :       X   ",
" $*$              $     :::::::::::::22222222442   2       X#X  ",
"  $                   4:::::::22444424222224:424          X#<#X ",
"                      ::::::2        442222:422            X#X  ",
"                     :::::2             4::422              X   ",
"                    :::::   22333332  + :::22<o:      o         ",
"       +          .4::::   43OOOOOOO32 ::422 o                  ",
"                   2:::2  4OOOOOOOOOO3344242                    ",
"           o       ::::  4OOOOOOOOOOOO442422               o    ",
"                  4:::4 2OOOOOOOOOOOO442  22   4     .          ",
"             .    4:::  2OOOOOOOOOOO4424  :2 .               .  ",
"      .           4:::  4OOOOOOOOO>4:24O2 224         .         ",
"                  4:::  3OOOOOOOO1::44OO2 224   o               ",
" o                2::2  3OOOOOOO44:44OOO2 2:4                   ",
"                  2::2  3OOOOOO14:21OOOO2 ::4               o   ",
"             o    2::2  3OOOOO34:21OOOO3  ::               o,o  ",
"         X        2224  2OOOO34421OOOOO3  ::   o            o   ",
"     X  X#X       2222   3OO3442OOOOOOO2 :::         X          ",
"       X#<#X      222:   234442OOOOOOO2  :::                    ",
"        X#X       222:4  44442OOOOOOO2  :::             +       ",
"  o      X        22:24 444223OOOO332  ::::       o    +@+      ",
" o,o  +          42222244422  2222    ::::  #    o,o  +@;@+     ",
"  o         o   42:222444:42.     o :::::      .  o    +@+  o   ",
"        +       2:2:2444:4222::::::::::2  #             +       ",
"    .          422:2444222::22::::::::              .           ",
"   .*.         22:244424       444 .*.             .*.          ",
"    .         222244224             .               .       X   ",
"         2   22224422      %                X            o      ",
"        o,o 42244424            :                       o,o     ",
"         o 42444424             2                        o      ",
"    .     4244422    *                                          ",
"   .+.    2442224          &                                    ",
"  .+=+.  444224                                                 ",
" .+:;=+.442224      :                                           ",
"  4+=+. 2222      $:4                     %               %     ",
"   .+.44224      %-$                                            ",
" *  . 444         %                  *               *          ",
"      44                 +     X                                ",
"                        X@+   X#X                               ",
"             X           X   X#<#X                              ",
"     o  2   X,X   $           X#X       X            o  X       ",
"  * o,o      X   $*$           X  *                 o,o       % ",
"     o            $                  o               o          ",
"          *                               *               *     ",
"                                                                "
};
