/* XPM */
static char *_474be99b1504721ad5d704d96c54decbCEa0Lq4NXMCc47J[] = {
/* columns rows colors chars-per-pixel */
"64 64 22 1 ",
"  c #120418",
". c #260E23",
"X c #221325",
"o c #35193A",
"O c #222233",
"+ c #4D1326",
"@ c #661A2C",
"# c #002D51",
"$ c #532244",
"% c #572956",
"& c #65305A",
"* c #76356E",
"= c #BD2130",
"- c #923E77",
"; c #FF767B",
": c #5D5F92",
"> c #5079C3",
", c #CF4F8B",
"< c #009ADE",
"1 c #BDC9E1",
"2 c #FFFDFE",
"3 c white",
/* pixels */
"                                                      o         ",
"                                          *                     ",
"                                    &                        X  ",
"            +                                               X#X ",
"         X +=+                                           X X#<#X",
"            +        %                       $       %      1#X ",
"               .                            $-%            : X  ",
"          *               *                  %          33*     ",
"                                      +                333      ",
"                                     +@X             31113      ",
"                                *     X             31133       ",
"  ,    X               X  o                       ,11133  o     ",
"             *           o,o *              $    311131  o,o *  ",
"                          o                     111331    o     ",
"     *               *                        3111331*          ",
"                                      1      31113311           ",
"          +                          3     311113311  :         ",
"                       o                 331::13311      @      ",
"        X      *            331133333333311::13311             *",
"  $                      3::::::::::1111111:13311 $         X   ",
" $*$              $    3::::::::::::1111:::13311           X#X  ",
"  $                   1::::::11333333::111133:1           X#<#X ",
"                      ::::::1        331:113313            X#X  ",
"                    3:::::1              33313   1          X   ",
"                    1::::   11222221  + 33313<o   :   o         ",
"       +          .3::::   32OOOOOOO21 23311 o                  ",
"                   1:::1  3OOOOOOOOOO2233111                    ",
"           o       ::::  3OOOOOOOOOOOO3313:1               o    ",
"                  31::3 1OOOOOOOOOOOO331  :1         .          ",
"             .    3:::  1OOOOOOOOOOO3311  :1 .               .  ",
"      .           3:::  3OOOOOOOOOO3311O1 11          .         ",
"                  1::1  2OOOOOOOOO3311OO1 113   o               ",
" o                1::3  2OOOOOOOO331OOOO1 1:3                   ",
"                  1:13  2OOOOOOO311OOOOO1 1:3               o   ",
"             o    1113  2OOOOOO331>OOOO2  ::               o,o  ",
"         X        1111  1OOOO2333OOOOOO2  ::   o            o   ",
"     X  X#X       111:   2OOO333OOOOOOO1 :::         X          ",
"       X#<#X      1111   122333OOOOOOO1  :::                    ",
"        X#X       11113   3331OOOOOOO1  :::             +       ",
"  o      X        11313  33312OOOO221  ::::       o    +@+      ",
" o,o  +          311111 3331  1111    ::::  #    o,o  +@;@+     ",
"  o         o    11111333311.     o :::::      .  o    +@+  o   ",
"        +       3111133311111::::::::::3  #             +       ",
"    .           111333331111111:::::::              .           ",
"   .*.         311333311       333 .*.             .*.          ",
"    .         311333313  1          .               .       X   ",
"         o   311333113     %                X            o      ",
"        o,o  1133311                                    o,o     ",
"        3o  1113311                                      o      ",
"    .  :   3113313   *                                          ",
"   .+.    3113313          &                                    ",
"  .+=+.   1:1133                                                ",
" .+=;=+. 1:113   :                                              ",
"  .+=+. 3:113     3                       %               %     ",
"   .+. 3:11      %-$                                            ",
" *  . 3333        %                  *               *          ",
"   1  33                 +     X                                ",
"  3        1            X@+   X#X                               ",
"             X           X   X#<#X                              ",
"     o  X   X,X   $           X#X       X            o  X       ",
"  * o,o      X   $*$           X  *                 o,o       % ",
"     o            $                  o               o          ",
"          *                               *               *     ",
"                                                                "
};
