/* XPM */
static char *_10746c86e8b4f0dbf70fbbbc1929f58zB6LnCoP2PUKOjvz[] = {
/* columns rows colors chars-per-pixel */
"64 64 22 1 ",
"  c #160C1E",
". c #260E23",
"X c #221325",
"o c #35193A",
"O c #222233",
"+ c #4D1326",
"@ c #661A2C",
"# c #002D51",
"$ c #532244",
"% c #572956",
"& c #65305A",
"* c #76356E",
"= c #BD2130",
"- c #923E77",
"; c #FF767B",
": c #5D5F92",
"> c #CF4F8B",
", c #009ADE",
"< c #6293EB",
"1 c #BDC9E1",
"2 c #FFFDFE",
"3 c white",
/* pixels */
"                                                      o         ",
"                                          *                     ",
"                                    &                        X  ",
"            +                                               X#X ",
"         X +=+                                           X X#,#X",
"            +        %                       $       %      X#X ",
"               .                            $-%              X  ",
"          *               *                  %  1:      33*     ",
"                                      +               3333      ",
"                                     +@X             3111   1   ",
"                                *     X             11113       ",
"  >    X               X  o                       311113  o     ",
"             *           o>o *              $    311113  o>o *  ",
"                          o             1       111311    o     ",
"     *               *                 3      3111311*          ",
"                                             31133113           ",
"          +                                331133313            ",
"                       o                 3311113331   3  @      ",
"        X      *            3333333333333111133331             *",
"  $                      3:::::111111111111133333 $         X   ",
" $*$              $    3:::::::::::::::133333331           X#X  ",
"  $                   3:::::::13333311111113331           X#,#X ",
"                      ::::::1        331113333             X#X  ",
"                     :::::1              3333o              X   ",
"                    :::::   11222221  + 33313,o       o         ",
"       +          .3::::   32OOOOOOO21 33313 o                  ",
"                   1:::1  3OOOOOOOOOO2331131                    ",
"           o       ::::  3OOOOOOOOOOO2311311   3           o    ",
"                  3:::3 1OOOOOOOOOOO2311  :1  1      .          ",
"             .    3:::  1OOOOOOOOOOO3313  :1 .               .  ",
"      .           3:::  3OOOOOOOOOO331OO1 1:          .         ",
"                  3::1  2OOOOOOOOO331OOO1 1:3   o               ",
" o                3::1  2OOOOOOOO331OOOO1 1:3                   ",
"                  31:1  2OOOOOOO331OOOOO1 ::3               o   ",
"             o    31:1  2OOOOOO331<OOOO2  ::               o>o  ",
"         X        3:11  1OOOO2311OOOOOO2  ::   o            o   ",
"     X  X#X       3:11   2OOO331OOOOOOO1 :::         X          ",
"       X#,#X      311:   122331OOOOOOO1  :::                    ",
"        X#X       31113   3331OOOOOOO1  :::             +       ",
"  o      X   1    31111  3:112OOOO221  ::::       o    +@+      ",
" o>o  +           11111 ::11  1111    ::::  #    o>o  +@;@+     ",
"  o         o    331111::113.     o :::::      .  o    +@+  o   ",
"        +       331:113::1331::::::::::3  #             +       ",
"    .           311113::11111111::::::              .           ",
"   .*.         311113311       333 .*.             .*.          ",
"    .      :   11113311    3        .               .       X   ",
"         o 3  :1133311     %                X            o      ",
"        o>o  :113331                                    o>o     ",
"         o  :113331                                      o      ",
"    .      1113311   1                                          ",
"   .+.     :13331   :      &                                    ",
"  .+=+.   ::1331                                                ",
" .+=;=+. 1:1313                                                 ",
"  .+=+. 3:131     $                       %               %     ",
"   .+.  1133     %-$                                            ",
" *  .  313        %                  *               *          ",
"      333                +     X                                ",
"      33                X@+   X#X                               ",
"   :         X           X   X#,#X                              ",
"     o  X   X>X   $           X#X       X            o  X       ",
"  * 3>o      X   $*$           X  *                 o>o       % ",
"   1 o            $                  o               o          ",
"          *                               *               *     ",
"                                                                "
};
