/* XPM */
static char *fd379f69167a4cd9a98fe53e4e5f49bf4pEZ1wFYli1KC5WN[] = {
/* columns rows colors chars-per-pixel */
"64 64 29 1 ",
"  c #120418",
". c #260E23",
"X c #221325",
"o c #35193A",
"O c #2E282A",
"+ c #4D1326",
"@ c #661A2C",
"# c #002D51",
"$ c #532244",
"% c #572956",
"& c #65305A",
"* c #76356E",
"= c #5C5252",
"- c #4C536C",
"; c #BD2130",
": c #C43838",
"> c #FF7F00",
", c #923E77",
"< c #837172",
"1 c #FF767B",
"2 c #FFB500",
"3 c #0079AB",
"4 c #CF4F8B",
"5 c #009ADE",
"6 c #00CDE1",
"7 c #30ECF2",
"8 c #A6948F",
"9 c #D4C7B9",
"0 c #D6F6F5",
/* pixels */
"                                                      o         ",
"                                          *                     ",
"                                    &                        X  ",
"            +                                               X#X ",
"         X +;+                                           X X#5#X",
"            +        %                       $       %      X#X ",
"               .                            $,%              X  ",
"          *               *   -              %            *     ",
"                           -  -  -    +                         ",
"                         -       - - +@X                        ",
"                         --   --* -   X                         ",
"  4    X               X  - - ---                 4    X  o     ",
"             *           o4o-*-22-          $            o4o *  ",
"                          o   -22-- -                     o     ",
"     *               *    - --222--                  *          ",
"                            --22>--                             ",
"          +                -222>>>2-                            ",
"                       o  --22>>>>>--                    @      ",
"        X      *          --2>>>>>>--          *               *",
"  $                       -->>>>>>>--             $         X   ",
" $*$              $       -->>>>>>>--                      X#X  ",
"  $                       -->>>>>>>--                     X#5#X ",
"                         @-->>>:>>>--                      X#X  ",
"                       OOOO->>>::>>-OOOO     o              X   ",
"                       OOOO->>::::>-OOOO    o5o       o         ",
"       +          .    OOOO->:::::>-OOOO     o                  ",
"                    $  OO<<<OOOOOOO<<<OO                        ",
"           o       $4$ OO<<<OOOOOOO<<<OO                   o    ",
"                    $  OO<<<OOOOOOO<<<OO             .          ",
"             .  OOOOOOOOO===OOOOOOO===OOOOOOOOO              .  ",
"      .         OOOOOOOOO===OOOOOOO===OOOOOOOOO       .         ",
"                OOOOOOOOO===OOOOOOO===OOOOOOOOO o               ",
" o           OOOOOOO<<<OOOOO=======OOOOO888OOOOOOO              ",
"             OOOOOOO<<<OOOOO=======OOOOO888OOOOOOO          o   ",
"             OOOOOOO<<<OOOOO=======OOOOO888OOOOOOO         o4o  ",
"         X OOOOO<<<<=====OOO===<<<<OOO<<<<<8888OOOOO        o   ",
"     X  X#XOOOOO<<<<=====OOO===<<<<OOO<<<<<8888OOOOO X          ",
"       X#5#OOOOO<<<<=====OOO===<<<<OOO<<<<<8888OOOOO            ",
"        OOO<<<<<<<<<<<<=====OOOOOOO<<<<<888<<<<<<<88OOO +       ",
"  o     OOO<<<<<<<<<<<<=====OOOOOOO<<<<<888<<<<<<<88OOO+@+      ",
" o4o  + OOO<<<<<<<<<<<<=====OOOOOOO<<<<<888<<<<<<<88OOO@1@+     ",
"  o     OOO<<<<<<<<<<<<=====OOOOOOO<<<<<888<<<<<<<88OOO+@+  o   ",
"        OOO<<<<<<<<<<<<=====OOOOOOO<<<<<888<<<<<<<88OOO +       ",
"    .   OOO<<<<<<<<<<<<=====OOOOOOO<<<<<888<<<<<<<88OOO         ",
"   .*.  OOO88<<<<<<<<<<<<===OOOOOOO<<<88<<<888888899OOO         ",
"    .   OOO88<<<<<<<<<<<<===OOOOOOO<<<88<<<888888899OOO     X   ",
"        OOO88<<<<<<<<<<<<===OOOOOOO<<<88<<<888888890OOO  o      ",
"        OOO888888888888<<===OOOOOOO<<<99999999999900OOO o4o     ",
"        OOO888888888888<<===OOOOOOO<<<99999999999000OOO  o      ",
"    .   OOO888888888888<<===OOOOOOO<<<99999999990000OOO         ",
"   .+.  OOOOOOOOOOOOOOOOO===OOOOOOO<<<OOOOOOOOOOOOOOOOO         ",
"  .+;+. OOOOOOOOOOOOOOOOO===OOOOOOO<<<OOOOOOOOOOOOOOOOO         ",
" .+;1;+.OOOOOOOOOOOOOOOOO===OOOOOOO<<<OOOOOOOOOOOOOOOOO         ",
"  .+;+. OOO==OOO  $    OOOOO3333333OOOOO  %    OOO==OOO   %     ",
"   .+.  OOO==OOO %,$   OOOOO3333333OOOOO       OOO==OOO         ",
" *  .      OO     %      OOO3333667OOO            OO *          ",
"           OO            OOO3366667OOO            OO            ",
"           OO           XOOO3666777OOO            OO            ",
"             X           OOO3666700OOO                          ",
"     o  X   X4X   $      OOO6667000OOO  X            o  X       ",
"  * o4o      X   $*$     OOO6777000OOO              o4o       % ",
"     o            $      OOO7770000OOO               o          ",
"          *                 OOOOOOO       *               *     ",
"                            OOOOOOO                             "
};
