/* XPM */
static char *_57eb710f4604a4fdbe42ae438e3da44HNEtZvOUYwchhXUP[] = {
/* columns rows colors chars-per-pixel */
"64 64 30 1 ",
"  c #120418",
". c #0C1730",
"X c #260E23",
"o c #221325",
"O c #35193A",
"+ c #2E282A",
"@ c #4D1326",
"# c #661A2C",
"$ c #002D51",
"% c #532244",
"& c #572956",
"* c #65305A",
"= c #76356E",
"- c #5C5252",
"; c #4C536C",
": c #BD2130",
"> c #C43838",
", c #FF7F00",
"< c #923E77",
"1 c #837172",
"2 c #FF767B",
"3 c #FFB500",
"4 c #0079AB",
"5 c #CF4F8B",
"6 c #009ADE",
"7 c #00CDE1",
"8 c #30ECF2",
"9 c #A6948F",
"0 c #D4C7B9",
"q c #D6F6F5",
/* pixels */
"                                                      O         ",
"                                          =                     ",
"                                    *                        o  ",
"            @                                               o$o ",
"         o @:@               +++++++                     o o$6$o",
"            @        &       +++++++         %       &      o$o ",
"               X             +++++++        %<&              o  ",
"          =               +++qqq8888+++      &            =     ",
"                          +++qqqq888+++                         ",
"                          +++qqq8888+++o                        ",
"                          +++qq88877+++                         ",
"  5    o    ++         o  +++q888777+++           5++  o  O     ",
"            ++           O+++8877744+++     %      ++    O5O =  ",
"            ++            +++8874444+++            ++     O     ",
"     =   +++--+++    =  +++++8444444+++++       +++--+++        ",
"         +++--+++       +++++4444444+++++       +++--+++        ",
"         +++++++++++++++++111+++++++---+++++++++++++++++        ",
"         +++++++++++++++++111+++++++---+++++++++++++++++ #      ",
"        o+++++++++++++++++111+++++++---+++++++++++++++++       =",
"  %      +++qqqq0000000000111+++++++---11999999999999+++    o   ",
" %=%     +++qqq00000000000111+++++++---11999999999999+++   o$o  ",
"  %      +++qqq00000000000111+++++++---11999999999999+++  o$6$o ",
"         +++0q099999911199111+++++++---11111111111199+++   o$o  ",
"         +++00999999911199111+++++++---11111111111199+++    o   ",
"         +++00999999911199111+++++++---11111111111199+++        ",
"       @ +++99111111199911111+++++++-----111111111111+++        ",
"         +++99111111199911111+++++++-----111111111111+++        ",
"         +++99111111199911111+++++++-----111111111111+++   O    ",
"         +++99111111199911111+++++++-----111111111111+++        ",
"         +++99111111199911111+++++++-----111111111111+++     X  ",
"      X  +++99111111199911111+++++++-----111111111111+++        ",
"            +++++999911111+++1111---+++-----1111+++++           ",
" O          +++++999911111+++1111---+++-----1111+++++           ",
"            +++++999911111+++1111---+++-----1111+++++       O   ",
"             O+++++++999+++++-------+++++111+++++++        O5O  ",
"         o    +++++++999+++++-------+++++111+++++++         O   ",
"     o  o$o   +++++++999+++++-------+++++111+++++++  o          ",
"       o$6$o     +++++++++---+++++++---+++++++++                ",
"        o$o      +++++++++---+++++++---+++++++++        @       ",
"  O      o       +++++++++---+++++++---+++++++++  O    @#@      ",
" O5O  @                 ++111+++++++111++   $    O5O  @#2#@     ",
"  O         O    .      ++111+++++++111++      X  O    @#@  O   ",
"        @               ++111+++++++111++ $             @       ",
"    X             $     ++++;,,>>>,,;++++           X           ",
"   X=X                  +++;;,,,>>,,;;+++          X=X          ",
"    X                 $ +++;;,,,>>,,;;+++           X       o   ",
"         O                 ;;,,,,>,,;;      o            O      ",
"        O5O                ;;,,,,>,,;;                  O5O     ",
"         O                 ;;,,,,,,,;;                   O      ",
"    X                =     ;;,,,,,,3;;                          ",
"   X@X                     ;;,,,,,33;;                          ",
"  X@:@X                    ;;3,,,,33;;                          ",
" X@:2:@X                    ;33,,333;                           ",
"  X@:@X   &       %        ; ;33,33;      &               &     ",
"   X@X           &<%         ;;333;;                            ",
" =  X             &            ;;;  ;;               =          ",
"                         @ ; ; ;;;                              ",
"                        o#@;  o$o  ;                            ",
"             o           o ; o$6;o ;  ;                         ",
"     O  o   o5o   %         ; o;;       o            O  o       ",
"  = O5O      o   %=%           ;  ;                 O5O       & ",
"     O            %          ;     ;;O               O          ",
"          =                 ;             =               =     ",
"                                ;                               "
};
