/* XPM */
static char *aecdd4dcb5594722dea143f3f6cfbe09AAM1kqRnHprde3Cr[] = {
/* columns rows colors chars-per-pixel */
"64 64 30 1 ",
"  c #120418",
". c #0C1730",
"X c #260E23",
"o c #221325",
"O c #35193A",
"+ c #2E282A",
"@ c #4D1326",
"# c #661A2C",
"$ c #002D51",
"% c #532244",
"& c #572956",
"* c #65305A",
"= c #76356E",
"- c #5C5252",
"; c #4C536C",
": c #BD2130",
"> c #C43838",
", c #FF7F00",
"< c #923E77",
"1 c #837172",
"2 c #FF767B",
"3 c #FFB500",
"4 c #0079AB",
"5 c #CF4F8B",
"6 c #009ADE",
"7 c #00CDE1",
"8 c #30ECF2",
"9 c #A6948F",
"0 c #D4C7B9",
"q c #D6F6F5",
/* pixels */
"                                                      O         ",
"                                          =                     ",
"                                    *                        o  ",
"            @               +++++++                         o$o ",
"         o @:@              +++++++                      o o$6$o",
"            @        &      +++++++          %       &      o$o ",
"               X         +++qqqq888+++      %<&              o  ",
"          =              +++qqqq888+++       &            =     ",
"                         +++qqq8888+++@                         ",
"                         +++qqq8877+++#o                        ",
"           ++            +++8888777+++o           ++            ",
"  5    o   ++          o +++8887774+++            ++   o  O     ",
"           ++=           +++8877744+++      %     ++     O5O =  ",
"        +++--+++       +++++8444444+++++       +++--+++   O     ",
"     =  +++--+++     = +++++4444444+++++       +++--+++         ",
"        +++++++++++++++++111+++++++---+++++++++++++++++         ",
"        +++++++++++++++++111+++++++---+++++++++++++++++         ",
"        +++++++++++++++++111+++++++---+++++++++++++++++  #      ",
"        +++qqq00000000000111+++++++---11999999999999+++        =",
"  %     +++qq000000000000111+++++++---11999999999999+++     o   ",
" %=%    +++qq000000000000111+++++++---11999999999999+++    o$o  ",
"  %     +++00999999911199111+++++++---11111111111199+++   o$6$o ",
"        +++00999999911199111+++++++---11111111111199+++    o$o  ",
"        +++00999999911199111+++++++---11111111111199+++     o   ",
"        +++99111111199911111+++++++-----111111111111+++         ",
"       @+++99111111199911111+++++++-----111111111111+++         ",
"        +++99111111199911111+++++++-----111111111111+++         ",
"        +++99111111199911111+++++++-----111111111111+++    O    ",
"        +++99111111199911111+++++++-----111111111111+++         ",
"        +++99111111199911111+++++++-----111111111111+++      X  ",
"      X    +++++999911111+++1111---+++-----1111+++++  X         ",
"           +++++999911111+++1111---+++-----1111+++++            ",
" O         +++++999911111+++1111---+++-----1111+++++            ",
"             +++++++999+++++-------+++++111+++++++          O   ",
"             +++++++999+++++-------+++++111+++++++         O5O  ",
"         o   +++++++999+++++-------+++++111+++++++          O   ",
"     o  o$o     +++++++++---+++++++---+++++++++      o          ",
"       o$6$o    +++++++++---+++++++---+++++++++                 ",
"        o$o     +++++++++---+++++++---+++++++++         @       ",
"  O      o             ++111+++++++111++          O    @#@      ",
" O5O  @                ++111+++++++111++    $    O5O  @#2#@     ",
"  O         O    .     ++111+++++++111++       X  O    @#@  O   ",
"        @              ++++;,>>>>>,;++++  $             @       ",
"    X             $    ++++;,,>>>,,;++++            X           ",
"   X=X                 +++;;,,>>>,,;;+++           X=X          ",
"    X                 $   ;;,,>>>,,;;               X       o   ",
"         O                ;;,,,>,,,;;       o            O      ",
"        O5O               ;;,,,,,,,;;                   O5O     ",
"         O                ;;3,,,,,,;                     O      ",
"    X                =    ;;33,,,3;;                            ",
"   X@X                    ;;33,,33;                             ",
"  X@:@X                    ;333,,3;                             ",
" X@:2:@X                    ;;333;;                             ",
"  X@:@X   &       %         ;;333;; ;     &               &     ",
"   X@X           &<%      ; ;;33;   ;                           ",
" =  X             &      ;;  ;33; ;  =               =          ",
"                         ;    ;;   ;                            ",
"                        o#@ ; ;;o;                              ",
"             o           o; ;o;;$;                              ",
"     O  o   o5o   %         ; o$o ;     o            O  o       ",
"  = O5O      o   %=%          ;o  =                 O5O       & ",
"     O            %                  O               O          ",
"          =                               =               =     ",
"                                                                "
};
