/* XPM */
static char *ddb69dacd3ce4a019d2a82ccad7eab306Pm31KL8u9Mv47db[] = {
/* columns rows colors chars-per-pixel */
"64 64 30 1 ",
"  c #120418",
". c #0C1730",
"X c #260E23",
"o c #221325",
"O c #35193A",
"+ c #2E282A",
"@ c #4D1326",
"# c #661A2C",
"$ c #002D51",
"% c #532244",
"& c #572956",
"* c #65305A",
"= c #76356E",
"- c #5C5252",
"; c #4C536C",
": c #BD2130",
"> c #C43838",
", c #FF7F00",
"< c #923E77",
"1 c #837172",
"2 c #FF767B",
"3 c #FFB500",
"4 c #0079AB",
"5 c #CF4F8B",
"6 c #009ADE",
"7 c #00CDE1",
"8 c #30ECF2",
"9 c #A6948F",
"0 c #D4C7B9",
"q c #D6F6F5",
/* pixels */
"                                                      O         ",
"                                          =                     ",
"                            +++++++ *                        o  ",
"            @               +++++++                         o$o ",
"         o @:@              +++++++                      o o$6$o",
"            @        &   +++qqq8888+++       %       &      o$o ",
"               X         +++qqqq888+++      %<&              o  ",
"          =              +++qqq8888+++       &            =     ",
"                         +++qq88877+++@                         ",
"           ++            +++q888777+++#o          ++            ",
"           ++            +++8877744+++o           ++            ",
"  5    o   ++          o +++8874444+++            ++   o  O     ",
"        +++--+++       +++++8444444+++++    %  +++--+++  O5O =  ",
"        +++--+++       +++++4444444+++++       +++--+++   O     ",
"     =  +++++++++++++++++111+++++++---+++++++++++++++++         ",
"        +++++++++++++++++111+++++++---+++++++++++++++++         ",
"        +++++++++++++++++111+++++++---+++++++++++++++++         ",
"        +++qqqq0000000000111+++++++---11999999999999+++  #      ",
"        +++qqq00000000000111+++++++---11999999999999+++        =",
"  %     +++qqq00000000000111+++++++---11999999999999+++     o   ",
" %=%    +++0q099999911199111+++++++---11111111111199+++    o$o  ",
"  %     +++00999999911199111+++++++---11111111111199+++   o$6$o ",
"        +++00999999911199111+++++++---11111111111199+++    o$o  ",
"        +++99111111199911111+++++++-----111111111111+++     o   ",
"        +++99111111199911111+++++++-----111111111111+++         ",
"       @+++99111111199911111+++++++-----111111111111+++         ",
"        +++99111111199911111+++++++-----111111111111+++         ",
"        +++99111111199911111+++++++-----111111111111+++    O    ",
"        +++99111111199911111+++++++-----111111111111+++         ",
"           +++++999911111+++1111---+++-----1111+++++         X  ",
"      X    +++++999911111+++1111---+++-----1111+++++  X         ",
"           +++++999911111+++1111---+++-----1111+++++            ",
" O           +++++++999+++++-------+++++111+++++++              ",
"             +++++++999+++++-------+++++111+++++++          O   ",
"             +++++++999+++++-------+++++111+++++++         O5O  ",
"         o      +++++++++---+++++++---+++++++++O            O   ",
"     o  o$o     +++++++++---+++++++---+++++++++      o          ",
"       o$6$o    +++++++++---+++++++---+++++++++                 ",
"        o$o            ++111+++++++111++                @       ",
"  O      o             ++111+++++++111++          O    @#@      ",
" O5O  @                ++111+++++++111++    $    O5O  @#2#@     ",
"  O         O    .     ++++;,,>>>,,;++++       X  O    @#@  O   ",
"        @              +++;;,,,>>,,;;+++  $             @       ",
"    X             $    +++;;,,,>>,,;;+++            X           ",
"   X=X                    ;;,,,,>,,;;X             X=X          ",
"    X                 $   ;;,,,,>,,;;               X       o   ",
"         O                ;;,,,,,,,;;       o            O      ",
"        O5O               ;;,,,,,,3;;                   O5O     ",
"         O                ;;,,,,,33;;                    O      ",
"    X                =    ;;3,,,,33;;                           ",
"   X@X                     ;33,,333;                            ",
"  X@:@X                   ; ;33,33;                             ",
" X@:2:@X                    ;;333;;                             ",
"  X@:@X   &       %           ;;;  ;;     &               &     ",
"   X@X           &<%      ; ; ;;;                               ",
" =  X             &       ;       ;  =               =          ",
"                         @;    ;  ;  ;                          ",
"                        o#@;  ;;o                               ",
"             o           o   o;6$;                              ",
"     O  o   o5o   %         ; o$o ;;    o            O  o       ",
"  = O5O      o   %=%       ;   o  =                 O5O       & ",
"     O            %            ;     O               O          ",
"          =                               =               =     ",
"                                                                "
};
