/* XPM */
static char *_2b30ad1960e4402c058ba2abb71a5d4E5uZ3JKnoLdRguj2[] = {
/* columns rows colors chars-per-pixel */
"64 64 30 1 ",
"  c #160C1E",
". c #0C1730",
"X c #260E23",
"o c #221325",
"O c #35193A",
"+ c #2E282A",
"@ c #4D1326",
"# c #661A2C",
"$ c #002D51",
"% c #532244",
"& c #572956",
"* c #65305A",
"= c #76356E",
"- c #5C5252",
"; c #4C536C",
": c #BD2130",
"> c #C43838",
", c #FF7F00",
"< c #923E77",
"1 c #837172",
"2 c #FF767B",
"3 c #FFB500",
"4 c #0079AB",
"5 c #CF4F8B",
"6 c #009ADE",
"7 c #00CDE1",
"8 c #30ECF2",
"9 c #A6948F",
"0 c #D4C7B9",
"q c #D6F6F5",
/* pixels */
"                                                                ",
"        =  X           O       O           %                    ",
"   =      X@X         O5O                 %=%       5           ",
"         X@:@X     X   O                   %                    ",
"   O    X@:2:@X   X=X                                           ",
"  O5O    X@:@X     X       o                     =              ",
"   O      X@X          @         X                              ",
"           X              o           @             o           ",
"    o           O    @   o$o      +++++++++++++++++             ",
"               O5O      o$6$o     +++++++++++++++++        o    ",
" =        &     O        o$o      +++++++++++++++++     =       ",
"                          o    +++999999000qqq+++--+++     @    ",
"    o                 O        +++99999900000q+++--+++    @:@   ",
"   o5o                      ++++++111111999000+++++=       @    ",
"    o                       ++++++111111999000+++++             ",
"                            ++++++111111999000+++++      X      ",
"                         ++++++999111111999000+++               ",
"   %     &            .  ++++++999111111999000+++               ",
"  %=%   &<%         $    ++++++999111111999000+++               ",
"   %     %               ++++++999111111999000+++               ",
"                         +++999111999999111000+++               ",
"              =          +++999111999999111000+++=        &     ",
"                  $      +++999111999999111000+++               ",
"                   ++++++++++++111111111999000+++++ o           ",
"      o            ++++++++++++111111111999000+++++             ",
"     o#@;;         +++111---++++++111111111111111+++++++++      ",
"      @  ;;  ;;;;;;;++111---++++++111111111111111+++++++++      ",
"      ;     ;;;;;;;;;;111---++++++111111111111111+++++++++      ",
"       ;  ;;333,,,,,,,++++++---111+++++++++++++++4888qqqqq+++   ",
"     o    ;;33,,,,,,,,++++++---111+++++++++++++++44888qqqq+++   ",
"    ;;o ;;333,,,,,,>>>++++++---111+++++++++++++++44788qqqq+++   ",
"   o$6$o;;33,,,,,>>>>>++++++---111+++++++++++++++44778888q+++   ",
"    o$o   ;;333,,,,,>>++++++------+++++++++++++++447778888+++   ",
"     o ;;   ;;;33,,,,,++++++------+++++++++++++++444778888+++   ",
"   =;   ;;;  ;;33,,,,,++++++------+++++++++++++++444477888+++   ",
"               ;;;;;;;111---++++++---------------+++++++++      ",
"        ;       ;;;;++111---++++++---------------+++++++++   *  ",
"  O     =  ;;      +++111---++++++---------------+++++++++      ",
"                   ++++++++++++---------111111+++++  o#@        ",
"                   ++++++++++++---------111111+++++   o         ",
"    o                    +++111---111111111999+++               ",
"                         +++111---111111111999+++               ",
" =        &          $   +++111---111111111999+++             = ",
"                         ++++++111111111111999+++               ",
"                 o     $ ++++++111111111111999+++  %     %      ",
"                         ++++++111111111111999+++       &<%     ",
"                         ++++++111111111111999+++        &      ",
"                      X     ++++++111111111999+++++             ",
"                            ++++++111111111999+++++             ",
"                       O    ++++++111111111999+++++             ",
"                      O5O      +++111111999999+++--+++          ",
"                   X   O       +++111111999999+++--+++          ",
"   O              X=X             +++++++++++++++++             ",
"  O5O   =          X       o      +++++++++++++++++       &     ",
"   O                   @         X+++++++++++++++++            O",
"                      @#@                           o           ",
"    o           O    @#2#@                                      ",
"               O5O    @#@                     #    O       o    ",
" =        &     O      @                  o       O5O   =       ",
"                             O      O    o$o       O       o    ",
"                  o   O     O5O         o$6$o             o$o   ",
"                             O    X      o$o       =     o$6$o  ",
"   &                                      o               o$o   ",
"                                             =             o    "
};
