/* XPM */
static char *_d20f7357b6246efaf6125ef423ae81fe0LhRCL3Nt6IwHZC[] = {
/* columns rows colors chars-per-pixel */
"64 64 29 1 ",
"  c #160C1E",
". c #260E23",
"X c #221325",
"o c #35193A",
"O c #2E282A",
"+ c #4D1326",
"@ c #661A2C",
"# c #002D51",
"$ c #532244",
"% c #572956",
"& c #65305A",
"* c #76356E",
"= c #5C5252",
"- c #4C536C",
"; c #BD2130",
": c #C43838",
"> c #FF7F00",
", c #923E77",
"< c #837172",
"1 c #FF767B",
"2 c #FFB500",
"3 c #0079AB",
"4 c #CF4F8B",
"5 c #009ADE",
"6 c #00CDE1",
"7 c #30ECF2",
"8 c #A6948F",
"9 c #D4C7B9",
"0 c #D6F6F5",
/* pixels */
"                                                      o         ",
"                                          *                     ",
"                                    &                        X  ",
"            +                                               X#X ",
"         X +;+                                           X X#5#X",
"            +        %                       $       %      X#X ",
"               .           OOOOOOO          $,%              X  ",
"          *               *OOOOOOO           %            *     ",
"                           OOOOOOO    +                         ",
"                        OOO0000777OOO+@X                        ",
"                        OOO0007776OOO X                         ",
"  4    X               XOOO0007666OOO             4    X  o     ",
"             *          OOO0076663OOO       $            o4o *  ",
"          OO            OOO7776663OOO            OO       o     ",
"     *    OO         *  OOO7666633OOO            OO  *          ",
"          OO            OOO7663333OOO            OO             ",
"       OOO==OOO       OOOOO3333333OOOOO       OOO==OOO          ",
"       OOO==OOO       OOOOO3333333OOOOO       OOO==OOO   @      ",
"       OOOOOOOOOOOOOOOOO<<<OOOOOOO===OOOOOOOOOOOOOOOOO         *",
"  $    OOOOOOOOOOOOOOOOO<<<OOOOOOO===OOOOOOOOOOOOOOOOO      X   ",
" $*$   OOOOOOOOOOOOOOOOO<<<OOOOOOO===OOOOOOOOOOOOOOOOO     X#X  ",
"  $    OOO00009999999999<<<OOOOOOO===<<888888888888OOO    X#5#X ",
"       OOO00099999999999<<<OOOOOOO===<<888888888888OOO     X#X  ",
"       OOO00999999999999<<<OOOOOOO===<<888888888888OOO      X   ",
"       OOO098888888<<<88<<<OOOOOOO===<<<<<<<<<<<<88OOOo         ",
"       OOO998888888<<<88<<<OOOOOOO===<<<<<<<<<<<<88OOO          ",
"       OOO998888888<<<88<<<OOOOOOO===<<<<<<<<<<<<88OOO          ",
"       OOO88<<<<<<<888<<<<<OOOOOOO=====<<<<<<<<<<<<OOO     o    ",
"       OOO88<<<<<<<888<<<<<OOOOOOO=====<<<<<<<<<<<<OOO          ",
"       OOO88<<<<<<<888<<<<<OOOOOOO=====<<<<<<<<<<<<OOO       .  ",
"      .OOO88<<<<<<<888<<<<<OOOOOOO=====<<<<<<<<<<<<OOO.         ",
"       OOO88<<<<<<<888<<<<<OOOOOOO=====<<<<<<<<<<<<OOO          ",
" o     OOO88<<<<<<<888<<<<<OOOOOOO=====<<<<<<<<<<<<OOO          ",
"          OOOOO8888<<<<<OOO<<<<===OOO=====<<<<OOOOO         o   ",
"          OOOOO8888<<<<<OOO<<<<===OOO=====<<<<OOOOO        o4o  ",
"         XOOOOO8888<<<<<OOO<<<<===OOO=====<<<<OOOOO         o   ",
"     X  X#X OOOOOOO888OOOOO=======OOOOO<<<OOOOOOO    X          ",
"       X#5#XOOOOOOO888OOOOO=======OOOOO<<<OOOOOOO               ",
"        X#X OOOOOOO888OOOOO=======OOOOO<<<OOOOOOO       +       ",
"  o      X     OOOOOOOOO===OOOOOOO===OOOOOOOOO    o    +@+      ",
" o4o  +        OOOOOOOOO===OOOOOOO===OOOOOOOOO   o4o  +@1@+     ",
"  o         o  OOOOOOOOO===OOOOOOO===OOOOOOOOO .  o    +@+  o   ",
"        +             OO<<<OOOOOOO<<<OO   #             +       ",
"    .             #   OO<<<OOOOOOO<<<OO             .           ",
"   .*.                OO<<<OOOOOOO<<<OO            .*.          ",
"    .                 OOOO->:::::>-OOOO             .       X   ",
"         o            OOOO->::::>>-OOOO     X            o      ",
"        o4o           OOOO->>::>>>-OOOO                 o4o     ",
"         o               -->>>:>>>--                     o      ",
"    .                *   -->>>>>>>--                            ",
"   .+.                   -->>>>>>>--                            ",
"  .+;+.                  -->>>>>>>--                            ",
" .+;1;+.                 -->>>>>>2--                            ",
"  .+;+.   %       $      -->>>>>22--      %               %     ",
"   .+.           %,$      -2>>>222-                             ",
" *  .             %        -->22--   *               *          ",
"                         + --222-- -                            ",
"                        X-+--22-X                               ",
"             X           X  -22-#-                              ",
"     o  X   X4X   $          ---X- -    X            o  X       ",
"  * o4o      X   $*$       -  --  *--               o4o       % ",
"     o            $       - -       -o               o          ",
"          *                 -  -  -       *               *     ",
"                               -                                "
};
