/* XPM */
static char *e35d39b92d1b485cb8c46c613d4e9815FVuG7GP8Q49yESan[] = {
/* columns rows colors chars-per-pixel */
"64 64 29 1 ",
"  c #120418",
". c #260E23",
"X c #221325",
"o c #35193A",
"O c #2E282A",
"+ c #4D1326",
"@ c #661A2C",
"# c #002D51",
"$ c #532244",
"% c #572956",
"& c #65305A",
"* c #76356E",
"= c #5C5252",
"- c #4C536C",
"; c #BD2130",
": c #C43838",
"> c #FF7F00",
", c #923E77",
"< c #837172",
"1 c #FF767B",
"2 c #FFB500",
"3 c #0079AB",
"4 c #CF4F8B",
"5 c #009ADE",
"6 c #00CDE1",
"7 c #30ECF2",
"8 c #A6948F",
"9 c #D4C7B9",
"0 c #D6F6F5",
/* pixels */
"                                                      o         ",
"                                          *                     ",
"                                    &                        X  ",
"            +                 -                             X#X ",
"         X +;+            -     -                        X X#5#X",
"            +        %     - -- - -          $       %      X#X ",
"               .           - -- -           $,%              X  ",
"          *              -*  --    -         %            *     ",
"                          - -22-  --  +                         ",
"                        -   -22-- -  +@X                        ",
"                        - --222--     X                         ",
"  4    X               X  --222--                 4    X  o     ",
"             *           o-2>>222-          $            o4o *  ",
"                          -22>>22--                       o     ",
"     *               *   --2>>>22--                  *          ",
"                         ->>>>>>2--                             ",
"          +             -->>>>>>>--                             ",
"                       o-->>>:>>>--                      @      ",
"        X      *        -->>:::>>--            *               *",
"  $                  OOO-->>:::>>--OOO            $         X   ",
" $*$              $  OOOO->>:::>>-OOOO                     X#X  ",
"  $                  OOOO->:::::>-OOOO                    X#5#X ",
"                     OO<<<OOOOOOO<<<OO                     X#X  ",
"                     OO<<<OOOOOOO<<<OO       o              X   ",
"                     OO<<<OOOOOOO<<<OO+     o5o       o         ",
"       +      OOOOOOOOO===OOOOOOO===OOOOOOOOOo                  ",
"              OOOOOOOOO===OOOOOOO===OOOOOOOOO                   ",
"           o  OOOOOOOOO===OOOOOOO===OOOOOOOOO              o    ",
"           OOOOOOO<<<OOOOO=======OOOOO888OOOOOOO     .          ",
"           OOOOOOO<<<OOOOO=======OOOOO888OOOOOOO             .  ",
"      .    OOOOOOO<<<OOOOO=======OOOOO888OOOOOOO      .         ",
"         OOOOO<<<<=====OOO===<<<<OOO<<<<<8888OOOOO              ",
" o       OOOOO<<<<=====OOO===<<<<OOO<<<<<8888OOOOO              ",
"         OOOOO<<<<=====OOO===<<<<OOO<<<<<8888OOOOO          o   ",
"      OOO<<<<<<<<<<<<=====OOOOOOO<<<<<888<<<<<<<88OOO      o4o  ",
"      OOO<<<<<<<<<<<<=====OOOOOOO<<<<<888<<<<<<<88OOO       o   ",
"     XOOO<<<<<<<<<<<<=====OOOOOOO<<<<<888<<<<<<<88OOOX          ",
"      OOO<<<<<<<<<<<<=====OOOOOOO<<<<<888<<<<<<<88OOO           ",
"      OOO<<<<<<<<<<<<=====OOOOOOO<<<<<888<<<<<<<88OOO   +       ",
"  o   OOO<<<<<<<<<<<<=====OOOOOOO<<<<<888<<<<<<<88OOO  +@+      ",
" o4o  OOO88<<<<<<<<<<<<===OOOOOOO<<<88<<<888888899OOO +@1@+     ",
"  o   OOO88<<<<<<<<<<<<===OOOOOOO<<<88<<<888888899OOO  +@+  o   ",
"      OOO88<<<<<<<<<<<<===OOOOOOO<<<88<<<888888899OOO   +       ",
"    . OOO888888888888<<===OOOOOOO<<<99999999999900OOO           ",
"   .*.OOO888888888888<<===OOOOOOO<<<99999999999900OOO.          ",
"    . OOO888888888888<<===OOOOOOO<<<99999999999000OOO       X   ",
"      OOOOOOOOOOOOOOOOO===OOOOOOO<<<OOOOOOOOOOOOOOOOO    o      ",
"      OOOOOOOOOOOOOOOOO===OOOOOOO<<<OOOOOOOOOOOOOOOOO   o4o     ",
"      OOOOOOOOOOOOOOOOO===OOOOOOO<<<OOOOOOOOOOOOOOOOO    o      ",
"    . OOO==OOO       OOOOO3333333OOOOO       OOO==OOO           ",
"   .+.OOO==OOO       OOOOO3333337OOOOO       OOO==OOO           ",
"  .+;+.  OO            OOO3366677OOO            OO              ",
" .+;1;+. OO            OOO3666777OOO            OO              ",
"  .+;+.  OO       $    OOO6667777OOO      %     OO        %     ",
"   .+.           %,$   OOO6677000OOO                            ",
" *  .             %    OOO7777000OOO *               *          ",
"                       OOO7770000OOO                            ",
"                       OOO7770000OOO                            ",
"             X           XOOOOOOOX                              ",
"     o  X   X4X   $       OOOOOOO       X            o  X       ",
"  * o4o      X   $*$      OOOOOOO *                 o4o       % ",
"     o            $                  o               o          ",
"          *                               *               *     ",
"                                                                "
};
