/* XPM */
static char *_4ff5c0b8da6461ae648309978abd59b0P8vhMe9lxjkdzSS[] = {
/* columns rows colors chars-per-pixel */
"64 64 30 1 ",
"  c #160C1E",
". c #0C1730",
"X c #260E23",
"o c #221325",
"O c #35193A",
"+ c #2E282A",
"@ c #4D1326",
"# c #661A2C",
"$ c #002D51",
"% c #532244",
"& c #572956",
"* c #65305A",
"= c #76356E",
"- c #5C5252",
"; c #4C536C",
": c #BD2130",
"> c #C43838",
", c #FF7F00",
"< c #923E77",
"1 c #837172",
"2 c #FF767B",
"3 c #FFB500",
"4 c #0079AB",
"5 c #CF4F8B",
"6 c #009ADE",
"7 c #00CDE1",
"8 c #30ECF2",
"9 c #A6948F",
"0 c #D4C7B9",
"q c #D6F6F5",
/* pixels */
"                                                                ",
"     =               =                               =          ",
"          O               O     ;            %            O     ",
" &       O5O                 =  o   ;       %=%   o      O5O =  ",
"       o  O            o    ;; o$o ;         %   o5o   o  O     ",
"                              ;$6;o   o           o             ",
"                               o;;  ;@#o                        ",
"                          ;  ;  ;    ;@                         ",
"          =               =  ;       ;       &             X  = ",
"                               ;;; ; ;      %<&           X@X   ",
"     &               &     ;;  ;;;           %       &   X@:@X  ",
"                             ;;333;;                    X@:2:@X ",
"                             ;33,33; ;                   X@:@X  ",
"                            ;333,,33;                     X@X   ",
"                           ;;33,,,,3;;    =                X    ",
"      O                    ;;33,,,,,;;                O         ",
"     O5O                   ;;3,,,,,,;;               O5O        ",
"      O            o       ;;,,,,,,,;;                O         ",
"   o       X               ;;,,>,,,,;;   $                 X    ",
"          X=X             X;;,,>,,,,;;                    X=X   ",
"           X            +++;;,,>>,,,;;+++    $             X    ",
"       @             $  +++;;,,>>,,,;;+++              @        ",
"   O  @#@    O  X       ++++;,,>>>,,;++++     .    O         O  ",
"     @#2#@  O5O    $    ++111+++++++111++                @  O5O ",
"      @#@    O          ++111+++++++111++             o      O  ",
"       @                ++111+++++++111++            o$o        ",
"                 +++++++++---+++++++---+++++++++    o$6$o       ",
"          o      +++++++++---+++++++---+++++++++     o$o  o     ",
"   O            O+++++++++---+++++++---+++++++++      o         ",
"  O5O         +++++++111+++++-------+++++999+++++++             ",
"   O          +++++++111+++++-------+++++999+++++++             ",
"              +++++++111+++++-------+++++999+++++++           O ",
"            +++++1111-----+++---1111+++111119999+++++           ",
"         X  +++++1111-----+++---1111+++111119999+++++    X      ",
"  X         +++++1111-----+++---1111+++111119999+++++           ",
"         +++111111111111-----+++++++11111999111111199+++        ",
"    O    +++111111111111-----+++++++11111999111111199+++        ",
"         +++111111111111-----+++++++11111999111111199+++        ",
"         +++111111111111-----+++++++11111999111111199+++@       ",
"         +++111111111111-----+++++++11111999111111199+++        ",
"   o     +++111111111111-----+++++++11111999111111199+++        ",
"  o$o    +++99111111111111---+++++++11199111999999900+++        ",
" o$6$o   +++99111111111111---+++++++11199111999999900+++     %  ",
"  o$o    +++99111111111111---+++++++111991119999990q0+++    %=% ",
"   o     +++99999999999911---+++++++11100000000000qqq+++     %  ",
"=        +++99999999999911---+++++++11100000000000qqq+++        ",
"      #  +++99999999999911---+++++++1110000000000qqqq+++        ",
"         +++++++++++++++++---+++++++111+++++++++++++++++        ",
"         +++++++++++++++++---+++++++111+++++++++++++++++        ",
"         +++++++++++++++++---+++++++111+++++++++++++++++  =     ",
"     O   +++--+++       +++++4444444+++++       +++--+++        ",
"  = O5O  +++--+++  %    +++++4444448+++++       +++--+++        ",
"     O  o   ++            +++4444788+++ o          ++   o    5  ",
"            ++           o+++4477788+++            ++           ",
"            ++          o#+++777888q+++            ++           ",
"                         @+++77888qq+++                         ",
"     =            &       +++8888qqq+++              =          ",
"  o              &<%      +++888qqqq+++         X               ",
" o$o      &       %       +++8888qqq+++   &        @            ",
"o$6$o o                      +++++++              @:@ o         ",
" o$o                         +++++++               @            ",
"  o                        * +++++++                            ",
"                     =                                          ",
"         O                                                      "
};
