/* XPM */
static char *ad4fd67485344eb9e40497b09d536312Nkd9G4yBDATydhDS[] = {
/* columns rows colors chars-per-pixel */
"64 64 30 1 ",
"  c #160C1E",
". c #0C1730",
"X c #260E23",
"o c #221325",
"O c #35193A",
"+ c #2E282A",
"@ c #4D1326",
"# c #661A2C",
"$ c #002D51",
"% c #532244",
"& c #572956",
"* c #65305A",
"= c #76356E",
"- c #5C5252",
"; c #4C536C",
": c #BD2130",
"> c #C43838",
", c #FF7F00",
"< c #923E77",
"1 c #837172",
"2 c #FF767B",
"3 c #FFB500",
"4 c #0079AB",
"5 c #CF4F8B",
"6 c #009ADE",
"7 c #00CDE1",
"8 c #30ECF2",
"9 c #A6948F",
"0 c #D4C7B9",
"q c #D6F6F5",
/* pixels */
"    o             =                                             ",
"   o$o               o                                      &   ",
"  o$6$o     =       o$o      X    O                             ",
"   o$o             o$6$o         O5O     O   o                  ",
"    o       O       o$o    O      O                             ",
"       =   O5O       o                  @      O     &        = ",
"    o       O    #                     @#@    O5O               ",
"                                      @#2#@    O           o    ",
"           o                           @#@                      ",
"O            +++++++++++++++++X         @                   O   ",
"     &       +++++++++++++++++      o       X          =   O5O  ",
"             +++++++++++++++++             X=X              O   ",
"          +++--+++999999111111+++       O   X                   ",
"          +++--+++999999111111+++      O5O                      ",
"             +++++999111111111++++++    O                       ",
"             +++++999111111111++++++                            ",
"             +++++999111111111++++++     X                      ",
"      &        +++999111111111111++++++                         ",
"     %<&       +++999111111111111++++++                         ",
"      %     %  +++999111111111111++++++ $     o                 ",
"               +++999111111111111++++++                         ",
" =             +++999111111111---111+++   $          &        = ",
"               +++999111111111---111+++                         ",
"               +++999111111111---111+++                    o    ",
"         o   +++++111111---------++++++++++++                   ",
"        @#o  +++++111111---------++++++++++++                   ",
"      +++++++++---------------++++++---111+++          =     O  ",
"  *   +++++++++---------------++++++---111++;;;;     ;;         ",
"      +++++++++---------------++++++---111;;;;;;;;      ;       ",
"   +++888774444+++++++++++++++------++++++,,,,,,,;;;;; ;   ;=   ",
"   +++888777444+++++++++++++++------++++++>,,,,,,333;;   ;;     ",
"   +++888877744+++++++++++++++------++++++>>>>,,,,3,33;; o$o    ",
"   +++qq8887744+++++++++++++++111---++++++>>>>>,,,,,3333;;;$o   ",
"   +++qqqq88744+++++++++++++++111---++++++>>>>,,,,,33333;;;o;   ",
"   +++qqqq88844+++++++++++++++111---++++++>,,,,,,333;;;;  o     ",
"   +++qqqq88884+++++++++++++++111---++++++,,,,,,3333;;;  ;;;    ",
"      +++++++++111111111111111++++++---111;;;;;;;;;;            ",
"      +++++++++111111111111111++++++---111++;;;;;;;   ;; @;     ",
"      +++++++++111111111111111++++++---111+++          ;;#o     ",
"             +++++000999111111111++++++++++++            o      ",
"           o +++++000999111111111++++++++++++                   ",
"               +++000111999999111999+++      $                  ",
"     &        =+++000111999999111999+++          =              ",
"               +++000111999999111999+++                         ",
"               +++000999111111999++++++               %     %   ",
"               +++000999111111999++++++    $         %<&   %=%  ",
"               +++000999111111999++++++  .            &     %   ",
"               +++000999111111999++++++                         ",
"      X      +++++000999111111++++++                            ",
"             +++++000999111111++++++                       o    ",
"    @       =+++++q00999111111++++++                      o5o   ",
"   @:@    +++--+++qqq000999999+++        O                 o    ",
"    @     +++--+++qqq000999999+++    o                          ",
"       =     +++++++++++++++++      o$o        O     &        = ",
"    o        +++++++++++++++++     o$6$o      O5O               ",
"             +++++++++++++++++      o$o   @    O           o    ",
"           o             @           o              X           ",
"                              X         @          X@X      O   ",
"              =                     o       X     X@:@X    O5O  ",
"                                           X=X   X@:2:@X    O   ",
"                    %                   O   X     X@:@X         ",
"           5       %=%                 O5O         X@X      =   ",
"                    %           O       O           X  =        ",
"                                                                "
};
