/* XPM */
static char *_ccdf7ce6eb9442b8789f5da0ab64b82Sp8P9gNuZDsMQJKQ[] = {
/* columns rows colors chars-per-pixel */
"64 64 30 1 ",
"  c #120418",
". c #0C1730",
"X c #260E23",
"o c #221325",
"O c #35193A",
"+ c #2E282A",
"@ c #4D1326",
"# c #661A2C",
"$ c #002D51",
"% c #532244",
"& c #572956",
"* c #65305A",
"= c #76356E",
"- c #5C5252",
"; c #4C536C",
": c #BD2130",
"> c #C43838",
", c #FF7F00",
"< c #923E77",
"1 c #837172",
"2 c #FF767B",
"3 c #FFB500",
"4 c #0079AB",
"5 c #CF4F8B",
"6 c #009ADE",
"7 c #00CDE1",
"8 c #30ECF2",
"9 c #A6948F",
"0 c #D4C7B9",
"q c #D6F6F5",
/* pixels */
"                                                      O         ",
"                                          =                     ",
"                                    *                        o  ",
"            @                                               o$o ",
"         o @:@                                           o o$6$o",
"            @        &                       %       &      o$o ",
"               X                            %<&              o  ",
"          =               =                  &            =     ",
"                               +++++++++++++++++                ",
"                               +++++++++++++++++                ",
"                               +++++++++++++++++                ",
"  5    o               o  O +++999999000qqq+++--+++    o  O     ",
"             =           O5O+++999999000qqq+++--+++      O5O =  ",
"                         ++++++11111199900q+++++          O     ",
"     =               =   ++++++111111999000+++++     =          ",
"                         ++++++111111999000+++++                ",
"          @           ++++++999111111999000+++                  ",
"                      ++++++999111111999000+++           #      ",
"        o      =      ++++++999111111999000+++ =               =",
"  %                   ++++++999111111999000+++    %         o   ",
" %=%              %   +++999111999999111000+++             o$o  ",
"  %                   +++999111999999111000+++            o$6$o ",
"                      +++999111999999111000+++             o$o  ",
"                ++++++++++++111111111999000+++++            o   ",
"                ++++++++++++111111111999000+++++      O         ",
"    ;; @        +++111---++++++111111111111111+++++++++         ",
"  ;  ;;   ;;;;;;;++111---++++++111111111111111+++++++++         ",
"         ;;;;;;;;;;111---++++++111111111111111+++++++++    O    ",
" ;;;  ;;;3333,,,,,,++++++---111+++++++++++++++48888qqqq+++      ",
"     ;;;;333,,,,,,>++++++---111+++++++++++++++44888qqqq+++   X  ",
"; ;;;33333,,,,,>>>>++++++---111+++++++++++++++44788qqqq+++      ",
"  ;;;3333,,,,,>>>>>++++++---111+++++++++++++++4477888qq+++      ",
" O   ;;33,3,,,,>>>>++++++------+++++++++++++++447778888+++      ",
"  ;;   ;;333,,,,,,>++++++------+++++++++++++++444777888+++  O   ",
" ;   ; ;;;;;,,,,,,,++++++------+++++++++++++++444477888+++ O5O  ",
"    ;    o ;;;;;;;;111---++++++---------------+++++++++     O   ",
"     o;;o$o  ;;;;++111---++++++---------------+++++++++         ",
"       o$6$o    +++111---++++++---------------+++++++++         ",
"        o$o     ++++++++++++---------111111+++++        @       ",
"  O      o      ++++++++++++---------111111+++++  O    @#@      ",
" O5O  @               +++111---111111111999+++   O5O  @#2#@     ",
"  O         O    .    +++111---111111111999+++ X  O    @#@  O   ",
"        @             +++111---111111111999+++          @       ",
"    X             $   ++++++111111111111999+++      X           ",
"   X=X                ++++++111111111111999+++     X=X          ",
"    X                 ++++++111111111111999+++      X       o   ",
"         O            ++++++111111111111999+++           O      ",
"        O5O              ++++++111111111999+++++        O5O     ",
"         O               ++++++111111111999+++++         O      ",
"    X                =   ++++++111111111999+++++                ",
"   X@X                     *+++111111999999+++--+++             ",
"  X@:@X                     +++111111999999+++--+++             ",
" X@:2:@X                       +++++++++++++++++                ",
"  X@:@X   &       %            +++++++++++++++++          &     ",
"   X@X           &<%           +++++++++++++++++                ",
" =  X             &                  =               =          ",
"                         @     o                                ",
"                        o#@   o$o                               ",
"             o           o   o$6$o                              ",
"     O  o   o5o   %           o$o       o            O  o       ",
"  = O5O      o   %=%           o  =                 O5O       & ",
"     O            %                  O               O          ",
"          =                               =               =     ",
"                                                                "
};
