/* XPM */
static char *e2ceb383a8284ba0fde297d7086aeb66X3fRo17Z58YUCeBu[] = {
/* columns rows colors chars-per-pixel */
"64 64 29 1 ",
"  c #120418",
". c #260E23",
"X c #221325",
"o c #35193A",
"O c #2E282A",
"+ c #4D1326",
"@ c #661A2C",
"# c #002D51",
"$ c #532244",
"% c #572956",
"& c #65305A",
"* c #76356E",
"= c #5C5252",
"- c #4C536C",
"; c #BD2130",
": c #C43838",
"> c #FF7F00",
", c #923E77",
"< c #837172",
"1 c #FF767B",
"2 c #FFB500",
"3 c #0079AB",
"4 c #CF4F8B",
"5 c #009ADE",
"6 c #00CDE1",
"7 c #30ECF2",
"8 c #A6948F",
"9 c #D4C7B9",
"0 c #D6F6F5",
/* pixels */
"                                                      o         ",
"                                          *                     ",
"                                    &                        X  ",
"            +                                               X#X ",
"         X +;+                                           X X#5#X",
"            +        %                       $       %      X#X ",
"               .                            $,%              X  ",
"          *               *                  %            *     ",
"                                      +                         ",
"                                     +@X                        ",
"                                *     X                         ",
"  4    X     OOOOOOOOOOOOOOOOO                    4    X  o     ",
"             OOOOOOOOOOOOOOOOO              $            o4o *  ",
"             OOOOOOOOOOOOOOOOO                            o     ",
"     *    OOO==OOO888888<<<<<<OOO                    *          ",
"          OOO==OOO888888<<<<<<OOO                               ",
"          +  OOOOO888<<<<<<<<<OOOOOO                            ",
"             OOOOO888<<<<<<<<<OOOOOO                     @      ",
"        X    OOOOO888<<<<<<<<<OOOOOO           *               *",
"  $            OOO888<<<<<<<<<<<<OOOOOO           $         X   ",
" $*$           OOO888<<<<<<<<<<<<OOOOOO                    X#X  ",
"  $            OOO888<<<<<<<<<<<<OOOOOO                   X#5#X ",
"               OOO888<<<<<<<<<<<<OOOOOO                    X#X  ",
"               OOO888<<<<<<<<<===<<<OOO      o              X   ",
"               OOO888<<<<<<<<<===<<<OOO     o5o       o         ",
"       +       OOO888<<<<<<<<<===<<<OOO      o                  ",
"             OOOOO<<<<<<=========OOOOOOOOOOOO                   ",
"           o OOOOO<<<<<<=========OOOOOOOOOOOO              o    ",
"      OOOOOOOOO===============OOOOOO===<<<OOO        .   -      ",
"      OOOOOOOOO===============OOOOOO===<<<O--------   -      .  ",
"      OOOOOOOOO===============OOOOOO===<<<----------  -     -   ",
"   OOO777663333OOOOOOOOOOOOOOO======OOOOOO>>>>>>2222--  --  -   ",
" o OOO777663333OOOOOOOOOOOOOOO======OOOOOO>>>>>>>2222-     -    ",
"   OOO777766333OOOOOOOOOOOOOOO======OOOOOO:::::>>>>222--    o   ",
"   OOO707776333OOOOOOOOOOOOOOO<<<===OOOOOO:::>>>>>>>>2-- --o4o- ",
"   OOO000776633OOOOOOOOOOOOOOO<<<===OOOOOO:>>>>>>>>>22--  --o   ",
"   OOO000077733OOOOOOOOOOOOOOO<<<===OOOOOO>>>>>>>>>22-          ",
"   OOO000007773OOOOOOOOOOOOOOO<<<===OOOOOO>>>>>>>>22-- -    -   ",
"      OOOOOOOOO<<<<<<<<<<<<<<<OOOOOO===<<<----------    + -  -  ",
"  o   OOOOOOOOO<<<<<<<<<<<<<<<OOOOOO===<<<O-------- -  ---      ",
" o4o  OOOOOOOOO<<<<<<<<<<<<<<<OOOOOO===<<<OOO    o4o  +@1@+     ",
"  o         oOOOOO999888<<<<<<<<<OOOOOOOOOOOO  .  o    +@+  o   ",
"        +    OOOOO999888<<<<<<<<<OOOOOOOOOOOO           +       ",
"    .          OOO999<<<888888<<<888OOO             .           ",
"   .*.         OOO999<<<888888<<<888OOO            .*.          ",
"    .          OOO999<<<888888<<<888OOO             .       X   ",
"         o     OOO999888<<<<<<888OOOOOO     X            o      ",
"        o4o    OOO999888<<<<<<888OOOOOO                 o4o     ",
"         o     OOO999888<<<<<<888OOOOOO                  o      ",
"    .          OOO999888<<<<<<888OOOOOO                         ",
"   .+.       OOOOO999888<<<<<<OOOOOO                            ",
"  .+;+.      OOOOO099888<<<<<<OOOOOO                            ",
" .+;1;+.     OOOOO000988<<<<<<OOOOOO                            ",
"  .+;+.   OOO==OOO000099888888OOO         %               %     ",
"   .+.    OOO==OOO000999888888OOO                               ",
" *  .        OOOOOOOOOOOOOOOOO       *               *          ",
"             OOOOOOOOOOOOOOOOO X                                ",
"             OOOOOOOOOOOOOOOOOX#X                               ",
"             X           X   X#5#X                              ",
"     o  X   X4X   $           X#X       X            o  X       ",
"  * o4o      X   $*$           X  *                 o4o       % ",
"     o            $                  o               o          ",
"          *                               *               *     ",
"                                                                "
};
