/* XPM */
static char *d00b98b278f040e9e4065e0e62d4e764SGnQ3abiilE6H3i6[] = {
/* columns rows colors chars-per-pixel */
"64 64 29 1 ",
"  c #120418",
". c #260E23",
"X c #221325",
"o c #35193A",
"O c #2E282A",
"+ c #4D1326",
"@ c #661A2C",
"# c #002D51",
"$ c #532244",
"% c #572956",
"& c #65305A",
"* c #76356E",
"= c #5C5252",
"- c #4C536C",
"; c #BD2130",
": c #C43838",
"> c #FF7F00",
", c #923E77",
"< c #837172",
"1 c #FF767B",
"2 c #FFB500",
"3 c #0079AB",
"4 c #CF4F8B",
"5 c #009ADE",
"6 c #00CDE1",
"7 c #30ECF2",
"8 c #A6948F",
"9 c #D4C7B9",
"0 c #D6F6F5",
/* pixels */
"                                                      o         ",
"                                          *                     ",
"                                    &                        X  ",
"            +                                               X#X ",
"         X +;+                   -                       X X#5#X",
"            +        %               -       $       %      X#X ",
"               .             --     -       $,%              X  ",
"          *               *    -  -          %            *     ",
"                                 --  -+                         ",
"                           -  -  -   +-X                        ",
"                              - *     -                         ",
"  4    X               X  o     --- - -           4    X  o     ",
"             *           o4o--  ---         $            o4o *  ",
"                          o   --222--                     o     ",
"     *               *        -22>22- -              *          ",
"                             -222>>22-                          ",
"          +                 --22>>>>2--                         ",
"                       o    --22>>>>>--                  @      ",
"        X      *            --2>>>>>>--        *               *",
"  $                         -->>>>>>>--           $         X   ",
" $*$              $         -->>:>>>>--                    X#X  ",
"  $                         -->>:>>>>--                   X#5#X ",
"                         OOO-->>::>>>--OOO                 X#X  ",
"                         OOO-->>::>>>--OOO   o              X   ",
"                         OOOO->>:::>>-OOOO  o5o       o         ",
"       +          .      OO<<<OOOOOOO<<<OO   o                  ",
"                    $    OO<<<OOOOOOO<<<OO                      ",
"           o       $4$   OO<<<OOOOOOO<<<OO                 o    ",
"                  OOOOOOOOO===OOOOOOO===OOOOOOOOO    .          ",
"             .    OOOOOOOOO===OOOOOOO===OOOOOOOOO            .  ",
"      .           OOOOOOOOO===OOOOOOO===OOOOOOOOO     .         ",
"               OOOOOOO<<<OOOOO=======OOOOO888OOOOOOO            ",
" o             OOOOOOO<<<OOOOO=======OOOOO888OOOOOOO            ",
"               OOOOOOO<<<OOOOO=======OOOOO888OOOOOOO        o   ",
"             OOOOO<<<<=====OOO===<<<<OOO<<<<<8888OOOOO     o4o  ",
"         X   OOOOO<<<<=====OOO===<<<<OOO<<<<<8888OOOOO      o   ",
"     X  X#X  OOOOO<<<<=====OOO===<<<<OOO<<<<<8888OOOOO          ",
"       X#5OOO<<<<<<<<<<<<=====OOOOOOO<<<<<888<<<<<<<88OOO       ",
"        X#OOO<<<<<<<<<<<<=====OOOOOOO<<<<<888<<<<<<<88OOO       ",
"  o      XOOO<<<<<<<<<<<<=====OOOOOOO<<<<<888<<<<<<<88OOO+      ",
" o4o  +   OOO<<<<<<<<<<<<=====OOOOOOO<<<<<888<<<<<<<88OOO@+     ",
"  o       OOO<<<<<<<<<<<<=====OOOOOOO<<<<<888<<<<<<<88OOO+  o   ",
"        + OOO<<<<<<<<<<<<=====OOOOOOO<<<<<888<<<<<<<88OOO       ",
"    .     OOO88<<<<<<<<<<<<===OOOOOOO<<<88<<<888888899OOO       ",
"   .*.    OOO88<<<<<<<<<<<<===OOOOOOO<<<88<<<888888899OOO       ",
"    .     OOO88<<<<<<<<<<<<===OOOOOOO<<<88<<<888888909OOO   X   ",
"         oOOO888888888888<<===OOOOOOO<<<99999999999000OOOo      ",
"        o4OOO888888888888<<===OOOOOOO<<<99999999999000OOO4o     ",
"         oOOO888888888888<<===OOOOOOO<<<99999999990000OOOo      ",
"    .     OOOOOOOOOOOOOOOOO===OOOOOOO<<<OOOOOOOOOOOOOOOOO       ",
"   .+.    OOOOOOOOOOOOOOOOO===OOOOOOO<<<OOOOOOOOOOOOOOOOO       ",
"  .+;+.   OOOOOOOOOOOOOOOOO===OOOOOOO<<<OOOOOOOOOOOOOOOOO       ",
" .+;1;+.  OOO==OOO       OOOOO3333333OOOOO       OOO==OOO       ",
"  .+;+.   OOO==OOO$      OOOOO3333337OOOOO%      OOO==OOO %     ",
"   .+.       OO  %,$       OOO3333677OOO            OO          ",
" *  .        OO   %        OOO3366677OOO            OO          ",
"             OO          + OOO6667770OOO            OO          ",
"                        X@+OOO6677700OOO                        ",
"             X           X OOO7777000OOO                        ",
"     o  X   X4X   $        OOO7770000OOOX            o  X       ",
"  * o4o      X   $*$       OOO7777000OOO            o4o       % ",
"     o            $           OOOOOOOo               o          ",
"          *                   OOOOOOO     *               *     ",
"                              OOOOOOO                           "
};
