/* XPM */
static char *eec033deaf68481bc9efebaef133f10duuxZi8SOIdVRF1Nh[] = {
/* columns rows colors chars-per-pixel */
"64 64 31 1 ",
"  c #120418",
". c #0C1730",
"X c #260E23",
"o c #221325",
"O c #35193A",
"+ c #2E282A",
"@ c #4D1326",
"# c #661A2C",
"$ c #002D51",
"% c #532244",
"& c #572956",
"* c #65305A",
"= c #76356E",
"- c #005668",
"; c #5C5252",
": c #4C536C",
"> c #BD2130",
", c #C43838",
"< c #FF7F00",
"1 c #923E77",
"2 c #837172",
"3 c #FF767B",
"4 c #FFB500",
"5 c #0079AB",
"6 c #CF4F8B",
"7 c #009ADE",
"8 c #00CDE1",
"9 c #30ECF2",
"0 c #A6948F",
"q c #D4C7B9",
"w c #D6F6F5",
/* pixels */
"                                                      O         ",
"                                          =                     ",
"                                    *                        o  ",
"            @                                               o$o ",
"         o @>@                                           o o$7$o",
"            @        &                       %       &      o$o ",
"               X                            %1&              o  ",
"          =               =                  &            =     ",
"                                      @                         ",
"                                     @#o                        ",
"                                =     o                         ",
"  6    o               o  O        +++++++++++++++++   o  O     ",
"             =           O6O =     +++++++++++++++++     O6O =  ",
"                          O        +++++++++++++++++      O     ",
"     =               =          +++000000qqqwww+++;;+++         ",
"                                +++000000qqqqqw+++;;+++         ",
"          @                  ++++++222222000qqq+++++            ",
"                       O     ++++++222222000qqq+++++     #      ",
"        o      =            -++++++222222000qqq+++++           =",
"  %                       ++++++000222222000qqq+++%         o   ",
" %=%              %       ++++++000222222000qqq+++         o$o  ",
"  %                       ++++++000222222000qqq+++        o$7$o ",
"                         #++++++000222222000qqq+++         o$o  ",
"                          +++000222000000222qqq+++          o   ",
"                          +++000222000000222qqq+++    O         ",
"       @          X       +++000222000000222qqq+++              ",
"                    ++++++++++++222222222000qqq+++++            ",
"           O       %++++++++++++222222222000qqq+++++       O    ",
"         ::         +++222;;;++++++222222222222222+++++++++     ",
"          :: X:::::::++222;;;++++++222222222222222+++++++++  X  ",
"      X:     ::::::::::222;;;++++++222222222222222+++++++++     ",
"        :  ::444<<<<<<<++++++;;;222+++++++++++++++5999wwwww+++  ",
" O         ::44<<<<<<<<++++++;;;222+++++++++++++++55999wwww+++  ",
"     ::  ::444<<<<<<,,,++++++;;;222+++++++++++++++55899wwww+++  ",
"         ::44<<<<<,,,,,++++++;;;222+++++++++++++++55889999w+++  ",
"         o ::444<<<<<,,++++++;;;;;;+++++++++++++++558889999+++  ",
"     o  ::o  :::44<<<<<++++++;;;;;;+++++++++++++++555889999+++  ",
"     : o$:::  ::44<<<<<++++++;;;;;;+++++++++++++++555588999+++  ",
"        o$o     :::::::222;;;++++++;;;;;;;;;;;;;;;+++++++++     ",
"  O      :       ::::++222;;;++++++;;;;;;;;;;;;;;;+++++++++     ",
" O6O  @     ::      +++222;;;++++++;;;;;;;;;;;;;;;+++++++++     ",
"  O         O    .  ++++++++++++;;;;;;;;;222222+++++   @#@  O   ",
"        @           ++++++++++++;;;;;;;;;222222+++++    @       ",
"    X             $       +++222;;;222222222000+++  X           ",
"   X=X                    +++222;;;222222222000+++ X=X          ",
"    X                 $   +++222;;;222222222000+++  X       o   ",
"         O                ++++++222222222222000+++       O      ",
"        O6O               ++++++222222222222000+++      O6O     ",
"         O                ++++++222222222222000+++       O      ",
"    X                =    ++++++222222222222000+++              ",
"   X@X                     * ++++++222222222000+++++            ",
"  X@>@X                      ++++++222222222000+++++            ",
" X@>3>@X                     ++++++222222222000+++++            ",
"  X@>@X   &       %             +++222222000000+++;;+++   &     ",
"   X@X           &1%            +++222222000000+++;;+++         ",
" =  X             &                +++++++++++++++++ =          ",
"                         @     o   +++++++++++++++++            ",
"                        o#@   o$o  +++++++++++++++++            ",
"             o           o   o$7$o                              ",
"     O  o   o6o   %           o$o       o            O  o       ",
"  = O6O      o   %=%           o  =                 O6O       & ",
"     O            %                  O               O          ",
"          =                               =               =     ",
"                                                                "
};
