/* XPM */
static char *_3df11cedcab4a7efb112374d61938d1GJ1bv24bVJnL1kD7[] = {
/* columns rows colors chars-per-pixel */
"64 64 30 1 ",
"  c #120418",
". c #0C1730",
"X c #260E23",
"o c #221325",
"O c #35193A",
"+ c #2E282A",
"@ c #4D1326",
"# c #661A2C",
"$ c #002D51",
"% c #532244",
"& c #572956",
"* c #65305A",
"= c #76356E",
"- c #5C5252",
"; c #4C536C",
": c #BD2130",
"> c #C43838",
", c #FF7F00",
"< c #923E77",
"1 c #837172",
"2 c #FF767B",
"3 c #FFB500",
"4 c #0079AB",
"5 c #CF4F8B",
"6 c #009ADE",
"7 c #00CDE1",
"8 c #30ECF2",
"9 c #A6948F",
"0 c #D4C7B9",
"q c #D6F6F5",
/* pixels */
"                                                                ",
"     =               =                               =          ",
"          O               O    ;  ;          %            O     ",
" &       O5O                 =  o ;         %=%   o      O5O =  ",
"       o  O            o     ; o;o           %   o5o   o  O     ",
"                              o;6$o;  o           o             ",
"                               o$;  ;@#o                        ",
"                            ;  ;o;    @                         ",
"          =               =    ;             &             X  = ",
"                          ;   ;3;;  ;       %<&           X@X   ",
"     &               &    ;; ;;3;;   ;       %       &   X@:@X  ",
"                           ; ;;333;; ;                  X@:2:@X ",
"                            ;;;333;;                     X@:@X  ",
"                            ;333,333;                     X@X   ",
"                           ;;333,333;;    =                X    ",
"      O                    ;;33,,333;;                O         ",
"     O5O                   ;;3,,,,33;;               O5O        ",
"      O            o       ;;,,,,,,3;;                O         ",
"   o       X               ;;,,,,,,,;;   $                 X    ",
"          X=X             X;;,,>,,,,;;                    X=X   ",
"           X            ++++;,,>,,,,;++++    $             X    ",
"       @             $  ++++;,,>>,,,;++++              @        ",
"   O  @#@    O  X       ++++;,>>>>,,;++++     .    O         O  ",
"     @#2#@  O5O    $    ++111+++++++111++                @  O5O ",
"      @#@    O          ++111+++++++111++             o      O  ",
"       @                ++111+++++++111++            o$o        ",
"                 +++++++++---+++++++---+++++++++    o$6$o       ",
"          o      +++++++++---+++++++---+++++++++     o$o  o     ",
"   O            O+++++++++---+++++++---+++++++++      o         ",
"  O5O         +++++++111+++++-------+++++999+++++++             ",
"   O          +++++++111+++++-------+++++999+++++++             ",
"              +++++++111+++++-------+++++999+++++++           O ",
"            +++++1111-----+++---1111+++111119999+++++           ",
"         X  +++++1111-----+++---1111+++111119999+++++    X      ",
"  X         +++++1111-----+++---1111+++111119999+++++           ",
"         +++111111111111-----+++++++11111999111111199+++        ",
"    O    +++111111111111-----+++++++11111999111111199+++        ",
"         +++111111111111-----+++++++11111999111111199+++        ",
"         +++111111111111-----+++++++11111999111111199+++@       ",
"         +++111111111111-----+++++++11111999111111190+++        ",
"   o     +++111111111111-----+++++++11111999111111100+++        ",
"  o$o    +++99111111111111---+++++++1119911199999990q+++        ",
" o$6$o   +++99111111111111---+++++++111991119999990qq+++     %  ",
"  o$o    +++99111111111111---+++++++11199111999990qqq+++    %=% ",
"   o     +++99999999999911---+++++++1110000000000qqqq+++     %  ",
"=        +++99999999999911---+++++++1110000000000qqqq+++        ",
"      #  +++99999999999911---+++++++111000000000qqqqq+++        ",
"         +++++++++++++++++---+++++++111+++++++++++++++++        ",
"         +++++++++++++++++---+++++++111+++++++++++++++++        ",
"         +++++++++++++++++---+++++++111+++++++++++++++++  =     ",
"     O   +++--+++       +++++4444444+++++       +++--+++        ",
"  = O5O  +++--+++  %    +++++4444448+++++       +++--+++        ",
"     O  o   ++            +++4444478+++ o          ++   o    5  ",
"            ++           o+++4444778+++            ++           ",
"            ++          o#+++4477788+++            ++           ",
"                         @+++777788q+++                         ",
"     =            &       +++8778qqq+++              =          ",
"  o              &<%      +++888qqqq+++         X               ",
" o$o      &       %       +++88qqqqq+++   &        @            ",
"o$6$o o                      +++++++              @:@ o         ",
" o$o                         +++++++               @            ",
"  o                        * +++++++                            ",
"                     =                                          ",
"         O                                                      "
};
