/* XPM */
static char *_5b14639e43e425efad046e418fb47a8IgyA74daRSqrhqOc[] = {
/* columns rows colors chars-per-pixel */
"64 64 30 1 ",
"  c #120418",
". c #0C1730",
"X c #260E23",
"o c #221325",
"O c #35193A",
"+ c #2E282A",
"@ c #4D1326",
"# c #661A2C",
"$ c #002D51",
"% c #532244",
"& c #572956",
"* c #65305A",
"= c #76356E",
"- c #5C5252",
"; c #4C536C",
": c #BD2130",
"> c #C43838",
", c #FF7F00",
"< c #923E77",
"1 c #837172",
"2 c #FF767B",
"3 c #FFB500",
"4 c #0079AB",
"5 c #CF4F8B",
"6 c #009ADE",
"7 c #00CDE1",
"8 c #30ECF2",
"9 c #A6948F",
"0 c #D4C7B9",
"q c #D6F6F5",
/* pixels */
"                                                      O         ",
"                                          =                     ",
"                                    *                        o  ",
"            @                                               o$o ",
"         o @:@                                           o o$6$o",
"            @        &                       %       &      o$o ",
"               X                            %<&              o  ",
"          =               =                  &            =     ",
"                                      @                         ",
"                                     @#o                        ",
"                                =     o                         ",
"  5    o               o  O                       5    o  O     ",
"             =           O5O =   +++++++++++++++++       O5O =  ",
"                          O      +++++++++++++++++        O     ",
"     =               =           +++++++++++++++++   =          ",
"                              +++99999900qqqq+++--+++           ",
"          @                   +++999999000qqq+++--+++           ",
"                       O   ++++++1111119990qq+++++       #      ",
"        o      =           ++++++11111199900q+++++             =",
"  %                        ++++++111111999000+++++%         o   ",
" %=%              %     ++++++999111111999000+++           o$o  ",
"  %                     ++++++999111111999000+++          o$6$o ",
"                        ++++++999111111999000+++           o$o  ",
"                        ++++++999111111999000+++            o   ",
"                        +++999111999999111000+++      O         ",
"       @          X     +++999111999999111000+++                ",
"                    %   +++999111999999111000+++                ",
"           O      ++++++++++++111111111999000+++++         O    ",
"                  ++++++++++++111111111999000+++++   X          ",
"             X    +++111---++++++111111111111111+++++++++    X  ",
"      X ;   ;;;;;;+++111---++++++111111111111111+++++++++       ",
"    ;      ;;;;;;;;;;111---++++++111111111111111+++++++++       ",
" O   ;  ;;;3,,,,,,,,,++++++---111+++++++++++++++44888qqqq+++    ",
"   ;;  ;;;;,,,,,,,,>>++++++---111+++++++++++++++44778qqqq+++O   ",
"      ;333,,,,,,,,>>>++++++---111+++++++++++++++447788qqq+++5O  ",
"     ;;3333,,,,,,>>>>++++++---111+++++++++++++++44477788q+++O   ",
"  ;; ;;;;333,,,,,,,>>++++++------+++++++++++++++444777788+++    ",
"       o$;;33,,,,,,,>++++++------+++++++++++++++444477788+++    ",
"      ;;o;;333,,,,,,,++++++------+++++++++++++++444444778+++    ",
"  O;     o ;;;;;;;;;;111---++++++---------------+++++++++@      ",
" O5O ;;  ;  ;;;;;;+++111---++++++---------------+++++++++#@     ",
"  O ;;      O    .+++111---++++++---------------+++++++++@  O   ",
"        @         ++++++++++++---------111111+++++      @       ",
"    X             ++++++++++++---------111111+++++  X           ",
"   X=X                  +++111---111111111999+++   X=X          ",
"    X                 $ +++111---111111111999+++    X       o   ",
"         O              +++111---111111111999+++         O      ",
"        O5O             ++++++111111111111999+++        O5O     ",
"         O              ++++++111111111111999+++         O      ",
"    X                =  ++++++111111111111999+++                ",
"   X@X                  ++++++111111111111999+++                ",
"  X@:@X                    ++++++111111111999+++++              ",
" X@:2:@X                   ++++++111111111999+++++              ",
"  X@:@X   &       %        ++++++111111111999+++++        &     ",
"   X@X           &<%          +++111111999999+++--+++           ",
" =  X             &           +++111111999999+++--+++=          ",
"                         @     o +++++++++++++++++              ",
"                        o#@   o$o+++++++++++++++++              ",
"             o           o   o$6$+++++++++++++++++              ",
"     O  o   o5o   %           o$o       o            O  o       ",
"  = O5O      o   %=%           o  =                 O5O       & ",
"     O            %                  O               O          ",
"          =                               =               =     ",
"                                                                "
};
