/* XPM */
static char *_24e8b5b8c524e61e1fcaeb87f02b056jNo0UpBg1GZ9rddc[] = {
/* columns rows colors chars-per-pixel */
"64 64 29 1 ",
"  c #120418",
". c #260E23",
"X c #221325",
"o c #35193A",
"O c #2E282A",
"+ c #4D1326",
"@ c #661A2C",
"# c #002D51",
"$ c #532244",
"% c #572956",
"& c #65305A",
"* c #76356E",
"= c #5C5252",
"- c #4C536C",
"; c #BD2130",
": c #C43838",
"> c #FF7F00",
", c #923E77",
"< c #837172",
"1 c #FF767B",
"2 c #FFB500",
"3 c #0079AB",
"4 c #CF4F8B",
"5 c #009ADE",
"6 c #00CDE1",
"7 c #30ECF2",
"8 c #A6948F",
"9 c #D4C7B9",
"0 c #D6F6F5",
/* pixels */
"                                                      o         ",
"                                          *                     ",
"                                    &                        X  ",
"            +                                               X#X ",
"         X +;+                -  -                       X X#5#X",
"            +        %           -           $       %      X#X ",
"               .            -  -            $,%              X  ",
"          *               *   -   -          %            *     ",
"                                -  -  +                         ",
"                           -  - -    +@X                        ",
"                              - *     X                         ",
"  4    X               X -o  -2--  -              4    X  o     ",
"             *           --o--2--   -       $            o4o *  ",
"                          - --222-- -                     o     ",
"     *               *     ---222--                  *          ",
"                           -222>222-                            ",
"          +               --222>222--                           ",
"                       o  --22>>222--                    @      ",
"        X      *          --2>>>>22--          *               *",
"  $                       -->>>>>>2--             $         X   ",
" $*$              $       -->>>>>>>--                      X#X  ",
"  $                       -->>:>>>>--                     X#5#X ",
"                       OOOO->>:>>>>-OOOO                   X#X  ",
"                       OOOO->>::>>>-OOOO     o              X   ",
"                       OOOO->::::>>-OOOO    o5o       o         ",
"       +          .    OO<<<OOOOOOO<<<OO     o                  ",
"                    $  OO<<<OOOOOOO<<<OO                        ",
"           o       $4$ OO<<<OOOOOOO<<<OO                   o    ",
"                OOOOOOOOO===OOOOOOO===OOOOOOOOO      .          ",
"             .  OOOOOOOOO===OOOOOOO===OOOOOOOOO              .  ",
"      .         OOOOOOOOO===OOOOOOO===OOOOOOOOO       .         ",
"             OOOOOOO<<<OOOOO=======OOOOO888OOOOOOO              ",
" o           OOOOOOO<<<OOOOO=======OOOOO888OOOOOOO              ",
"             OOOOOOO<<<OOOOO=======OOOOO888OOOOOOO          o   ",
"           OOOOO<<<<=====OOO===<<<<OOO<<<<<8888OOOOO       o4o  ",
"         X OOOOO<<<<=====OOO===<<<<OOO<<<<<8888OOOOO        o   ",
"     X  X#XOOOOO<<<<=====OOO===<<<<OOO<<<<<8888OOOOO X          ",
"       XOOO<<<<<<<<<<<<=====OOOOOOO<<<<<888<<<<<<<88OOO         ",
"        OOO<<<<<<<<<<<<=====OOOOOOO<<<<<888<<<<<<<88OOO +       ",
"  o     OOO<<<<<<<<<<<<=====OOOOOOO<<<<<888<<<<<<<88OOO+@+      ",
" o4o  + OOO<<<<<<<<<<<<=====OOOOOOO<<<<<888<<<<<<<88OOO@1@+     ",
"  o     OOO<<<<<<<<<<<<=====OOOOOOO<<<<<888<<<<<<<89OOO+@+  o   ",
"        OOO<<<<<<<<<<<<=====OOOOOOO<<<<<888<<<<<<<99OOO +       ",
"    .   OOO88<<<<<<<<<<<<===OOOOOOO<<<88<<<888888890OOO         ",
"   .*.  OOO88<<<<<<<<<<<<===OOOOOOO<<<88<<<888888900OOO         ",
"    .   OOO88<<<<<<<<<<<<===OOOOOOO<<<88<<<888889000OOO     X   ",
"        OOO888888888888<<===OOOOOOO<<<99999999990000OOO  o      ",
"        OOO888888888888<<===OOOOOOO<<<99999999990000OOO o4o     ",
"        OOO888888888888<<===OOOOOOO<<<99999999900000OOO  o      ",
"    .   OOOOOOOOOOOOOOOOO===OOOOOOO<<<OOOOOOOOOOOOOOOOO         ",
"   .+.  OOOOOOOOOOOOOOOOO===OOOOOOO<<<OOOOOOOOOOOOOOOOO         ",
"  .+;+. OOOOOOOOOOOOOOOOO===OOOOOOO<<<OOOOOOOOOOOOOOOOO         ",
" .+;1;+.OOO==OOO       OOOOO3333333OOOOO       OOO==OOO         ",
"  .+;+. OOO==OOO  $    OOOOO3333337OOOOO  %    OOO==OOO   %     ",
"   .+.     OO    %,$     OOO3333367OOO            OO            ",
" *  .      OO     %      OOO3333667OOO            OO *          ",
"           OO            OOO3366677OOO            OO            ",
"                        XOOO6666770OOO                          ",
"             X           OOO7667000OOO                          ",
"     o  X   X4X   $      OOO7770000OOO  X            o  X       ",
"  * o4o      X   $*$     OOO7700000OOO              o4o       % ",
"     o            $         OOOOOOO  o               o          ",
"          *                 OOOOOOO       *               *     ",
"                            OOOOOOO                             "
};
