/* XPM */
static char *_b38f8574e6c490ea278530970bc8d8awQ62IBeGh6bp6ZBc[] = {
/* columns rows colors chars-per-pixel */
"64 64 30 1 ",
"  c #120418",
". c #0C1730",
"X c #260E23",
"o c #221325",
"O c #35193A",
"+ c #2E282A",
"@ c #4D1326",
"# c #661A2C",
"$ c #002D51",
"% c #532244",
"& c #572956",
"* c #65305A",
"= c #76356E",
"- c #5C5252",
"; c #4C536C",
": c #BD2130",
"> c #C43838",
", c #FF7F00",
"< c #923E77",
"1 c #837172",
"2 c #FF767B",
"3 c #FFB500",
"4 c #0079AB",
"5 c #CF4F8B",
"6 c #009ADE",
"7 c #00CDE1",
"8 c #30ECF2",
"9 c #A6948F",
"0 c #D4C7B9",
"q c #D6F6F5",
/* pixels */
"                                                                ",
"     =               =                               =          ",
"          O               O                  %            O     ",
" &       O5O                 =  o           %=%   o      O5O =  ",
"       o  O            o     ; o$;           %   o5o   o  O     ",
"                              o$6;o   o           o             ",
"                               o$o  ;@#o                        ",
"                              ; o  ;  @                         ",
"          =               =; ;; ;;    ;      &             X  = ",
"                             ;  ;;   ;;     %<&           X@X   ",
"     &               &       ; ;33;; ;       %       &   X@:@X  ",
"                          ;    ;33;;                    X@:2:@X ",
"                          ;   ;3,333;                    X@:@X  ",
"                             ;;3,,33;;                    X@X   ",
"                             ;;3,,,3;;    =                X    ",
"      O                     ;33,,,,,;;                O         ",
"     O5O                   ;;33,,,,,;;               O5O        ",
"      O            o       ;;,,,>,,,;;                O         ",
"   o       X               ;;,,,>,,,;;   $                 X    ",
"          X=X           +++;;,,,>>,,;;+++                 X=X   ",
"           X            ++++;,,>>>,,;++++    $             X    ",
"       @             $  ++++;,,>>>,,;++++              @        ",
"   O  @#@    O  X       ++111+++++++111++     .    O         O  ",
"     @#2#@  O5O    $    ++111+++++++111++                @  O5O ",
"      @#@    O          ++111+++++++111++             o      O  ",
"       @         +++++++++---+++++++---+++++++++     o$o        ",
"                 +++++++++---+++++++---+++++++++    o$6$o       ",
"          o      +++++++++---+++++++---+++++++++     o$o  o     ",
"   O          +++++++111+++++-------+++++999+++++++   o         ",
"  O5O         +++++++111+++++-------+++++999+++++++             ",
"   O          +++++++111+++++-------+++++999+++++++             ",
"            +++++1111-----+++---1111+++111119999+++++         O ",
"            +++++1111-----+++---1111+++111119999+++++           ",
"         X  +++++1111-----+++---1111+++111119999+++++    X      ",
"  X      +++111111111111-----+++++++11111999111111199+++        ",
"         +++111111111111-----+++++++11111999111111199+++        ",
"    O    +++111111111111-----+++++++11111999111111199+++        ",
"         +++111111111111-----+++++++11111999111111199+++        ",
"         +++111111111111-----+++++++11111999111111199+++@       ",
"         +++111111111111-----+++++++11111999111111199+++        ",
"   o     +++99111111111111---+++++++11199111999999900+++        ",
"  o$o    +++99111111111111---+++++++11199111999999900+++        ",
" o$6$o   +++99111111111111---+++++++11199111999999900+++     %  ",
"  o$o    +++99999999999911---+++++++1110000000000000q+++    %=% ",
"   o     +++99999999999911---+++++++1110000000000000q+++     %  ",
"=        +++99999999999911---+++++++111000000000000qq+++        ",
"      #  +++++++++++++++++---+++++++111+++++++++++++++++        ",
"         +++++++++++++++++---+++++++111+++++++++++++++++        ",
"         +++++++++++++++++---+++++++111+++++++++++++++++        ",
"         +++--+++       +++++4444444+++++ =     +++--+++  =     ",
"     O   +++--+++       +++++4444448+++++       +++--+++        ",
"  = O5O     ++     %      +++4477788+++           =++           ",
"     O  o   ++            +++4777888+++ o          ++   o    5  ",
"            ++           o+++777888q+++            ++           ",
"                        o#+++7888qqq+++                         ",
"                         @+++8888qqq+++                         ",
"     =            &       +++8888qqq+++              =          ",
"  o              &<%      +++888qqqq+++         X               ",
" o$o      &       %          +++++++      &        @            ",
"o$6$o o                      +++++++              @:@ o         ",
" o$o                         +++++++               @            ",
"  o                        *                                    ",
"                     =                                          ",
"         O                                                      "
};
