/* XPM */
static char *_0bf492dbd7f4c1892d8b8d3db6b2a75asddu9kwX9gJMPpW[] = {
/* columns rows colors chars-per-pixel */
"64 64 29 1 ",
"  c #120418",
". c #260E23",
"X c #221325",
"o c #35193A",
"O c #2E282A",
"+ c #4D1326",
"@ c #661A2C",
"# c #002D51",
"$ c #532244",
"% c #572956",
"& c #65305A",
"* c #76356E",
"= c #5C5252",
"- c #4C536C",
"; c #BD2130",
": c #C43838",
"> c #FF7F00",
", c #923E77",
"< c #837172",
"1 c #FF767B",
"2 c #FFB500",
"3 c #0079AB",
"4 c #CF4F8B",
"5 c #009ADE",
"6 c #00CDE1",
"7 c #30ECF2",
"8 c #A6948F",
"9 c #D4C7B9",
"0 c #D6F6F5",
/* pixels */
"                                                      o         ",
"                                          *                     ",
"                                    &                        X  ",
"            +                                               X#X ",
"         X +;+                                           X X#5#X",
"            +        %                       $       %      X#X ",
"               .                            $,%              X  ",
"          *               *                  %            *     ",
"                                      +                         ",
"                                     +@X                        ",
"                                *     X                         ",
"  4    X               X  o                       4    X  o     ",
"             OOOOOOOOOOOOOOOOO              $            o4o *  ",
"             OOOOOOOOOOOOOOOOO                            o     ",
"     *       OOOOOOOOOOOOOOOOO                       *          ",
"          OOO==OOO888888<<<<<<OOO                               ",
"          OOO==OOO888888<<<<<<OOO                               ",
"             OOOOO888<<<<<<<<<OOOOOO                     @      ",
"        X    OOOOO888<<<<<<<<<OOOOOO           *               *",
"  $          OOOOO888<<<<<<<<<OOOOOO              $         X   ",
" $*$           OOO888<<<<<<<<<<<<OOOOOO                    X#X  ",
"  $            OOO888<<<<<<<<<<<<OOOOOO                   X#5#X ",
"               OOO888<<<<<<<<<<<<OOOOOO                    X#X  ",
"               OOO888<<<<<<<<<<<<OOOOOO      o              X   ",
"               OOO888<<<<<<<<<===<<<OOO     o5o       o         ",
"       +       OOO888<<<<<<<<<===<<<OOO      o                  ",
"               OOO888<<<<<<<<<===<<<OOO4                        ",
"           o OOOOO<<<<<<=========OOOOOOOOOOOO              o    ",
"             OOOOO<<<<<<=========OOOOOOOOOOOO        .          ",
"      OOOOOOOOO===============OOOOOO===<<<OOO.               .  ",
"      OOOOOOOOO===============OOOOOO===<<<OO----     --         ",
"      OOOOOOOOO===============OOOOOO===<<<--------      -       ",
" o OOO777663333OOOOOOOOOOOOOOO======OOOOOO>>>>>>>----- -   -    ",
"   OOO777666333OOOOOOOOOOOOOOO======OOOOOO:>>>>>>222--   -- o   ",
"   OOO777766633OOOOOOOOOOOOOOO======OOOOOO::::>>>>2>22--   o4o  ",
"   OOO007776633OOOOOOOOOOOOOOO<<<===OOOOOO:::::>>>>>2222--- o   ",
"   OOO000077633OOOOOOOOOOOOOOO<<<===OOOOOO::::>>>>>22222--- -   ",
"   OOO000077733OOOOOOOOOOOOOOO<<<===OOOOOO:>>>>>>222----        ",
"   OOO000077773OOOOOOOOOOOOOOO<<<===OOOOOO>>>>>>2222--- +---    ",
"  o   OOOOOOOOO<<<<<<<<<<<<<<<OOOOOO===<<<----------   +@+      ",
" o4o  OOOOOOOOO<<<<<<<<<<<<<<<OOOOOO===<<<OO-------o  --1@-     ",
"  o   OOOOOOOOO<<<<<<<<<<<<<<<OOOOOO===<<<OOO  .  o    --+  o   ",
"        +    OOOOO999888<<<<<<<<<OOOOOOOOOOOO           +       ",
"    .        OOOOO999888<<<<<<<<<OOOOOOOOOOOO       .           ",
"   .*.         OOO999<<<888888<<<888OOO            .*.          ",
"    .          OOO999<<<888888<<<888OOO             .       X   ",
"         o     OOO999<<<888888<<<888OOO     X            o      ",
"        o4o    OOO999888<<<<<<888OOOOOO                 o4o     ",
"         o     OOO999888<<<<<<888OOOOOO                  o      ",
"    .          OOO999888<<<<<<888OOOOOO                         ",
"   .+.         OOO999888<<<<<<888OOOOOO                         ",
"  .+;+.      OOOOO999888<<<<<<OOOOOO                            ",
" .+;1;+.     OOOOO999888<<<<<<OOOOOO                            ",
"  .+;+.   %  OOOOO099888<<<<<<OOOOOO      %               %     ",
"   .+.    OOO==OOO000999888888OOO                               ",
" *  .     OOO==OOO000999888888OOO    *               *          ",
"             OOOOOOOOOOOOOOOOO X                                ",
"             OOOOOOOOOOOOOOOOOX#X                               ",
"             OOOOOOOOOOOOOOOOO#5#X                              ",
"     o  X   X4X   $           X#X       X            o  X       ",
"  * o4o      X   $*$           X  *                 o4o       % ",
"     o            $                  o               o          ",
"          *                               *               *     ",
"                                                                "
};
