/* XPM */
static char *_b8cf21000824694e2b7dc3d72a2c4cczh2eqa7akQdDNtZt[] = {
/* columns rows colors chars-per-pixel */
"64 64 29 1 ",
"  c #120418",
". c #260E23",
"X c #221325",
"o c #35193A",
"O c #2E282A",
"+ c #4D1326",
"@ c #661A2C",
"# c #002D51",
"$ c #532244",
"% c #572956",
"& c #65305A",
"* c #76356E",
"= c #5C5252",
"- c #4C536C",
"; c #BD2130",
": c #C43838",
"> c #FF7F00",
", c #923E77",
"< c #837172",
"1 c #FF767B",
"2 c #FFB500",
"3 c #0079AB",
"4 c #CF4F8B",
"5 c #009ADE",
"6 c #00CDE1",
"7 c #30ECF2",
"8 c #A6948F",
"9 c #D4C7B9",
"0 c #D6F6F5",
/* pixels */
"                                                      o         ",
"                                          *                     ",
"                                    &                        X  ",
"            +                                               X#X ",
"         X +;+                                           X X#5#X",
"            +        %                       $       %      X#X ",
"               .                            $,%              X  ",
"          *               *                  %            *     ",
"                                      +                         ",
"                                     +@X                        ",
"                                *     X                         ",
"  4    X               X  o                       4    X  o     ",
"            OOOOOOOOOOOOOOOOO*              $            o4o *  ",
"            OOOOOOOOOOOOOOOOO                             o     ",
"     *      OOOOOOOOOOOOOOOOO                        *          ",
"         OOO==OOO888888<<<<<<OOO                                ",
"         OOO==OOO888888<<<<<<OOO                                ",
"            OOOOO888<<<<<<<<<OOOOOO                      @      ",
"        X   OOOOO888<<<<<<<<<OOOOOO            *               *",
"  $         OOOOO888<<<<<<<<<OOOOOO               $         X   ",
" $*$          OOO888<<<<<<<<<<<<OOOOOO                     X#X  ",
"  $           OOO888<<<<<<<<<<<<OOOOOO                    X#5#X ",
"              OOO888<<<<<<<<<<<<OOOOOO                     X#X  ",
"              OOO888<<<<<<<<<<<<OOOOOO       o              X   ",
"              OOO888<<<<<<<<<===<<<OOO+     o5o       o         ",
"       +      OOO888<<<<<<<<<===<<<OOO       o                  ",
"              OOO888<<<<<<<<<===<<<OOO 4                        ",
"           oOOOOO<<<<<<=========OOOOOOOOOOOO               o    ",
"            OOOOO<<<<<<=========OOOOOOOOOOOO         .          ",
"     OOOOOOOOO===============OOOOOO===<<<OOO .          --   .  ",
"     OOOOOOOOO===============OOOOOO===<<<OOO------  - .--       ",
"     OOOOOOOOO===============OOOOOO===<<<----------       -     ",
" oOOO766333333OOOOOOOOOOOOOOO======OOOOOO>>>>>>>222-- --        ",
"  OOO776663333OOOOOOOOOOOOOOO======OOOOOO:>>>>>>>22--       o   ",
"  OOO776666333OOOOOOOOOOOOOOO======OOOOOO::>>>>>>>222---- --4o  ",
"  OOO077666333OOOOOOOOOOOOOOO<<<===OOOOOO::::>>>>>>2222--   o   ",
"  OOO000776633OOOOOOOOOOOOOOO<<<===OOOOOO:::>>>>>>>>222-        ",
"  OOO000076633OOOOOOOOOOOOOOO<<<===OOOOOO::>>>>>>>>----  --     ",
"  OOO000077733OOOOOOOOOOOOOOO<<<===OOOOOO>>>>>>>>>2---  -       ",
"  o  OOOOOOOOO<<<<<<<<<<<<<<<OOOOOO===<<<----------    +@-      ",
" o4o OOOOOOOOO<<<<<<<<<<<<<<<OOOOOO===<<<OOO------4o -+@1@+     ",
"  o  OOOOOOOOO<<<<<<<<<<<<<<<OOOOOO===<<<OOO   .  o    +@+  o   ",
"        +   OOOOO999888<<<<<<<<<OOOOOOOOOOOO            +       ",
"    .       OOOOO999888<<<<<<<<<OOOOOOOOOOOO        .           ",
"   .*.        OOO999<<<888888<<<888OOO             .*.          ",
"    .         OOO999<<<888888<<<888OOO              .       X   ",
"         o    OOO999<<<888888<<<888OOO      X            o      ",
"        o4o   OOO999888<<<<<<888OOOOOO                  o4o     ",
"         o    OOO999888<<<<<<888OOOOOO                   o      ",
"    .         OOO999888<<<<<<888OOOOOO                          ",
"   .+.        OOO999888<<<<<<888OOOOOO                          ",
"  .+;+.     OOOOO999888<<<<<<OOOOOO                             ",
" .+;1;+.    OOOOO099888<<<<<<OOOOOO                             ",
"  .+;+.   % OOOOO009888<<<<<<OOOOOO       %               %     ",
"   .+.   OOO==OOO000999888888OOO                                ",
" *  .    OOO==OOO000099888888OOO     *               *          ",
"            OOOOOOOOOOOOOOOOO  X                                ",
"            OOOOOOOOOOOOOOOOO X#X                               ",
"            OOOOOOOOOOOOOOOOOX#5#X                              ",
"     o  X   X4X   $           X#X       X            o  X       ",
"  * o4o      X   $*$           X  *                 o4o       % ",
"     o            $                  o               o          ",
"          *                               *               *     ",
"                                                                "
};
