/* XPM */
static char * col_bg_xpm[] = {
"64 64 173 2",
"  	c #120418",
". 	c #14091A",
"+ 	c #464D4F",
"@ 	c #536265",
"# 	c #889C9E",
"$ 	c #62797E",
"% 	c #24232B",
"& 	c #383F40",
"* 	c #241A29",
"= 	c #143151",
"- 	c #382B2F",
"; 	c #35464F",
"> 	c #243C5B",
", 	c #08257B",
"' 	c #2CE1AB",
") 	c #1A95A7",
"! 	c #115B82",
"~ 	c #0B3A7B",
"{ 	c #6F799A",
"] 	c #D4D6DD",
"^ 	c #E7E8EC",
"/ 	c #778DA2",
"( 	c #E1E4E8",
"_ 	c #F9F9FA",
": 	c #E9EAED",
"< 	c #878EA8",
"[ 	c #6F739A",
"} 	c #D4D5DD",
"| 	c #444C87",
"1 	c #F2F3F5",
"2 	c #A0ADBB",
"3 	c #425586",
"4 	c #77809E",
"5 	c #C4C7D2",
"6 	c #74789D",
"7 	c #D2D3DC",
"8 	c #B22D00",
"9 	c #A1A3B8",
"0 	c #CED3DA",
"a 	c #153D7C",
"b 	c #CCCDD7",
"c 	c #EDEDF0",
"d 	c #8285A5",
"e 	c #C1C2CF",
"f 	c #F7F7F9",
"g 	c #F1F2F4",
"h 	c #9396AF",
"i 	c #C2C3D0",
"j 	c #F6F7F8",
"k 	c #FFFFFF",
"l 	c #A8AABE",
"m 	c #E3E4E9",
"n 	c #989BB3",
"o 	c #1A2D7D",
"p 	c #D1D2DB",
"q 	c #F8F8FA",
"r 	c #E8E8EC",
"s 	c #070872",
"t 	c #6E1912",
"u 	c #B6B8C7",
"v 	c #B7C0CA",
"w 	c #DBDCE2",
"x 	c #465888",
"y 	c #8E90AC",
"z 	c #E9E9ED",
"A 	c #9194AE",
"B 	c #D4D4DD",
"C 	c #464E88",
"D 	c #676C96",
"E 	c #E8E9ED",
"F 	c #9496B0",
"G 	c #DEDFE5",
"H 	c #545A8D",
"I 	c #999CB3",
"J 	c #D8D8E0",
"K 	c #A6ABBC",
"L 	c #EFEFF2",
"M 	c #B5B6C6",
"N 	c #FEFEFE",
"O 	c #414A86",
"P 	c #B5B7C7",
"Q 	c #A7A9BD",
"R 	c #A3A5BA",
"S 	c #ECECF0",
"T 	c #A22906",
"U 	c #F2F2F4",
"V 	c #A0A5B8",
"W 	c #767A9E",
"X 	c #C4C5D2",
"Y 	c #989EB3",
"Z 	c #DADAE2",
"` 	c #E9EAEE",
" .	c #4C548A",
"..	c #6A6E97",
"+.	c #DCDCE3",
"@.	c #D7D8E0",
"#.	c #9698B1",
"$.	c #788EA3",
"%.	c #CDCED8",
"&.	c #EDEDF1",
"*.	c #8588A6",
"=.	c #BFC0CD",
"-.	c #F6F6F8",
";.	c #F1F1F4",
">.	c #C2C4D0",
",.	c #F7F8F9",
"'.	c #20307E",
").	c #E1E2E7",
"!.	c #68386C",
"~.	c #4A2745",
"{.	c #040656",
"].	c #CDBA00",
"^.	c #5E6492",
"/.	c #ADAFC1",
"(.	c #CACBD6",
"_.	c #DDDDE4",
":.	c #3F4885",
"<.	c #303C81",
"[.	c #9C9EB5",
"}.	c #D6D7DF",
"|.	c #A4A6BA",
"1.	c #F5F5F7",
"2.	c #4E558B",
"3.	c #321F3C",
"4.	c #888BA8",
"5.	c #E2E3E8",
"6.	c #C4C5D1",
"7.	c #B4B6C6",
"8.	c #EEEEF1",
"9.	c #6C7199",
"0.	c #232D46",
"a.	c #373F4B",
"b.	c #261627",
"c.	c #441A2A",
"d.	c #751B11",
"e.	c #5A3359",
"f.	c #5B1A10",
"g.	c #866D0E",
"h.	c #A22633",
"i.	c #BC240D",
"j.	c #F6757A",
"k.	c #852009",
"l.	c #090012",
"m.	c #971B12",
"n.	c #D0B702",
"o.	c #090112",
"p.	c #311020",
"q.	c #1B0D1E",
"r.	c #100317",
"s.	c #0A0113",
"t.	c #4E2D55",
"u.	c #1F0311",
"v.	c #0A0112",
"w.	c #804075",
"x.	c #821E0A",
"y.	c #68160D",
"z.	c #0E0215",
"A.	c #292A28",
"B.	c #54100F",
"C.	c #952506",
"D.	c #A12804",
"E.	c #A82A02",
"F.	c #A62B14",
"G.	c #B55088",
"H.	c #0B0113",
"I.	c #59202F",
"J.	c #3C0910",
"K.	c #0F0316",
"L.	c #0099DB",
"M.	c #311E3B",
"N.	c #210311",
"O.	c #301634",
"P.	c #574310",
"    . + @ # # # # # # # # $ $ # $ $ $ $ $ $ $ $ $ $ $ $ $ + + + + + + @ @ $ $ $ $ $ $ $ $ @ $ $ @ @ @ @ @ @ @ @ @ @ @ + + %     ",
"    + + @ # # # # # # # # $ $ # $ $ $ $ $ $ $ $ $ $ $ $ $ + + + + + + @ @ $ $ $ $ $ $ $ $ @ $ $ @ @ @ @ @ @ @ @ @ @ @ + + +     ",
"    @ @ # + + + + + + + + + + + + + + + + + + + + + + + + + + + + + + + + + + + + + + + + + + + + + + + + + + + + + + + + +     ",
"    # # + $ $ + + + + + + + + + + + + + + + + + + + + + + + + + + + + + + + + + + + + + + + + + + + + + + + + + + $ $ + & & *   ",
"    # # + $ $ + + + + + + + + + + + + + + + + + + + + + + + + + + + + + + + + + + + + + + + + + + + + + + + + + + $ $ + & & = * ",
"    # # - + + + & & - - - - - - - - - - - - - - & & - & & - & & & & & & & & & & & + + & & + & & + + + + + + + + - + + + & & *   ",
"    # # + + + & ; ; > > , , , , , , , , , , , , , , , , , , , , , , , , , , , , , , , , , , , , , , , , , > ; ; + + + + & &     ",
"    # # + + + & ; ; > > , , , , , , , , , , , , , , , , , , , , , , , , , , , , , , , , , , , , , , , , , > ; ; + + + + & &     ",
"    # # + + + - > > ' ' ) ) ) ! ! ! ! ! ! ~ ~ ! ~ ~ ~ ~ ~ ~ , , ~ ~ , ~ ~ , , , , , , , , , , , , , , , , , > > + + + + & &     ",
"    # # + + + - , , ) ) ! ~ ~ ~ ~ ~ ~ ~ ~ ~ ~ ~ ~ ~ , ~ ~ , ~ ~ , , , , , , , , , , , , , , , , , , , , , , , , @ + + + & &     ",
"    # # + + + - , , ) ) ! ~ ~ ~ ~ ~ ~ ~ ~ { ] ~ { ] , ~ ~ , ~ ~ , , , , , , , , , , , , , , , , , , , , ^ , , , @ + + + & &     ",
"    $ $ + + + - , , / ( _ : < ~ ~ ~ ~ ~ ~ [ } ~ [ } ~ , , , , , , , , , , , , , , , , , , , , , , , , , ^ , , , @ + + + & &     ",
"    $ $ + + + - , | 1 2 3 4 5 ~ ~ ~ ~ ~ ~ [ } ~ [ } ~ , , , , , , , , , , , 6 7 , , , , , , , , , , , , ^ , , , @ + + + & & 8 8 ",
"    # # + + + - , 9 0 ! ~ ~ ~ a b _ c d , { ] , [ } , , e f g h , , i j k l m k k n , e f g h , o p q b r , s s @ + + + & & t 8 ",
"    $ $ + + + - , u v ! ~ ~ ~ n w x y z , [ } , [ } , A B C D E , F G H , , 6 7 , , A B C D E , I J | n 1 , , , @ + + + & &     ",
"    $ $ + + + - , 9 0 ! ~ ~ ~ u K ~ , L , [ } , [ } , M N N k k O P Q , , , 6 7 , , M N N k k O u R , , S , , , @ + + + & & T 8 ",
"    $ $ + + + - , | U V 3 W X Y Z C y ` , [ } , [ } , h p  ., , , h G H , , ..+.o , h p  ., , , I @.O #.1 , s s @ + + + & & T 8 ",
"    $ $ + + + - , , $.( _ E < o %._ &.*., [ } , [ } , , =.-.k ;., , >.,.k l '.).N n , =.-.k ;., o p q b r , s s $ + + + & &     ",
"    $ $ + + + - , , ! ! ~ ~ ~ , , , , , , , , , , , , , , , , , , , , , , , , , , , , , , , , , , , , , , , s s $ + + + & &   !.",
"    $ $ + + + - , , ~ ~ ~ , , , , , , , , , , , , , , , , , , , , , , , , , , , , , , , , , , , , , , , , , s s @ + + + & &     ",
"  ~.$ $ + + + - , , ~ ~ , , , , , , , , , , , , , , , , , , , , , , , , , , , , , , , , , , , , , , , , , , s s $ + + + & &     ",
"    $ $ + + + - , , ~ ~ , , , , , , , , , , , , , , , , , , , , , , , , , , , , , , , , , , , , , , , , , , s s $ + + + & & *   ",
"    $ $ + + + & , , , , ~ , , , , , , , , , , , , , , , , , , , , , , , , , , , , , , , , , , , , , , , , , s s $ + + + & &     ",
"    $ $ + + + & , , , , ~ , , , , , , , , , , , , , , , , , , , , , , , , , , , , , , , , , , , , , , , , , s s $ + + + & &     ",
"    $ $ + + + - , , ~ ~ , , , , , , , , , , , , , , , , , , , , , , , , , , , , , , , , , , , , , , , , , , {.{.$ + + + & & ].].",
"    @ @ + + + & , , , , ~ , , , , , , , , , , , , , , , , , , ^.U , , , , , , , , , , , , , , , , , , , , , s s $ + + + & & ].].",
"    @ @ + + + & , , , , ~ , , , , , , , , , , , , , , , , , , /.(., , , , , , , , , , , , , , , , , , , , , s s $ + + + & &     ",
"    $ $ + + + & , , ~ ~ , , , , , , , , , , , , , , , , , , , _.A , , , , , , , , , , , , , , , , , , , , , {.{.$ + + + & & ].].",
"    @ @ + + + & , , , , , , , , , , , , , , , , , , , , , , :.j <., , , , , , , , , , , , , , , , , , , , , {.{.$ + + + - - ].].",
"    @ @ + + + & , , , , , , , , , , , , , , , , , , , , , , [.}., , , , , , , , , , , , , , , , , , , , , , {.{.$ + + + - -     ",
"    @ @ + + + & , , ~ ~ , , , , , , , , , , , , , , , , , , p |., , , , , , , , , , , , , , , , , , , , , , {.{.# + + + & &     ",
"    @ @ + + + & , , , , , , , , , , , , , , , , , , , , , '.1.2., , , , , , , , , , , , , , , , , , , , , , {.{.$ + + + - -     ",
"  3.@ @ + + + & , , , , , , , , , , , , , , , , , , , , , 4.5., , , , , , , , , , , , , , , , , , , , , , , {.{.$ + + + - -     ",
"    @ @ + + + + , , , , , , , , , , , , , , , , , , , , , 6.7., , , , , , , , , , , , , , , , , , , , , , , {.{.# + + + - -     ",
"    @ @ + + + + , , , , , , , , , , , , , , , , , , , , , 8.9., , , , , , , , , , , , , , , , , , , , , , , {.{.# + + + - -     ",
"    @ @ + + + & , , , , , , , , , , , , , , , , , , , , , , , , , , , , , , , , , , , , , , , , , , , , , s {.{.$ + + + - -     ",
"    @ @ + + + + , , , , , , , , , , , , , , , , , , , , , , , , , , , , , , , , , , , , , , , , , , , , , , {.{.# + + + - -     ",
"    @ @ + + + + , , , , , , , , , , , , , , , , , , , , , , , , , , , , , , , , , , , , , , , , , , , , , , {.{.# + + + - -     ",
"    @ @ + + + + , , , , , , , , , , , , , , , , , , , , , , , , , , , , , , , , , , , , , , , , , , , , , s {.{.# + + + - -     ",
"    @ @ + + + + , , , , , , , , , , , , , , , , , , , , , , , , , , , , , , , , , , , , , , , , s , , s s , {.{.# + + + - -     ",
"  3.@ @ + + + + , , , , , , , , , , , , , , , , , , , , , , , , , , , , , , , , , , , , , , , , s , , s s , {.{.# + + + - -     ",
"    @ @ + + + + > > , , , , , , , , , , , , , , , , , , , , , , , , , , , , , , , , , s s , s s , s s , , s 0.0.# + + + - -     ",
"    @ @ + + + + ; ; > > , , , , , , s , , s s s s s s s s s s s s s s s s {.s s {.{.{.{.{.{.{.{.{.{.{.{.{.0.a.a.$ + + + - -     ",
"    @ @ + + + + ; ; > > , , , , , , s , , s s s s s s s s s s s s s s s s {.s s {.{.{.{.{.{.{.{.{.{.{.{.{.0.a.a.$ + + + - -     ",
"    @ @ + + + + + + + + @ + + @ + + @ @ @ @ @ @ @ @ @ @ @ @ @ @ @ @ $ @ @ $ $ $ $ $ $ $ $ $ # # # # # # # # $ $ + + + + - -     ",
"    @ @ + + + + + + + + @ + + @ + + @ @ @ @ @ @ @ @ @ @ @ @ @ @ @ @ $ @ @ $ $ $ $ $ $ $ $ $ # # # # # # # # $ $ + + + + - -     ",
"    @ @ + $ $ + + + + + + + + + + + + + + + + + + + + + + + + + + + + + + + + + + + + + + + + + + + + + + + + + + $ $ + - -     ",
"    + + - + + + + + + + + + + + + + + + + + + + + + + + + + + + + + + + + + + + + + + + + + + + + + + + + + + + - + + - & &     ",
"    + + - + + + + + + + + + + + + + + + + + + + + + + + + + + + + + + + + + + + + + + + + + + + + + + + + + + + - + + - & &     ",
"    . + + & & & & & & & & & & & & & & & & - - & - - & - - - - - - - - - - - - - - - - - - - - - - - - - - - - - - - & & + .     ",
"      b.c.b.  8 d.                                    e.                          f.  f.        f.    g.                        ",
"    b.c.h.c.b.8 d.                                                                i.    i.    i.                                ",
"  b.c.h.j.h.c.8 k.l.                                                              i.      m.i.      n.                          ",
"o.o.b.c.h.p.q.8 r.s.t.              ~.                                            f.i.              n.              t.          ",
"u.o.v.q.c.q.8 8                   t.w.~.                                            f.n.            n.                          ",
"l.l.l.x.8 8 8 y.z.                  t.                                    !.                        g.n.A.g.n.n.g.              ",
"B.C.8 8 8 l.l.l.z.                                c.          *                                                 n.n.            ",
"D.E.F.G.3.l.l.        H.r.                      * I.c.      * = *                                                 n.            ",
"J.l.  3.  K.          H.r.*                       *       * = L.= *                                               n.            ",
"l.l.l.s.z.M.    *       * G.*       ~.                      * = *               *                         3.    *   n.          ",
"N.o.O.r.3.G.3.            *       ~.!.~.                      *     !.                                  3.G.3.        P.g.  t.  ",
"s.o.H.r.  3.                        ~.                                    3.                              3.                g.P.",
"                    !.                                                              !.                              !.          ",
"                                                                                                                                "};
