/* XPM */
static char *_f785ea1caa2487fed521774fa9e99d1sAMLcQwlmV5uULkM[] = {
/* columns rows colors chars-per-pixel */
"64 64 144 2 ",
"   c #010300",
".  c #0D0B0C",
"X  c #001408",
"o  c #0E0310",
"O  c #000A19",
"+  c #100317",
"@  c #120418",
"#  c #160A1D",
"$  c #001214",
"%  c #001F1C",
"&  c #202D0A",
"*  c #343C0E",
"=  c #262014",
"-  c #050A24",
";  c #000C2B",
":  c #051027",
">  c #0B1620",
",  c #02142E",
"<  c #0E132B",
"1  c #001A2C",
"2  c #141327",
"3  c #1A0B34",
"4  c #001634",
"5  c #0D1435",
"6  c #001934",
"7  c #001739",
"8  c #001B3A",
"9  c #181836",
"0  c #161739",
"q  c #260E23",
"w  c #221325",
"e  c #35193A",
"r  c #00202C",
"t  c #002331",
"y  c #002039",
"u  c #002C3E",
"i  c #4D1326",
"p  c #661A2C",
"a  c #40322B",
"s  c #011542",
"d  c #002542",
"f  c #042C46",
"g  c #0B2E4F",
"h  c #00314E",
"j  c #003B49",
"k  c #1B304E",
"l  c #002D51",
"z  c #1C2D50",
"x  c #0D3252",
"c  c #003D51",
"v  c #113353",
"b  c #163957",
"n  c #2B2C51",
"m  c #283559",
"M  c #323155",
"N  c #003466",
"B  c #532244",
"V  c #572956",
"C  c #65305A",
"Z  c #76356E",
"A  c #00415E",
"S  c #005668",
"D  c #005973",
"F  c #244E67",
"G  c #224B6A",
"H  c #205674",
"J  c #2D5273",
"K  c #205B70",
"L  c #355878",
"P  c #3A5C7A",
"I  c #00606F",
"U  c #3E657F",
"Y  c #594F43",
"T  c #4C4963",
"R  c #4F5677",
"E  c #495E7B",
"W  c #BD2130",
"Q  c #923E77",
"!  c #FF767B",
"~  c #DBE15B",
"^  c #FFEB44",
"/  c #FDEA49",
"(  c #FEEE53",
")  c #F7E95D",
"_  c #FEEC5C",
"`  c #FFF05D",
"'  c #CFCC77",
"]  c #CAD872",
"[  c #FFEA63",
"{  c #005095",
"}  c #006785",
"|  c #006B85",
" . c #136C88",
".. c #007089",
"X. c #007D98",
"o. c #107D9C",
"O. c #2F6183",
"+. c #2B6B8B",
"@. c #3B6482",
"#. c #336B8B",
"$. c #3C6A8C",
"%. c #3D6A92",
"&. c #247498",
"*. c #496286",
"=. c #466886",
"-. c #42678B",
";. c #49678F",
":. c #45698C",
">. c #49698B",
",. c #576287",
"<. c #54668E",
"1. c #59668D",
"2. c #52708E",
"3. c #456990",
"4. c #4B6A93",
"5. c #516E93",
"6. c #627399",
"7. c #CF4F8B",
"8. c #008296",
"9. c #008D97",
"0. c #00819C",
"q. c #008A9E",
"w. c #008CA1",
"e. c #009CAE",
"r. c #00A8AC",
"t. c #00A7B6",
"y. c #00ACBA",
"u. c #00B3BF",
"i. c #00C1A0",
"p. c #00D5A0",
"a. c #00E6B7",
"s. c #0088DA",
"d. c #009ADE",
"f. c #00B7C6",
"g. c #00BDC5",
"h. c #00CCCE",
"j. c #00D3CC",
"k. c #00C7D2",
"l. c #00CBD2",
"z. c #00C7DB",
"x. c #00D2D7",
"c. c #00CFE4",
"v. c #E3DB8E",
"b. c #FFF389",
/* pixels */
"@ @ @ @ @ @ @ @ @ @ @ @ @ @ @ @ @ @ @ @ @ @ @ @ @ @ @ @ @ @ @ @ @ @ @ @ @ @ @ @ @ @ @ @ @ @ @ @ @ @ @ @ @ @ e @ @ @ @ @ @ @ @ @ ",
"@ @ @ @ @ @ @ @ @ @ @ @ @ @ @ @ @ @ @ @ @ @ @ @ @ @ @ @ @ @ @ @ @ @ @ @ @ @ @ @ @ @ Z @ @ @ @ @ @ @ @ @ @ @ @ @ @ @ @ @ @ @ @ @ ",
"@ @ @ @ @ @ @ @ @ @ @ @ @ @ @ @ @ @ @ @ @ @ @ @ @ @ @ @ @ @ @ @ @ @ @ @ C @ @ @ @ @ @ @ @ @ @ @ @ @ @ @ @ @ @ @ @ @ @ @ @ w @ @ ",
"@ @ @ @ @ @ @ @ @ @ @ @ i @ @ @ @ @ @ @ @ @ @ @ @ @ @ @ @ @ @ @ @ @ @ @ @ @ @ @ @ @ @ @ @ @ @ @ @ @ @ @ @ @ @ @ @ @ @ @ w l w @ ",
"@ @ @ @ @ @ @ @ @ w @ i W i @ @ @ @ @ @ @ @ @ @ @ @ @ @ @ @ @ @ @ @ @ @ @ @ @ @ @ @ @ @ @ @ @ @ @ @ @ @ @ @ @ @ @ w @ w l d.l w ",
"@ @ @ @ @ @ @ @ @ @ @ @ i @ @ @ @ @ @ @ @ V @ @ @ @ @ @ @ @ @ @ @ @ @ @ @ @ @ @ @ @ @ @ @ B @ @ @ @ @ @ @ V @ @ @ @ @ @ w l w @ ",
"@ @ @ @ @ @ @ @ @ @ @ @ @ @ @ q @ @ @ @ @ @ @ @ @ @ @ @ @ @ @ @ @ @ @ @ @ @ @ @ @ @ @ @ B Q V @ @ @ @ @ @ @ @ @ @ @ @ @ @ w @ @ ",
"@ @ @ @ @ @ @ @ @ @ Z @ @ @ @ @ @ @ @ @ @ @ @ @ @ @ Z @ @ @ @ @ @ @ @ @ @ @ @ @ @ @ @ @ @ V @ @ @ @ @ @ @ @ @ @ @ @ Z @ @ @ @ @ ",
"@ @ @ @ @ @ @ @ @ @ @ @ @ @ @ @ @ @ @ @ @ @ @ @ @ @ @ @ @ @ @ @ @ @ @ @ @ @ i @ @ @ @ @ @ @ @ @ @ @ @ @ @ @ @ @ @ @ @ @ @ @ @ @ ",
"@ @ @ @ @ @ @ @ @ @ @ @ @ @ @ @ @ @ @ @ @ @ @ @ @ @ @ @ @ @ @ @ @ @ @ @ @ i p w @ @ @ @ @ @ @ @ @ @ @ @ @ @ @ @ @ @ @ @ @ @ @ @ ",
"@ @ @ @ @ @ @ @ @ @ @ @ @ @ @ @ @ @ @ @ @ @ @ @ @ @ @ @ @ @ @ @ Z @ @ @ @ @ w @ @ @ @ @ @ @ @ @ @ @ @ @ @ @ @ @ @ @ @ @ @ @ @ @ ",
"@ @ 7.@ @ @ @ w @ @ @ @ @ @ @ @ @ @ @ @ @ @ @ w @ @ e @ @ @ @ @ @ @ @ @ @ @ @ @ @ @ @ @ @ @ @ @ @ @ 7.@ @ @ @ w @ @ e @ @ @ @ @ ",
"@ @ @ @ @ @ @ @ @ @ @ @ @ Z @ @ @ @ @ @ @ @ @ @ @ e 7.e @ Z @ @ @ @ @ 6 6 6 6 8 @ @ @ @ B @ @ @ @ @ @ @ @ @ @ @ @ e 7.e @ Z @ @ ",
"@ @ @ @ @ @ @ @ @ @ @ @ @ @ @ @ @ @ @ @ @ @ @ @ @ @ e @ @ @ @ @ @ 6 6 y 6 6 { N 6 t # $ @ @ @ @ @ @ @ @ @ @ @ @ @ @ e @ @ @ @ @ ",
"@ @ @ @ @ Z @ @ @ @ @ @ @ @ @ @ @ @ @ @ @ Z @ @ @ @ @ @ @ @ @ @ 6 s.s.{ { { N N N 6 6 B @ @ @ @ @ @ @ @ @ Z @ @ @ @ @ @ @ @ @ @ ",
"@ @ @ @ @ @ @ @ @ @ @ @ @ @ @ @ @ @ @ @ @ @ @ @ @ @ @ @ @ @ @ 6 s.s.{ s.{ { { N N 6 4 8 @ @ @ @ @ @ @ @ @ @ @ @ @ @ @ @ @ @ @ @ ",
"@ @ @ @ @ @ @ @ @ @ i @ @ @ @ @ @ @ @ @ @ @ @ @ @ @ @ @ @ @ j > { { s.{ { N N N N 1 $ 2 6 @ @ @ @ @ @ @ @ @ @ @ @ @ @ @ @ @ @ @ ",
"@ @ @ @ @ @ @ @ @ @ @ @ @ @ @ @ @ @ @ @ @ @ @ e @ @ @ @ @ @ 7 { { { { { { N N N 6 6 8 7 - @ @ @ @ @ @ @ @ @ @ @ @ p @ @ @ @ @ @ ",
"@ @ @ @ @ @ @ @ w @ @ @ @ @ @ Z @ @ @ @ @ @ @ @ @ @ @ @ S < 5 { { { { { N N N N 6 6 6 6 :.n @ Z @ @ @ @ @ @ @ @ @ @ @ @ @ @ @ Z ",
"@ @ B @ @ @ @ @ @ @ @ @ @ @ @ @ @ @ @ @ @ @ @ @ @ @ @ @ @ y N N { N N N N N N N N 6 6 6 n 6 @ @ @ @ B @ @ @ @ @ @ @ @ @ w @ @ @ ",
"@ B Z B @ @ @ @ @ @ @ @ @ @ @ @ @ @ B @ @ @ @ @ @ @ @ @ @ 6 N N N N N N N N N N 6 5 6 6 g 1 @ @ @ @ @ @ @ @ @ @ @ @ @ w l w @ @ ",
"@ @ B @ @ @ @ @ @ @ @ @ @ @ @ @ @ @ @ @ @ @ @ @ @ @ @ @ @ 6 8 N N N N N N N N N 6 6 6 6 x 6 @ @ @ @ @ @ @ @ @ @ @ @ w l d.l w @ ",
"@ @ @ @ @ @ @ @ @ @ @ @ @ @ @ @ @ @ @ u 6 l.6 @ @ p @ @ @ @ 7 6 N N N N N N N 6 6 6 6 :.:.6 @ @ @ @ @ @ @ @ @ @ @ @ @ w l w @ @ ",
"@ @ @ @ @ @ @ @ @ @ @ @ @ @ @ @ @ @ @ 6 3.3.3.h.6 @ @ @ 6 >.>.6 6 7 N N 6 6 6 6 6 6 :.:.8 n @ @ @ @ @ @ @ @ @ @ @ @ @ @ w @ @ @ ",
"@ @ @ @ @ @ @ @ @ @ @ @ @ @ @ @ @ @ @   z g :.3.8.l.6 6 >.< >.* 7 6 6 7 7 6 6 6 6 6 :.v 6 d.e @ @ @ @ @ @ @ e @ @ @ @ @ @ @ @ @ ",
"@ @ @ @ @ @ @ i @ @ @ @ @ @ @ @ @ @ w a 9 6 g g :.3.h.6 4.v.:.:.6 6 6 6 6 7 6 6 6 :.6 r @ e @ @ @ @ @ @ @ @ @ @ @ @ @ @ @ @ @ @ ",
"@ @ @ @ @ @ @ @ @ @ @ @ @ @ @ @ @ @ @ @ B Y : 4 g :.3.3.i.h.x.d 6.6 6 , 4 6 6 1 :.:.4 . @ @ @ @ @ @ @ @ @ @ @ @ @ @ @ @ @ @ @ @ ",
"@ @ @ @ @ @ @ @ @ @ @ e @ @ @ @ @ @ @ B 7.B @   7 2.f / z.h.l.h.-.5.>.>.>.6 6 >.>.6 6 ;.6 @ @ @ @ @ @ @ @ @ @ @ @ @ @ e @ @ @ @ ",
"@ @ @ @ @ @ @ @ @ @ @ @ @ @ @ @ @ @ @ @ B @ @ @   ( ' j.k.g.+.h.h.l.>.-.6 -.-.>.7 f 6 ;.6 @ @ @ @ @ @ @ @ q @ @ @ @ @ @ @ @ @ @ ",
"@ @ @ @ @ @ @ @ @ @ @ @ @ q @ @ @ @ @ @ @ @ @ @ @     $.q.h.j.y.w.h.k.7 G J :.>.;.:.L k $.q @ @ @ @ @ @ @ @ @ @ @ @ @ @ @ w @ @ ",
"@ @ @ @ @ @ q @ @ @ @ @ @ @ @ @ @ @ @ @ @ q @ @ @ @ h.k.:.8.h.l.h.:.&.:.d :.:.f :.:.3.7 6 @ @ @ @ @ @ @ @ @ q @ @ @ @ @ @ @ @ @ ",
"@ @ @ @ @ @ @ @ @ @ @ @ @ @ @ @ @ @ @ @ @ @ @ @ @ / r.- h.h.1.+.} h.- 4 P :.; ; g :.:.:.7 6 @ @ e @ @ @ @ @ @ @ @ @ @ @ @ @ @ @ ",
"@ e @ @ @ @ @ @ @ @ @ @ @ @ @ @ @ @ @ @ @ @ @ @ 6 c.h...h.h.x...-.3 0 6 :.:.6 7 4 g -.-.H 6 @ @ @ @ @ @ @ @ @ @ @ @ @ @ @ @ @ @ ",
"@ @ @ @ @ @ @ @ @ @ @ @ @ @ @ @ @ @ @ @ @ 6 6 ^ %.8 R h.h.h.h.h.h.6 :.:.:.3.6 6 7 g g =.4./ @ @ @ @ @ @ @ @ @ @ @ @ @ @ e @ @ @ ",
"@ @ @ @ @ @ @ @ @ @ @ @ @ e @ @ @ @ w @ 6 ] h.h.j.$.D m q.h.9.T K  .v x v k 6 6 6 6 1 :.>.J 6 @ @ @ @ @ @ @ @ @ @ @ @ e 7.e @ @ ",
"@ @ @ @ @ @ @ @ @ w @ @ @ @ @ @ @ @ @ 6 ( h.h.| -.-.:.-.>.1 #.f.6 7 y 6 6 6 7 h.8.6 6 6 :.3.b.e @ @ @ @ @ @ @ @ @ @ @ @ e @ @ @ ",
"@ @ @ @ @ w @ @ w l w @ @ @ @ @ @ 6 6 a.o l.l...>.:.:.:.:.:.2.7 4 6 3.:.6 6 _ h.;.h.6 7 :.;.5 6 @ @ @ @ @ w @ @ @ @ @ @ @ @ @ @ ",
"@ @ @ @ @ @ @ w l d.l w @ @ @ @ 6 = ) h.h.F $.1.3.*.h 7 h.h.h.1.3.-.-.@.6 1 :.8.8.h.% 6 b -.%.X 6 @ @ @ @ @ @ @ @ @ @ @ @ @ @ @ ",
"@ @ @ @ @ @ @ @ w l w @ @ @ @ 6 ~ p.j.h.#.3.>.:.6 6 6 <.h.h.h.-.>.6 4 1 6 [ h.>.8.6 6 9 6 7 :.>./ @ @ @ @ @ @ @ i @ @ @ @ @ @ @ ",
"@ @ e @ @ @ @ @ @ w @ @ @ @ # 6 g.h.h.e.+.:.6 -.E 6 ,.u.h.X.X.1.3.L P 6 1 l.8.:.l.4 @ @ 6 -.:.:.6 @ e @ @ @ @ i p i @ @ @ @ @ @ ",
"@ e 7.e @ @ i @ @ @ @ @ @ @ @ @ 6 <.$.:.-.6 6 6 6 ` -.k.h.h.h.X.:.:.U 6 ( ;.8.8.O @ @ @ l 6 - ; @ e 7.e @ @ i p ! p i @ @ @ @ @ ",
"@ @ e @ @ @ @ @ @ @ @ @ e @ @ @ @ 6 , 6 6 @ @ @ @ @ @ 4 k.h.h.#.-.4 6 6 s 8.h.7 @ @ @ @ @ @ + q @ @ e @ @ @ @ i p i @ @ e @ @ @ ",
"@ @ @ @ @ @ @ @ i @ @ @ @ @ @ @ @ @ @ @ @ @ @ @ @ @ @ ( l.h.<.#.=.6 6 6 -.>.6 & @ @ l @ @ @ @ @ @ @ @ @ @ @ @ @ i @ @ @ @ @ @ @ ",
"@ @ @ @ w @ @ @ @ @ @ @ @ @ @ @ @ @ l @ @ @ @ @ @ @ @ 6 h.k.:.:.:.6 o @ 6 r 8 @ @ @ @ @ @ @ @ @ @ @ @ @ q @ @ @ @ @ @ @ @ @ @ @ ",
"@ @ @ q Z q @ @ @ @ @ @ @ @ @ @ @ @ @ @ @ @ @ @ @ @ @ 6 c I M >.G 7 @ q Z q @ @ @ @ @ @ @ @ @ @ @ @ @ q Z q @ @ @ @ @ @ @ @ @ @ ",
"@ @ @ @ q @ @ @ @ @ @ @ @ @ @ @ @ @ @ @ @ @ l @ @ @ @ 6 y.l.#.J 6 : @ @ q @ @ @ @ @ @ @ @ @ @ @ @ @ @ @ w @ @ @ @ @ @ @ w @ @ @ ",
"@ @ @ @ @ @ @ @ @ e @ @ @ @ @ @ @ @ @ @ @ @ @ @ @ @ @ 6 t.h.$.3.6 @ @ @ @ @ @ @ @ @ @ @ w @ @ @ @ @ @ @ @ @ @ @ @ e @ @ @ @ @ @ ",
"@ @ @ @ @ @ @ @ e 7.e @ @ @ @ @ @ @ @ @ @ @ @ @ @ @ @ 6 0.h.o.:.6 @ @ @ @ @ @ # @ @ @ @ @ @ @ @ @ @ @ @ @ @ @ @ e 7.e @ @ @ @ @ ",
"@ @ @ @ @ @ @ @ @ e @ @ @ @ @ @ @ @ @ @ @ @ @ @ @ @ @ 6 <.y.8.:.$ @ @ @ @ @ @ @ @ @ @ @ @ @ @ @ @ @ @ @ @ @ @ @ @ e @ @ @ @ @ @ ",
"@ @ @ @ q @ @ @ @ @ @ @ @ @ @ @ @ @ @ @ @ Z @ @ @ @ @ 6 3.h.l.3.6 @ @ @ @ @ @ @ @ @ @ @ @ @ @ @ @ @ @ @ @ @ @ @ @ @ @ @ @ @ @ @ ",
"@ @ @ q i q @ @ @ @ @ @ @ @ @ @ @ @ @ @ @ @ @ @ @ @ @ 6 E l.h.$.6 @ @ @ @ @ @ @ @ @ @ @ @ @ @ @ @ @ @ @ @ @ @ @ @ @ @ @ @ @ @ @ ",
"@ @ q i W i q @ @ @ @ @ @ @ @ @ @ @ @ @ @ @ @ @ @ @ @ @ 6 A 8.O.6 @ @ @ @ @ @ @ @ @ @ @ @ @ @ @ @ @ @ @ @ @ @ @ @ @ @ @ @ @ @ @ ",
"@ q i W ! W i q @ @ @ @ @ @ @ @ @ @ @ @ @ @ @ @ @ @ @ @ @ 6 6 6 @ @ @ @ @ @ @ @ @ @ @ @ @ @ @ @ @ @ @ @ @ @ @ @ @ @ @ @ @ @ @ @ ",
"@ @ q i W i q @ @ @ V @ @ @ @ @ @ @ B @ @ @ @ @ @ @ @ @ @ @ @ @ @ @ @ @ @ @ @ @ @ @ V @ @ @ @ @ @ @ @ @ @ @ @ @ @ @ V @ @ @ @ @ ",
"@ @ @ q i q @ @ @ @ @ @ @ @ @ @ @ V Q B @ @ @ @ @ @ @ @ @ @ @ @ @ @ @ @ @ @ @ @ @ @ @ @ @ @ @ @ @ @ @ @ @ @ @ @ @ @ @ @ @ @ @ @ ",
"@ Z @ @ q @ @ @ @ @ @ @ @ @ @ @ @ @ V @ @ @ @ @ @ @ @ @ @ @ @ @ @ @ @ @ @ Z @ @ @ @ @ @ @ @ @ @ @ @ @ @ @ Z @ @ @ @ @ @ @ @ @ @ ",
"@ @ @ @ @ @ @ @ @ @ @ @ @ @ @ @ @ @ @ @ @ @ @ @ @ i @ @ @ @ @ w @ @ @ @ @ @ @ @ @ @ @ @ @ @ @ @ @ @ @ @ @ @ @ @ @ @ @ @ @ @ @ @ ",
"@ @ @ @ @ @ @ @ @ @ @ @ @ @ @ @ @ @ @ @ @ @ @ @ w p i @ @ @ w l w @ @ @ @ @ @ @ @ @ @ @ @ @ @ @ @ @ @ @ @ @ @ @ @ @ @ @ @ @ @ @ ",
"@ @ @ @ @ @ @ @ @ @ @ @ @ w @ @ @ @ @ @ @ @ @ @ @ w @ @ @ w l d.l w @ @ @ @ @ @ @ @ @ @ @ @ @ @ @ @ @ @ @ @ @ @ @ @ @ @ @ @ @ @ ",
"@ @ @ @ @ e @ @ w @ @ @ w 7.w @ @ @ B @ @ @ @ @ @ @ @ @ @ @ w l w @ @ @ @ @ @ @ w @ @ @ @ @ @ @ @ @ @ @ @ e @ @ w @ @ @ @ @ @ @ ",
"@ @ Z @ e 7.e @ @ @ @ @ @ w @ @ @ B Z B @ @ @ @ @ @ @ @ @ @ @ w @ @ Z @ @ @ @ @ @ @ @ @ @ @ @ @ @ @ @ @ e 7.e @ @ @ @ @ @ @ V @ ",
"@ @ @ @ @ e @ @ @ @ @ @ @ @ @ @ @ @ B @ @ @ @ @ @ @ @ @ @ @ @ @ @ @ @ @ @ e @ @ @ @ @ @ @ @ @ @ @ @ @ @ @ e @ @ @ @ @ @ @ @ @ @ ",
"@ @ @ @ @ @ @ @ @ @ Z @ @ @ @ @ @ @ @ @ @ @ @ @ @ @ @ @ @ @ @ @ @ @ @ @ @ @ @ @ @ @ Z @ @ @ @ @ @ @ @ @ @ @ @ @ @ @ Z @ @ @ @ @ ",
"@ @ @ @ @ @ @ @ @ @ @ @ @ @ @ @ @ @ @ @ @ @ @ @ @ @ @ @ @ @ @ @ @ @ @ @ @ @ @ @ @ @ @ @ @ @ @ @ @ @ @ @ @ @ @ @ @ @ @ @ @ @ @ @ "
};
