/* XPM */
static char *_be287b6f36c484baef085b061b0092bXyYoDGcrmqLfnnEH[] = {
/* columns rows colors chars-per-pixel */
"64 64 143 2 ",
"   c #010300",
".  c #001408",
"X  c #000A19",
"o  c #100317",
"O  c #1C0A17",
"+  c #120418",
"@  c #160A1D",
"#  c #001214",
"$  c #001F1C",
"%  c #1A1116",
"&  c #202D0A",
"*  c #343C0E",
"=  c #262014",
"-  c #050A24",
";  c #000C2B",
":  c #051027",
">  c #0D1526",
",  c #02142E",
"<  c #001A2C",
"1  c #141327",
"2  c #1A0B34",
"3  c #001634",
"4  c #0D1633",
"5  c #001934",
"6  c #001739",
"7  c #001B3A",
"8  c #181836",
"9  c #161739",
"0  c #260E23",
"q  c #221325",
"w  c #35193A",
"e  c #00202C",
"r  c #002331",
"t  c #002039",
"y  c #002C3E",
"u  c #4D1326",
"i  c #661A2C",
"p  c #40322B",
"a  c #011542",
"s  c #002542",
"d  c #042C46",
"f  c #0B2E4F",
"g  c #00314E",
"h  c #003B49",
"j  c #1B304E",
"k  c #002D51",
"l  c #1C2D50",
"z  c #0D3252",
"x  c #003D51",
"c  c #113353",
"v  c #163957",
"b  c #2F324D",
"n  c #2B2C51",
"m  c #283559",
"M  c #323155",
"N  c #003466",
"B  c #532244",
"V  c #572956",
"C  c #65305A",
"Z  c #76356E",
"A  c #00415E",
"S  c #005973",
"D  c #244E67",
"F  c #224B6A",
"G  c #2C4F73",
"H  c #205674",
"J  c #2D5273",
"K  c #205B70",
"L  c #355878",
"P  c #3A5C7A",
"I  c #00606F",
"U  c #594F43",
"Y  c #4C4963",
"T  c #4F5677",
"R  c #495E7B",
"E  c #BD2130",
"W  c #923E77",
"Q  c #FF767B",
"!  c #DBE15B",
"~  c #FFEB44",
"^  c #FDEA49",
"/  c #FEEE53",
"(  c #F7E95D",
")  c #FEEC5C",
"_  c #CFCC77",
"`  c #CAD872",
"'  c #FFEA63",
"]  c #005095",
"[  c #006785",
"{  c #006B85",
"}  c #136C88",
"|  c #007089",
" . c #007C95",
".. c #007D98",
"X. c #107D9C",
"o. c #2F6183",
"O. c #2B6B8B",
"+. c #3B6482",
"@. c #336B8B",
"#. c #3C6A8C",
"$. c #3D6A92",
"%. c #247498",
"&. c #496286",
"*. c #466886",
"=. c #42678B",
"-. c #49678F",
";. c #45698C",
":. c #49698B",
">. c #576287",
",. c #54668E",
"<. c #59668D",
"1. c #52708E",
"2. c #456990",
"3. c #4B6A93",
"4. c #516E93",
"5. c #627399",
"6. c #CF4F8B",
"7. c #008296",
"8. c #008D97",
"9. c #00819C",
"0. c #008A9E",
"q. c #008CA1",
"w. c #009CAE",
"e. c #00A8AC",
"r. c #00A7B6",
"t. c #00ACBA",
"y. c #00C1A0",
"u. c #00D5A0",
"i. c #00E6B7",
"p. c #0088DA",
"a. c #009ADE",
"s. c #00B7C6",
"d. c #00BDC5",
"f. c #00C0C7",
"g. c #00CCCE",
"h. c #00D3CC",
"j. c #00C7D2",
"k. c #00CBD2",
"l. c #00C7DB",
"z. c #00D2D7",
"x. c #00CFE4",
"c. c #E3DB8E",
"v. c #FFF389",
/* pixels */
"+ + + + + + + + + + + + + + + + + + + + + + + + + + + + + + + + + + + + + + + + + + + + + + + + + + + + + + w + + + + + + + + + ",
"+ + + + + + + + + + + + + + + + + + + + + + + + + + + + + + + + + + + + + + + + + + Z + + + + + + + + + + + + + + + + + + + + + ",
"+ + + + + + + + + + + + + + + + + + + + + + + + + + + + + + + + + + + + C + + + + + + + + + + + + + + + + + + + + + + + + q + + ",
"+ + + + + + + + + + + + u + + + + + + + + + + + + + + + + + + + + + + + + + + + + + + + + + + + + + + + + + + + + + + + q k q + ",
"+ + + + + + + + + q + u E u + + + + + + + + + + + + + + + + + + + + + + + + + + + + + + + + + + + + + + + + + + + q + q k a.k q ",
"+ + + + + + + + + + + + u + + + + + + + + V + + + + + + + + + + + + + + + + + + + + + + + B + + + + + + + V + + + + + + q k q + ",
"+ + + + + + + + + + + + + + + 0 + + + + + + + + + + + + + + + + + + + + + + + + + + + + B W V + + + + + + + + + + + + + + q + + ",
"+ + + + + + + + + + Z + + + + + + + + + + + + + + + Z + + + + + + + + + + + + + + + + + + V + + + + + + + + + + + + Z + + + + + ",
"+ + + + + + + + + + + + + + + + + + + + + + + + + + + + + + + + + + + + + + u + + + + + + + + + + + + + + + + + + + + + + + + + ",
"+ + + + + + + + + + + + + + + + + + + + + + + + + + + + + + + + + + + + + u i q + + + + + + + + + + + + + + + + + + + + + + + + ",
"+ + + + + + + + + + + + + + + + + + + + + + + + + + + + + + + + Z + + + + + q + + + + + + + + + + + + + + + + + + + + + + + + + ",
"+ + 6.+ + + + q + + + + + + + + + + + + + + + q + + w + + + + + + + + + + + + + + + + + + + + + + + 6.+ + + + q + + w + + + + + ",
"+ + + + + + + + + + + + + Z + + + + + + + + + + 7 5 5 5 5 Z + + + + + + + + + + + + + + B + + + + + + + + + + + + w 6.w + Z + + ",
"+ + + + + + + + + + + + + + + + + + + + + + r 5 N ] 5 5 t 5 5 + + + + + + + + + + + + + + + + + + + + + + + + + + + w + + + + + ",
"+ + + + + Z + + + + + + + + + + + + + + B r 5 N N N ] ] ] p.p.5 + + + + + + + + + + + + + + + + + + + + + Z + + + + + + + + + + ",
"+ + + + + + + + + + + + + + + + + + + + 7 5 5 N N ] ] ] p.] p.p.5 + + + + + + + + + + + + + + + + + + + + + + + + + + + + + + + ",
"+ + + + + + + + + + u + + + + + + + + 5 1 # < N N N N ] ] p.] ] > h + + + + + + + + + + + + + + + + + + + + + + + + + + + + + + ",
"+ + + + + + + + + + + + + + + + + + + - 6 5 5 5 N N N ] ] ] ] ] ] 7 + + + + + + + + + + + + + + + + + + + + + + + i + + + + + + ",
"+ + + + + + + + q + + + + + + Z + + n ;.5 5 5 5 N N N N ] ] ] ] ] 9 > + + + + + + + + + + + + Z + + + + + + + + + + + + + + + Z ",
"+ + B + + + + + + + + + + + + + + + 5 n 5 5 5 N N N N N N N N ] N N t + + + + + + + + + + + + + + + B + + + + + + + + + q + + + ",
"+ B Z B + + + + + + + + + + + + + + < f 5 7 4 7 N N N N N N N N N N 5 B + + + + + + + + + + + + + + + + + + + + + + + q k q + + ",
"+ + B + + + + + + + + + + + + + + + 5 z 5 5 5 3 N N N N N N N N N 7 b + + + + + + + + + + + + + + + + + + + + + + + q k a.k q + ",
"+ + + + + + + + + + + + + + + + + + 5 ;.=.5 5 5 5 N N N N N N N 5 3 + + + + + + + 5 k.5 y + + + + + + + + + + + + + + q k q + + ",
"+ + + + + + + + + + + + + + + + + + n 7 ;.-.5 5 5 5 5 5 N N 3 6 3 ;.-.5 + + + 5 g.2.2.2.5 w + + + + + + + + + + + + + + q + + + ",
"+ + + + + + + + + + + + + + + + + + + 5 c ;.5 5 5 5 5 5 3 3 5 3 * -.4 :.5 5 g.7.;.2.f l   a.w + + + + + + + w + + + + + + + + + ",
"+ + + + + + + u + + + + + + + + + + q + e 5 ;.5 5 5 7 5 5 5 5 5 ;.;.c.3.5 g.2.;.f f 3 8 p w + + + + + + + + + + + + + + + + + + ",
"+ + + + + + + + + + + + + + + + + + + + % < ;.;.5 5 5 3 , 5 5 5.s z.g.y.-.-.2.z 3 < U + + + + + + + + + + + + + + + + + + + + + ",
"+ + + + + + + + + + + w + + + + + + + 5 3.7 5 -.:.5 5 :.:.:.4.=.g.g.g.l.~ d :.7   + + + + + + + + + + + + + + + + + + w + + + + ",
"+ + + + + + + + + + + + + + + + + + + 5 -.5 d 6 ;.;.;.5 :.:.k.g.g.O.d.g.h._ /   + + + + + + + + + + + + + 0 + + + + + + + + + + ",
"+ + + + + + + + + + + + + 0 + + + + + $.j L ;.-.;.:.J F 5 k.g.0.t.g.g.0.#.    + + + + + + 0 + + + + + + + + + + + + + + + 0 + + ",
"+ + + + + + 0 + + + + + + + + + + + + 5 3 2.;.;.s ;.;.s 2.%.#.g.h.k. .:.j.g.q + + + + + + + + + + + + + + + 0 + + + + + + + + + ",
"+ + + + + + + + + + + + + + + + + + 5 3 ;.;.;.f ; ; ;.P 3 - g.[ O.<.g.g.; e.^ + + + + + + + + + w + + + + + + + + + + + + + + + ",
"+ w + + + + + + + + + + + + + + + + 5 H ;.;.f 3 5 3 ;.;.3 9 2 -. .g.g.g.| g.x.5 + + + + + + + + + + + + + + + + + + + + + + + + ",
"+ + + + + + + + + + + + + + + + + + ^ 3.*.f f 5 5 5 2.;.=.=.5 k.g.g.g.g.g.T 7 $.~ 5 5 + + + + + + + + + + + + + + + + + w + + + ",
"+ + + + + + + + + + + + + w + + + 5 J 2.;.< 5 5 5 5 j c z v } K Y 8.g.q.m S #.h.k.g.` 5 + + + + + + + + + + + + + + + w 6.w + + ",
"+ + + + + + + + + q + + + + + + + v.2.;.5 5 5  .g.7 5 < 5 s 3 3 s.@.< -.*.;.;.;.{ g.g./ 5 + + w + + + + + + + + + + + + w + + + ",
"+ + + + + q + + q k q + + + + + 5 4 ;.2.7 5 g.;.g.) 5 3 ;.;.5 3 3 1.;.;.;.;.;.;.| g.g.+ i.5 5 + + + + + + q + + + + + + + + + + ",
"+ + + + + + + q k a.k q + + + 5 . $.;.v 5 $ g.7.7.;.5 5 +.=.;.2.<.g.g.g.6 g &.2.,.#.D g.g.( = 5 + + + + + + + + + + + + + + + + ",
"+ + + + + + + + q k q + + + + ^ :.;.3 3 8 3 5 9.;.g.' 5 5 < 5 ;.;.g.g.g.,.5 5 5 :.:.;.@.g.g.u.! 5 o + + + + + + u + + + + + + + ",
"+ + w + + + + + + q + + + + + 5 ;.;.=.5 + + 5 k.-.7.g.< 5 P L ;.<. . .g.s.>.5 R =.7 *.@.w.g.g.f.5 @ w + + + + u i u + + + + + + ",
"+ w 6.w + + u + + + + + + + + + ; ; 5 + + + + X 7.7.-./ 5 +.;.;...g.g.g.k.;.) 5 5 5 5 =.;.#.-.5 + w 6.w + + u i Q i u + + + + + ",
"+ + w + + + + + + + + + w + + + + 4 + + + + + + 5 g.7.a 5 5 3 *.@.j.g.j.3 + + 0 + + + 5 5 , 5 0 + + w + + + + u i u + + w + + + ",
"+ + + + + + + + u + + + + + + + + + + + + + + + & 5 ;.=.5 5 3 ;.#.-.g.g./ + + + + + k + + + + + + + + + + + + + u + + + + + + + ",
"+ + + + 0 + + + + + + + + + + + + + k + + + + + + t < 5 0 O 5 ;.;.2.g.g.5 + + + + + + + + + + + + + + + 0 + + + + + + + + + + + ",
"+ + + 0 Z 0 + + + + + + + + + + + + + + + + + + + + + + + + 6 F ;.M I x 5 0 + + + + + + + + + + + + + 0 Z 0 + + + + + + + + + + ",
"+ + + + 0 + + + + + + + + + + + + + + + + + k + + + + + + + : 5 G #.k.r.5 + + + + + + + + + + + + + + + 0 + + + + + + + q + + + ",
"+ + + + + + + + + w + + + + + + + + + + + + + + + + + V + + + 3 =.#.g.r.5 + + + + + + + q + + + + + + + + + + + + w + + + + + + ",
"+ + + + + + + + w 6.w + + + + + + + + + + + + + @ + + + + + + 5 ;.X.g.9.5 + + + + + + + + + + + + + + + + + + + w 6.w + + + + + ",
"+ + + + + + + + + w + + + + + + + + + + + + + + + + + + + + + . -.9.t.:.5 + + + + + + + + + + + + + + + + + + + + w + + + + + + ",
"+ + + + 0 + + + + + + + + + + + + + + + + Z + + + + + + + + + 7 -.g.g.-.5 + + + + + + + + + + + + + + + + + + + + + + + + + + + ",
"+ + + 0 u 0 + + + + + + + + + + + + + + + + + + + + + C + + + 5 #.g.g.R 5 + + + + + + + + + + + + + + + + + + + + + + + + + + + ",
"+ + 0 u E u 0 + + + + + + + + + + + + + + + + + + + + + + + + 5 o.7.A 5 + + + + + + + + + + + + + + + + + + + + + + + + + + + + ",
"+ 0 u E Q E u 0 + + + + + + + + + + + + + + + + + + + + + + + + 5 5 5 + + + + + + + + + + + + + + + + + + + + + + + + + + + + + ",
"+ + 0 u E u 0 + + + V + + + + + + + B + + + + + + + + + + + + + + + + + + + + + + + V + + + + + + + + + + + + + + + V + + + + + ",
"+ + + 0 u 0 + + + + + + + + + + + V W B + + + + + + + + + + + + + + + + + + + + + + + + + + + + + + + + + + + + + + + + + + + + ",
"+ Z + + 0 + + + + + + + + + + + + + V + + + + + + + + + + + + + + + + + + Z + + + + + + + + + + + + + + + Z + + + + + + + + + + ",
"+ + + + + + + + + + + + + + + + + + + + + + + + + u + + + + + q + + + + + + + + + + + + + + + + + + + + + + + + + + + + + + + + ",
"+ + + + + + + + + + + + + + + + + + + + + + + + q i u + + + q k q + + + + + + + + + + + + + + + + + + + + + + + + + + + + + + + ",
"+ + + + + + + + + + + + + q + + + + + + + + + + + q + + + q k a.k q + + + + + + + + + + + + + + + + + + + + + + + + + + + + + + ",
"+ + + + + w + + q + + + q 6.q + + + B + + + + + + + + + + + q k q + + + + + + + q + + + + + + + + + + + + w + + q + + + + + + + ",
"+ + Z + w 6.w + + + + + + q + + + B Z B + + + + + + + + + + + q + + Z + + + + + + + + + + + + + + + + + w 6.w + + + + + + + V + ",
"+ + + + + w + + + + + + + + + + + + B + + + + + + + + + + + + + + + + + + w + + + + + + + + + + + + + + + w + + + + + + + + + + ",
"+ + + + + + + + + + Z + + + + + + + + + + + + + + + + + + + + + + + + + + + + + + + Z + + + + + + + + + + + + + + + Z + + + + + ",
"+ + + + + + + + + + + + + + + + + + + + + + + + + + + + + + + + + + + + + + + + + + + + + + + + + + + + + + + + + + + + + + + + "
};
