/* XPM */
static char * exit_stat_open_xpm[] = {
"64 64 214 2",
"  	c #120418",
". 	c #464D4F",
"+ 	c #536265",
"@ 	c #889C9E",
"# 	c #62797E",
"$ 	c #383F40",
"% 	c #241A29",
"& 	c #143151",
"* 	c #382B2F",
"= 	c #141413",
"- 	c #292A28",
"; 	c #334043",
"> 	c #242A2B",
", 	c #191B1D",
"' 	c #000000",
") 	c #90230B",
"! 	c #8F230B",
"~ 	c #9F2807",
"{ 	c #9B2708",
"] 	c #4BBC1C",
"^ 	c #50CC1E",
"/ 	c #44AF1E",
"( 	c #28412A",
"_ 	c #3D9525",
": 	c #1D3F14",
"< 	c #193214",
"[ 	c #4CC11D",
"} 	c #317C17",
"| 	c #338218",
"1 	c #1A2A14",
"2 	c #224F15",
"3 	c #273E2B",
"4 	c #4B3F38",
"5 	c #2B6915",
"6 	c #347428",
"7 	c #334143",
"8 	c #3A9518",
"9 	c #399419",
"0 	c #41A51A",
"a 	c #4DC51D",
"b 	c #2D7116",
"c 	c #96250A",
"d 	c #91240B",
"e 	c #44A823",
"f 	c #38653F",
"g 	c #344642",
"h 	c #204814",
"i 	c #182A13",
"j 	c #2B6916",
"k 	c #317D17",
"l 	c #43AB1B",
"m 	c #2B6A16",
"n 	c #344942",
"o 	c #2C532A",
"p 	c #26362B",
"q 	c #4ABC1C",
"r 	c #3A6F3E",
"s 	c #3D9A19",
"t 	c #2F7617",
"u 	c #4EC61D",
"v 	c #192D14",
"w 	c #47A830",
"x 	c #276015",
"y 	c #306629",
"z 	c #355241",
"A 	c #2D7316",
"B 	c #4DC41D",
"C 	c #45B11B",
"D 	c #3FA11B",
"E 	c #273B2B",
"F 	c #376040",
"G 	c #68386C",
"H 	c #1B3F14",
"I 	c #4DC31E",
"J 	c #307B17",
"K 	c #182D13",
"L 	c #172813",
"M 	c #378027",
"N 	c #368818",
"O 	c #354D42",
"P 	c #4A2745",
"Q 	c #348318",
"R 	c #3FA019",
"S 	c #275F16",
"T 	c #225015",
"U 	c #25362B",
"V 	c #1E4314",
"W 	c #627C7D",
"X 	c #43AC1B",
"Y 	c #618379",
"Z 	c #49BA1B",
"` 	c #2A6916",
" .	c #42AB1B",
"..	c #1B3514",
"+.	c #46B31C",
"@.	c #409A25",
"#.	c #3E9D1A",
"$.	c #617E7C",
"%.	c #617D7C",
"&.	c #9C8D0E",
"*.	c #A7970B",
"=.	c #A8980B",
"-.	c #9F900D",
";.	c #348218",
">.	c #4ABB1D",
",.	c #4FCA1E",
"'.	c #40A21A",
").	c #1E3D14",
"!.	c #4CBD21",
"~.	c #4EC324",
"{.	c #344842",
"].	c #204A14",
"^.	c #235315",
"/.	c #42A81B",
"(.	c #44AF1B",
"_.	c #2D7016",
":.	c #192F13",
"<.	c #337F17",
"[.	c #48B91C",
"}.	c #368A18",
"|.	c #1C3A14",
"1.	c #214B15",
"2.	c #317D18",
"3.	c #3A9519",
"4.	c #162813",
"5.	c #3A8627",
"6.	c #355341",
"7.	c #365741",
"8.	c #408E37",
"9.	c #378918",
"0.	c #252E2B",
"a.	c #275F15",
"b.	c #286316",
"c.	c #61817A",
"d.	c #317917",
"e.	c #192D13",
"f.	c #37851E",
"g.	c #2D5B29",
"h.	c #28442A",
"i.	c #151C13",
"j.	c #389219",
"k.	c #48B71D",
"l.	c #348117",
"m.	c #235515",
"n.	c #378D19",
"o.	c #337128",
"p.	c #25302B",
"q.	c #286015",
"r.	c #2E6C1D",
"s.	c #1A3414",
"t.	c #44AB1B",
"u.	c #47B31C",
"v.	c #235015",
"w.	c #3FA31A",
"x.	c #377F27",
"y.	c #3A9219",
"z.	c #2C6E16",
"A.	c #429735",
"B.	c #321F3C",
"C.	c #327B1D",
"D.	c #4EC81E",
"E.	c #3B9619",
"F.	c #46B41B",
"G.	c #42A91B",
"H.	c #419C25",
"I.	c #3C8D26",
"J.	c #245315",
"K.	c #3C9A19",
"L.	c #204B14",
"M.	c #334443",
"N.	c #2B6C16",
"O.	c #617F7B",
"P.	c #5D976C",
"Q.	c #41A41A",
"R.	c #214C14",
"S.	c #4EC71D",
"T.	c #358518",
"U.	c #193113",
"V.	c #4CC31D",
"W.	c #358818",
"X.	c #627B7D",
"Y.	c #214D14",
"Z.	c #3B9318",
"`.	c #45B01B",
" +	c #378C18",
".+	c #317F17",
"++	c #265915",
"@+	c #44AF1C",
"#+	c #3E843A",
"$+	c #3E9F1A",
"%+	c #4DC61D",
"&+	c #49BB1C",
"*+	c #4DC41E",
"=+	c #3A8727",
"-+	c #2B532A",
";+	c #214615",
">+	c #4FC81E",
",+	c #261627",
"'+	c #441A2A",
")+	c #5A3359",
"!+	c #866D0E",
"~+	c #D0B702",
"{+	c #BC240D",
"]+	c #5B1A10",
"^+	c #A22633",
"/+	c #971B12",
"(+	c #F6757A",
"_+	c #1C1C1B",
":+	c #4E2D55",
"<+	c #804075",
"[+	c #59202F",
"}+	c #574310",
"|+	c #0099DB",
"1+	c #B55088",
"    . . + @ @ @ @ @ @ @ @ # # @ # # # # # # # # # # # # # . . . . . . + + # # # # # # # # + # # + + + + + + + + + + + . . .     ",
"    . . + @ @ @ @ @ @ @ @ # # @ # # # # # # # # # # # # # . . . . . . + + # # # # # # # # + # # + + + + + + + + + + + . . .     ",
"    + + @ . . . . . . . . . . . . . . . . . . . . . . . . . . . . . . . . . . . . . . . . . . . . . . . . . . . . . . . . .     ",
"    @ @ . # # . . . . . . . . . . . . . . . . . . . . . . . . . . . . . . . . . . . . . . . . . . . . . . . . . . # # . $ $ %   ",
"    @ @ . # # . . . . . . . . . . . . . . . . . . . . . . . . . . . . . . . . . . . . . . . . . . . . . . . . . . # # . $ $ & % ",
"    @ @ * . . . $ $ * * * * * * * * * * * * * * $ $ * $ $ * $ $ $ $ $ $ $ $ $ $ $ . . $ $ . $ $ . . . . . . . . * . . . $ $ %   ",
"    @ @ . . . $ = = = = = = = = = = = = = = = = = = = = = = = = = = = = = = = = = = = = = = = = = = = = = = - - . . . . $ $     ",
"    @ @ . . . $ = = = = = = = = = = = = = = = = = = = = = = = = = = = = = = = = = = = = = = = = = = = = = = - - . . . . $ $     ",
"    @ @ . . . * = = # # ; > > > > > > > > , , > , , , , , , = = , , = , , = = = = = = = = = = = , = = = = = = = + . . . $ $     ",
"    @ @ . . . * = = ; ; > , , , , , , , , , , , , , = , , = , , = = = = = = = = = = = = = = , , = = = = = = = = + . . . $ $     ",
"    @ @ . . . * = = ; ; > , , , , , , , , , , , , , = , , = , , = = = = = = = = = = = = = = , , = = = = = = = = + . . . $ $     ",
"    # # . . . * = = > > , , , , , , , , , = = , = = , = = = = = = = = = = = = = = , , = = = > > = = = = = = ' ' + . . . * *     ",
") ! # # . . . * = = > > , , , , , , , , , = = , = = , = = = = = = = = = = = = = = , , = = = > > = = = = = = ' ' + . . . * *     ",
"~ { @ @ . . . * = = > > , , , , = = , = ] ^ ^ ^ ^ / , ( _ : = = < [ } = ] | 1 ^ ^ ^ ^ ^ ^ 2 3 > = = = = = = = = + . . * 4 4     ",
"    # # . . . * = = > > , , , = , , = = ] | = = = = = = 5 6 7 ; 8 9 = = 0 | = = , = a b = ; = = = = = = = = ' ' + . . $ . .     ",
"c d # # . . . * = = > > , , , = , , = = ] | = = = = = = = e f g h i = = j k = = , = a b = ; = = = = = = = = ' ' + . . $ . .     ",
"c d # # . . . * = = , , , = = , = = = = ] | = = = = = = = : l m n ; = > o p > > = = q r ; ; = = = = = = = = ' ' # . . . + +     ",
"    # # . . . * = = > > , , , = = = = = ] ^ ^ ^ ^ s = = = = t u v = ; ; w x , , > > y z ; = = = = = = , = = ' ' + . . . $ $     ",
"    # # . . . * = = > > , , , = = = = = ] | = = = = = = = A B C D = ; ; r | , , > > E F ; = = = = = = , = = ' ' + . . . $ $   G ",
"    # # . . . * = = , , , = = = = = = = ] | = = = = = = H I J h u K > = L M = = = = N O ; = = = ; > > = = = ' ' # . . . $ $     ",
"  P # # . . . * = = , , = = = = = = = = ] | = = = = = = Q R , , S T U = V W , , = = X Y # ; ; ; = = = = = = ' ' # . . . $ $     ",
"    # # . . . * = = , , = = = = = = = = ] ^ ^ ^ ^ Z = `  ..., , = +.@.= #.$., , = = | %.# ; ; ; = = = = = = ' ' # . . . $ $ %   ",
"    # # . . . $ = = = = , = = = = = = = = = = = = = , , , = = = > > = = = , # # , # # ; ; > = = = = = = = = ' ' # . . . $ $     ",
"    # # . . . $ = = = = , = = = = = = = = = = = = = , , , = = = > > = = = , # # , # # ; ; > = = = = = = = = ' ' # . . . $ $     ",
"&.*.# # . . . * = = , , = = = = = = = = = = = = = = = = = , , , > > , = = = > > > ; ; = = > = = = = = = = = ' ' # . . . $ $     ",
"&.*.+ + . . . $ = = = = , = = = = = = = = = = = = = = = = = = = > > = , , # > > > , , = = > = = = = = = = = ' ' # . . . $ $     ",
"    + + . . . $ = = = = , = = = = = = = = = = = = = = = = = = = > > = , , # > > > , , = = > = = = = = = = = ' ' # . . . $ $     ",
"=.=.# # . . . $ = = , , = = = = = = = = = = = = = = = = = = = = ; ; ; # # = ; ; , # # = = > = = = = = = = = ' ' # . . . $ $     ",
"-.-.+ + . . . $ = = = = = = = = = = ;.>.,.B '.).= = !.^ ~.F {.7 = ].p ^./.^ (.= ; _.:.# # = <.[.= = = = = = ' ' # . . . * *     ",
"    + + . . . $ = = = = = = = = = }.u <.|.1.2.3.4.= 5.6.; 7 7.8.= 9.0.= = = = = ; a.b.c.# = d.[.= = = = = = ' ' # . . . * *     ",
"    + + . . . $ = = , , = = = = e.u f., , > 0.g.h.> :.i.= = j.k.= l.m.> > > , , ; #.n.o.p.; q.[.= = = = = = ' ' @ . . . $ $     ",
"    + + . . . $ = = = = = , , , r.^ s.= = = = '.t.= u.| = v.[.w.= ] | = = = > > # !.x.y.z.= {.A.= = = = = = ' ' # . . . * *     ",
"  B.+ + . . . $ = = = = = , , , C.D.= = = = = E.F.= ] ^ ^ a G.: = ] ^ ^ ^ ^ H.> # I.x.J.K.L.7.M.= = = = = = ' ' # . . . * *     ",
"    + + . . . . = = = = = = = = N.^ s.= = = = '.t.= ] | = = = = = ] | = = = = = > O.P.= '.Q.<.R.> = = = = = ' ' @ . . . * *     ",
"    + + . . . . = = = = = = = = e.S.T.= = = U.V.W.= ] | = = = = = ] | = = = = = > W X.= Y.D.Z.`.> = = = = = ' ' @ . . . * *     ",
"    + + . . . $ = = = = = = = = =  +u .+|.++@+>.1 = ] | = = = = = ] | = = = = = = #+7 = = $+%+[.= > > = = = ' ' # . . . * *     ",
"    + + . . . . = = = = = = = = = = | &+,.*+Q.: = = ] | = = = = = ] ^ ^ ^ ^ Z = = =+-+= = ;+>+[.= = = , = = ' ' @ . . . * *     ",
"    + + . . . . = = = = = = = = = = = = = = = = = = = = = = = = = = = = = = = = = > > = = = = = = = = , = = ' ' @ . . . * *     ",
"    + + . . . . = = = = = = = = = = = = = = = = = = = = = = = = = = = = = = = = = > > = = = = = = = = = = = ' ' @ . . . * *     ",
"    + + . . . . = = = = = = = = = = = = = = = = = = = = = = = = = = = = = = = = = , , = = = = = = = = = = = ' ' @ . . . * *     ",
"  B.+ + . . . . = = = = = = = = = = = = = = = = = = = = = = = = = = = = = = = = = , , = = = = = = = = = = = ' ' @ . . . * *     ",
"    + + . . . . = = = = = = = = = = = = = = = = = = = = = = = = = = = = = = = = = = = = = = = = = = = = ' ' ' ' @ . . . * *     ",
"    + + . . . . - - = = = = = = = = ' = = ' ' ' ' ' ' ' ' ' ' ' ' ' ' ' ' ' ' ' ' ' ' ' ' ' ' ' ' ' ' ' ' ' - - # . . . * *     ",
"    + + . . . . - - = = = = = = = = ' = = ' ' ' ' ' ' ' ' ' ' ' ' ' ' ' ' ' ' ' ' ' ' ' ' ' ' ' ' ' ' ' ' ' - - # . . . * *     ",
"    + + . . . . . . . . + . . + . . + + + + + + + + + + + + + + + + # + + # # # # # # # # # @ @ @ @ @ @ @ @ # # . . . . * *     ",
"    + + . . . . . . . . + . . + . . + + + + + + + + + + + + + + + + # + + # # # # # # # # # @ @ @ @ @ @ @ @ # # . . . . * *     ",
"    + + . # # . . . . . . . . . . . . . . . . . . . . . . . . . . . . . . . . . . . . . . . . . . . . . . . . . . # # . * *     ",
"    . . * . . . . . . . . . . . . . . . . . . . . . . . . . . . . . . . . . . . . . . . . . . . . . . . . . . . * . . * $ $     ",
"    . . * . . . . . . . . . . . . . . . . . . . . . . . . . . . . . . . . . . . . . . . . . . . . . . . . . . . * . . * $ $     ",
"    . . . $ $ $ $ $ $ $ $ $ $ $ $ $ $ $ $ * * $ * * $ * * * * * * * * * * * * * * * * * * * * * * * * * * * * * * * * $ . .     ",
"      ,+'+,+                                          )+                  !+            ~+    {+      ]+  ]+                    ",
"    ,+'+^+'+,+                                                          !+~+  ~+!+      ~+      {+/+{+    {+                    ",
"  ,+'+^+(+^+'+,+                                                        ~+        - _+                    {+                    ",
"    ,+'+^+'+,+      :+              P                                 ~+~+          :+!+                {+]+        :+          ",
"      ,+'+,+                      :+<+P                               ~+                              ~+]+                      ",
"  G     ,+                          :+                                ~+  G                               G                     ",
"                                                  '+          %   ~+!+~+                                                        ",
"                                                % [+'+      % !+!+}+!+                                                          ",
"                          %                       %       % & |+& }+                                                            ",
"          B.    %       % 1+%       P                       % & %               %                         B.    %               ",
"    G   B.1+B.            %       P G P                       %     G                                   B.1+B.              :+  ",
"          B.                        P                                     B.                              B.                    ",
"                    G                                                               G                               G           ",
"                                                                                                                                "};
