/* XPM */
static char * exit_stat_closed_xpm[] = {
"64 64 217 2",
"  	c #120418",
". 	c #464D4F",
"+ 	c #536265",
"@ 	c #889C9E",
"# 	c #62797E",
"$ 	c #383F40",
"% 	c #241A29",
"& 	c #143151",
"* 	c #382B2F",
"= 	c #141413",
"- 	c #292A28",
"; 	c #334043",
"> 	c #242A2B",
", 	c #191B1D",
"' 	c #000000",
") 	c #90230B",
"! 	c #8F230B",
"~ 	c #9F2807",
"{ 	c #9B2708",
"] 	c #4B3F38",
"^ 	c #A42A04",
"/ 	c #B22D00",
"( 	c #992706",
"_ 	c #2C1612",
": 	c #A82B03",
"< 	c #621C0F",
"[ 	c #423F41",
"} 	c #6B1E0E",
"| 	c #701F0D",
"1 	c #2A1413",
"2 	c #982706",
"3 	c #613C3B",
"4 	c #96250A",
"5 	c #91240B",
"6 	c #651E0F",
"7 	c #AB2B02",
"8 	c #3C2A29",
"9 	c #493F40",
"0 	c #451811",
"a 	c #AC2C02",
"b 	c #621D0F",
"c 	c #922608",
"d 	c #912608",
"e 	c #661D0F",
"f 	c #80220B",
"g 	c #354043",
"h 	c #412A29",
"i 	c #392A2A",
"j 	c #611D0F",
"k 	c #371612",
"l 	c #AD2C01",
"m 	c #443F41",
"n 	c #3E3F42",
"o 	c #402A29",
"p 	c #3E2A29",
"q 	c #87240A",
"r 	c #972707",
"s 	c #301512",
"t 	c #6A3C39",
"u 	c #463F41",
"v 	c #532A27",
"w 	c #68386C",
"x 	c #691E0E",
"y 	c #AB2C04",
"z 	c #922508",
"A 	c #87230A",
"B 	c #902508",
"C 	c #4A2745",
"D 	c #361612",
"E 	c #341C1C",
"F 	c #4B1E1A",
"G 	c #471911",
"H 	c #932608",
"I 	c #5A2019",
"J 	c #5F1C0F",
"K 	c #1D1413",
"L 	c #421811",
"M 	c #A32A04",
"N 	c #5C2019",
"O 	c #7D2414",
"P 	c #321C1C",
"Q 	c #6B2B23",
"R 	c #4C2A28",
"S 	c #A64439",
"T 	c #6C7579",
"U 	c #9C8D0E",
"V 	c #A7970B",
"W 	c #A8980B",
"X 	c #9F900D",
"Y 	c #1E1513",
"Z 	c #85230B",
"` 	c #B02C01",
" .	c #491911",
"..	c #5C1B10",
"+.	c #5C2B26",
"@.	c #4C3E40",
"#.	c #513E3F",
"$.	c #413F41",
"%.	c #5C1C10",
"&.	c #512A27",
"*.	c #6A1E0E",
"=.	c #982707",
"-.	c #7E3932",
";.	c #8C2509",
">.	c #7A6D70",
",.	c #757073",
"'.	c #4E1911",
").	c #B12D00",
"!.	c #AA2B02",
"~.	c #962807",
"{.	c #571B10",
"].	c #92280E",
"^.	c #A02909",
"/.	c #591C10",
"(.	c #2E1612",
"_.	c #521A10",
":.	c #922708",
"<.	c #632118",
"[.	c #371D1C",
"}.	c #522A27",
"|.	c #4B2A28",
"1.	c #301612",
"2.	c #2E1512",
"3.	c #6D1F0E",
"4.	c #A92B02",
"5.	c #551A10",
"6.	c #451911",
"7.	c #AF2C01",
"8.	c #4C1911",
"9.	c #262A2B",
"0.	c #2E2A2A",
"a.	c #752B21",
"b.	c #633C3B",
"c.	c #3E1712",
"d.	c #211513",
"e.	c #84230A",
"f.	c #4C1A11",
"g.	c #B02D01",
"h.	c #441811",
"i.	c #952707",
"j.	c #481911",
"k.	c #4A1811",
"l.	c #411812",
"m.	c #7A220C",
"n.	c #A12A04",
"o.	c #5A1C10",
"p.	c #A82C03",
"q.	c #717276",
"r.	c #6F3B38",
"s.	c #902608",
"t.	c #321F3C",
"u.	c #6E1E0E",
"v.	c #1C1613",
"w.	c #982806",
"x.	c #9C2806",
"y.	c #7F220B",
"z.	c #747174",
"A.	c #712B22",
"B.	c #473F41",
"C.	c #2F1612",
"D.	c #76200D",
"E.	c #A12904",
"F.	c #6F1E0E",
"G.	c #4F1911",
"H.	c #741F0D",
"I.	c #A12905",
"J.	c #281613",
"K.	c #912C18",
"L.	c #64787D",
"M.	c #332A2A",
"N.	c #77200D",
"O.	c #421812",
"P.	c #7B210C",
"Q.	c #A52A03",
"R.	c #882C1B",
"S.	c #65787D",
"T.	c #362A2A",
"U.	c #932607",
"V.	c #942507",
"W.	c #9F2905",
"X.	c #2B1612",
"Y.	c #942607",
"Z.	c #9E2905",
"`.	c #8B2409",
" +	c #3F3F42",
".+	c #2B2A2B",
"++	c #541A10",
"@+	c #221513",
"#+	c #85230A",
"$+	c #721F0D",
"%+	c #331712",
"&+	c #89250A",
"*+	c #6E1F0E",
"=+	c #7A200C",
"-+	c #A62903",
";+	c #602B25",
">+	c #3D2A29",
",+	c #611C0F",
"'+	c #631D0F",
")+	c #361C1C",
"!+	c #261627",
"~+	c #441A2A",
"{+	c #5A3359",
"]+	c #866D0E",
"^+	c #D0B702",
"/+	c #BC240D",
"(+	c #5B1A10",
"_+	c #A22633",
":+	c #971B12",
"<+	c #F6757A",
"[+	c #1C1C1B",
"}+	c #4E2D55",
"|+	c #804075",
"1+	c #59202F",
"2+	c #574310",
"3+	c #0099DB",
"4+	c #B55088",
"    . . + @ @ @ @ @ @ @ @ # # @ # # # # # # # # # # # # # . . . . . . + + # # # # # # # # + # # + + + + + + + + + + + . . .     ",
"    . . + @ @ @ @ @ @ @ @ # # @ # # # # # # # # # # # # # . . . . . . + + # # # # # # # # + # # + + + + + + + + + + + . . .     ",
"    + + @ . . . . . . . . . . . . . . . . . . . . . . . . . . . . . . . . . . . . . . . . . . . . . . . . . . . . . . . . .     ",
"    @ @ . # # . . . . . . . . . . . . . . . . . . . . . . . . . . . . . . . . . . . . . . . . . . . . . . . . . . # # . $ $ %   ",
"    @ @ . # # . . . . . . . . . . . . . . . . . . . . . . . . . . . . . . . . . . . . . . . . . . . . . . . . . . # # . $ $ & % ",
"    @ @ * . . . $ $ * * * * * * * * * * * * * * $ $ * $ $ * $ $ $ $ $ $ $ $ $ $ $ . . $ $ . $ $ . . . . . . . . * . . . $ $ %   ",
"    @ @ . . . $ = = = = = = = = = = = = = = = = = = = = = = = = = = = = = = = = = = = = = = = = = = = = = = - - . . . . $ $     ",
"    @ @ . . . $ = = = = = = = = = = = = = = = = = = = = = = = = = = = = = = = = = = = = = = = = = = = = = = - - . . . . $ $     ",
"    @ @ . . . * = = # # ; > > > > > > > > , , > , , , , , , = = , , = , , = = = = = = = = = = = , = = = = = = = + . . . $ $     ",
"    @ @ . . . * = = ; ; > , , , , , , , , , , , , , = , , = , , = = = = = = = = = = = = = = , , = = = = = = = = + . . . $ $     ",
"    @ @ . . . * = = ; ; > , , , , , , , , , , , , , = , , = , , = = = = = = = = = = = = = = , , = = = = = = = = + . . . $ $     ",
"    # # . . . * = = > > , , , , , , , , , = = , = = , = = = = = = = = = = = = = = , , = = = > > = = = = = = ' ' + . . . * *     ",
") ! # # . . . * = = > > , , , , , , , , , = = , = = , = = = = = = = = = = = = = = , , = = = > > = = = = = = ' ' + . . . * *     ",
"~ { @ @ . . . * = = > > , , , , = = , = = , , = , , , > > = = = = = = = = = = = = , , = = = > > = = = = = = = = + . . * ] ]     ",
"    # # . . . * = = > > , , , = , , = ^ / / / / ( = _ : < > ; [ : } = ^ | 1 / / / / / / 2 3 = = = = = = = = ' ' + . . $ . .     ",
"4 5 # # . . . * = = > > , , , = , , = ^ | = = = = = = 6 7 8 ; 9 0 = = ^ } = = = , a b = = ; = = = = = = = = ' ' + . . $ . .     ",
"4 5 # # . . . * = = , , , = = , = = = ^ | = = = = = = = c d e f g ; = h i > > > = ^ j ; ; ; = = = = = = = = ' ' # . . . + +     ",
"    # # . . . * = = > > , , , = = = = ^ | = = = = = = = k 7 l } = = ; m n = , , > o p ; ; = = = = = = , = = ' ' + . . . $ $     ",
"    # # . . . * = = > > , , , = = = = ^ / / / / q = = = = r l s = = ; t u = , , > v 8 ; ; = = = = = = , = = ' ' + . . . $ $   w ",
"    # # . . . * = = , , , = = = = = = ^ | = = = = = = = x y z A = = > B < > = = = a b ; ; = = = ; > > = = = ' ' # . . . $ $     ",
"  C # # . . . * = = , , = = = = = = = ^ | = = = = = = D 7 } E F G = > ^ | # , , = a b # # ; ; ; = = = = = = ' ' # . . . $ $     ",
"    # # . . . * = = , , = = = = = = = ^ | = = = = = = c H = , I J K > ^ | # , , = a L # # ; ; ; = = = = = = ' ' # . . . $ $ %   ",
"    # # . . . $ = = = = , = = = = = = ^ / / / / M = N O P = = = Q R = ^ | , # # , S T ; ; > = = = = = = = = ' ' # . . . $ $     ",
"    # # . . . $ = = = = , = = = = = = = = = = = = = , , , = = = > > = = = , # # , # # ; ; > = = = = = = = = ' ' # . . . $ $     ",
"U V # # . . . * = = , , = = = = = = = = = = = = = = = = = , , , > > , = = = > > > ; ; = = > = = = = = = = = ' ' # . . . $ $     ",
"U V + + . . . $ = = = = , = = = = = = = = = = = = = = = = = = = > > = , , # > > > , , = = > = = = = = = = = ' ' # . . . $ $     ",
"    + + . . . $ = = = = , = = = = = = = = = = = = = = = = = = = > > = , , # > > > , , = = > = = = = = = = = ' ' # . . . $ $     ",
"W W # # . . . $ = = , , = = = = = = = = = = = = = = = = = = = = ; ; ; # # = ; ; , # # = = > = = = = = = = = ' ' # . . . $ $     ",
"X X + + . . . $ = = = = = = = = = = = = = = = = = = > ; ; ; ; ; = = > = = = = = ; = = # # = = = = = = = = = ' ' # . . . * *     ",
"    + + . . . $ = = Y Z : ` M | = = B  .= = = = K ..+.@.#.$.; ; = %.&.*.=.J = = -.;./ >.,.'.= a / ).!.~.{.= ' ' # . . . * *     ",
"    + + . . . $ = = ].^./.(._.:.k = <.[., > > > }.|.1.2.3.4.5.= 6.7.8.9.0.a., , b.c.= > > ; = a _.d. .e.7._.' ' @ . . . $ $     ",
"    + + . . . $ = f.g.h.= , , , , , i.j.= = = k.g.l.= = = m.n.= o.p.= = = = > > q.p > = = = ; r._.= = = H s.' ' # . . . * *     ",
"  t.+ + . . . $ = u.^ = = , , , , , a _.= = = u.^ = = = = _./ v.v.w.x.y.J v.> > z.0.A./ ).= ; B.C.= = = D.E.' ' # . . . * *     ",
"    + + . . . . = F.^ = = = = = = = a _.= = = u.^ = = = = _./ v.= = G.H.r I.J.= K.L.# = = = = l.M.= = = N.E.' ' @ . . . * *     ",
"    + + . . . . = f.g.O.= = = = = = a _.= = = f.g.O.= = = P.n.= = = = = = Q.*.= R.S.# = = = = a T.= = = U.B ' ' @ . . . * *     ",
"    + + . . . $ = = V.W.{.X._.B k = a _.= = = = Y.Z._.s } l 3.= ..`.'.1 b 7./.= ^  +; = = = = a _.> .+N.7.++' ' # . . . * *     ",
"    + + . . . . = = @+#+: g.M $+= = a / / / / %+1 &+7 ).^ *+= = d.=+Q.` -+P.= = a ;+>+x./ ,+= a / 4.'+)+c.= ' ' @ . . . * *     ",
"    + + . . . . = = = = = = = = = = = = = = = = = = = = = = = = = = = = = = = = = > > = = = = = = = = , = = ' ' @ . . . * *     ",
"    + + . . . . = = = = = = = = = = = = = = = = = = = = = = = = = = = = = = = = = > > = = = = = = = = = = = ' ' @ . . . * *     ",
"    + + . . . . = = = = = = = = = = = = = = = = = = = = = = = = = = = = = = = = = , , = = = = = = = = = = = ' ' @ . . . * *     ",
"  t.+ + . . . . = = = = = = = = = = = = = = = = = = = = = = = = = = = = = = = = = , , = = = = = = = = = = = ' ' @ . . . * *     ",
"    + + . . . . = = = = = = = = = = = = = = = = = = = = = = = = = = = = = = = = = = = = = = = = = = = = ' ' ' ' @ . . . * *     ",
"    + + . . . . - - = = = = = = = = ' = = ' ' ' ' ' ' ' ' ' ' ' ' ' ' ' ' ' ' ' ' ' ' ' ' ' ' ' ' ' ' ' ' ' - - # . . . * *     ",
"    + + . . . . - - = = = = = = = = ' = = ' ' ' ' ' ' ' ' ' ' ' ' ' ' ' ' ' ' ' ' ' ' ' ' ' ' ' ' ' ' ' ' ' - - # . . . * *     ",
"    + + . . . . . . . . + . . + . . + + + + + + + + + + + + + + + + # + + # # # # # # # # # @ @ @ @ @ @ @ @ # # . . . . * *     ",
"    + + . . . . . . . . + . . + . . + + + + + + + + + + + + + + + + # + + # # # # # # # # # @ @ @ @ @ @ @ @ # # . . . . * *     ",
"    + + . # # . . . . . . . . . . . . . . . . . . . . . . . . . . . . . . . . . . . . . . . . . . . . . . . . . . # # . * *     ",
"    . . * . . . . . . . . . . . . . . . . . . . . . . . . . . . . . . . . . . . . . . . . . . . . . . . . . . . * . . * $ $     ",
"    . . * . . . . . . . . . . . . . . . . . . . . . . . . . . . . . . . . . . . . . . . . . . . . . . . . . . . * . . * $ $     ",
"    . . . $ $ $ $ $ $ $ $ $ $ $ $ $ $ $ $ * * $ * * $ * * * * * * * * * * * * * * * * * * * * * * * * * * * * * * * * $ . .     ",
"      !+~+!+                                          {+                  ]+            ^+    /+      (+  (+                    ",
"    !+~+_+~+!+                                                          ]+^+  ^+]+      ^+      /+:+/+    /+                    ",
"  !+~+_+<+_+~+!+                                                        ^+        - [+                    /+                    ",
"    !+~+_+~+!+      }+              C                                 ^+^+          }+]+                /+(+        }+          ",
"      !+~+!+                      }+|+C                               ^+                              ^+(+                      ",
"  w     !+                          }+                                ^+  w                               w                     ",
"                                                  ~+          %   ^+]+^+                                                        ",
"                                                % 1+~+      % ]+]+2+]+                                                          ",
"                          %                       %       % & 3+& 2+                                                            ",
"          t.    %       % 4+%       C                       % & %               %                         t.    %               ",
"    w   t.4+t.            %       C w C                       %     w                                   t.4+t.              }+  ",
"          t.                        C                                     t.                              t.                    ",
"                    w                                                               w                               w           ",
"                                                                                                                                "};
