/* XPM */
static char *a864783167ee407ecde8bd2ada762858EzYV0RbN9e1IGXlT[] = {
/* columns rows colors chars-per-pixel */
"64 64 20 1 ",
"  c #160C1E",
". c #171D33",
"X c #261627",
"o c #241A29",
"O c #321F3C",
"+ c #441A2A",
"@ c #59202F",
"# c #143151",
"$ c #4A2745",
"% c #4E2D55",
"& c #5C2F57",
"* c #5A3359",
"= c #68386C",
"- c #1E5767",
"; c #A22633",
": c #804075",
"> c #F6757A",
", c #B55088",
"< c #0099DB",
"1 c #2CE8F5",
/* pixels */
"                                                      O         ",
"                                          =                     ",
"                                    *                        o  ",
"            +                                               o#o ",
"         o +;+                                           o o#<#o",
"            +        %                       $       %      o#o ",
"               X                            $:%              o  ",
"          =               =                  %            =     ",
"                                      +                         ",
"                                     +@o                        ",
"                                =     o                         ",
"  ,    o               o  O                       ,    o  O     ",
"             =           O,O =              $            O,O =  ",
"                          O                               O     ",
"     =               =                               =          ",
"                                                                ",
"          +                                                     ",
"                       O                                 @      ",
"        o      =            -                  =               =",
"  $                               $               $         o   ",
" $=$              $              $=$                       o#o  ",
"  $                            =  $                       o#<#o ",
"                         @                                 o#o  ",
"                                             O              o   ",
"                                      +     O<O       O         ",
"       +          X                          O                  ",
"                    $         X        ,                        ",
"           O       $,$       X=X    X                      O    ",
"                    $         X                      X          ",
"             X           =                   X               X  ",
"      X              X                X               X         ",
"                                O               O               ",
" O                             O,O                              ",
"                                O                           O   ",
"             O    o                                        O,O  ",
"         o              &    XXX               O            O   ",
"     o  o#o                 X##X     o               o          ",
"       o#<#o             X X#1#X                                ",
"        o#o                X##X    X                    +       ",
"  O      o                 XXX                    O    +@+      ",
" O,O  +                                     #    O,O  +@>@+     ",
"  O         O    .         XX     O    X       X  O    +@+  O   ",
"        +                  X%X            #             +       ",
"    X             #         XX      X               X           ",
"   X=X                             X=X             X=X          ",
"    X                 #             X               X       o   ",
"         O                 %                o            O      ",
"        O,O                                             O,O     ",
"         O                                               O      ",
"    X                =                                          ",
"   X+X                     *                                    ",
"  X+;+X                                                         ",
" X+;>;+X                                                        ",
"  X+;+X   %       $                       %               %     ",
"   X+X           %:$                                            ",
" =  X             %                  =               =          ",
"                         +     o                                ",
"                        o@+   o#o                               ",
"             o           o   o#<#o                              ",
"     O  o   o,o   $           o#o       o            O  o       ",
"  = O,O      o   $=$           o  =                 O,O       % ",
"     O            $                  O               O          ",
"          =                               =               =     ",
"                                                                "
};
