/* XPM */
static char * moves_xpm[] = {
"64 64 154 2",
"  	c #120418",
". 	c #120518",
"+ 	c #4B585B",
"@ 	c #536265",
"# 	c #889C9E",
"$ 	c #62797E",
"% 	c #464D4F",
"& 	c #3E4447",
"* 	c #3F4547",
"= 	c #526164",
"- 	c #383F40",
"; 	c #241A29",
"> 	c #143151",
", 	c #382B2F",
"' 	c #141413",
") 	c #292A28",
"! 	c #334043",
"~ 	c #242A2B",
"{ 	c #25312B",
"] 	c #4EAF00",
"^ 	c #439017",
"/ 	c #1D321C",
"( 	c #4DAB04",
"_ 	c #429316",
": 	c #191B1D",
"< 	c #4CAB05",
"[ 	c #489F0F",
"} 	c #28392A",
"| 	c #347215",
"1 	c #479E10",
"2 	c #1A261D",
"3 	c #4CAA02",
"4 	c #397F13",
"5 	c #347115",
"6 	c #44990B",
"7 	c #377714",
"8 	c #41920D",
"9 	c #397E0B",
"0 	c #4BA804",
"a 	c #4BA903",
"b 	c #3D8909",
"c 	c #1C1D1D",
"d 	c #3B8112",
"e 	c #377B0C",
"f 	c #3B850A",
"g 	c #34770C",
"h 	c #36770C",
"i 	c #4AA603",
"j 	c #4CAB01",
"k 	c #419207",
"l 	c #172413",
"m 	c #1E3B12",
"n 	c #469C05",
"o 	c #4DAD01",
"p 	c #24451B",
"q 	c #24471B",
"r 	c #449806",
"s 	c #306917",
"t 	c #2B5D0F",
"u 	c #47A206",
"v 	c #224711",
"w 	c #1E3D12",
"x 	c #459A05",
"y 	c #32700D",
"z 	c #1F4212",
"A 	c #47A203",
"B 	c #141B13",
"C 	c #182213",
"D 	c #49A403",
"E 	c #1A3012",
"F 	c #295910",
"G 	c #469D05",
"H 	c #214311",
"I 	c #192B12",
"J 	c #3C8709",
"K 	c #377A0C",
"L 	c #33710D",
"M 	c #409008",
"N 	c #191E13",
"O 	c #3E8B0F",
"P 	c #3C8611",
"Q 	c #36760C",
"R 	c #429307",
"S 	c #2B600F",
"T 	c #326F0E",
"U 	c #3E8B09",
"V 	c #35750D",
"W 	c #3F8D08",
"X 	c #1A3212",
"Y 	c #459B05",
"Z 	c #409108",
"` 	c #244C11",
" .	c #152113",
"..	c #4CAA01",
"+.	c #33700D",
"@.	c #2F680E",
"#.	c #409107",
"$.	c #2B5E0F",
"%.	c #48A204",
"&.	c #204311",
"*.	c #1F3A12",
"=.	c #2D610F",
"-.	c #419307",
";.	c #265210",
">.	c #285910",
",.	c #171713",
"'.	c #35780C",
").	c #000000",
"!.	c #3A7F0B",
"~.	c #4BA802",
"{.	c #3E8A09",
"].	c #161C13",
"^.	c #48A303",
"/.	c #459D05",
"(.	c #35760C",
"_.	c #49A503",
":.	c #4EAE00",
"<.	c #377C0C",
"[.	c #275410",
"}.	c #68386C",
"|.	c #4A2745",
"1.	c #131015",
"2.	c #141313",
"3.	c #321F3C",
"4.	c #238F00",
"5.	c #35AE00",
"6.	c #0C3A00",
"7.	c #246200",
"8.	c #19111F",
"9.	c #866D0E",
"0.	c #5B1A10",
"a.	c #150A1B",
"b.	c #261627",
"c.	c #441A2A",
"d.	c #A22633",
"e.	c #D0B702",
"f.	c #BC240D",
"g.	c #B22D00",
"h.	c #751B11",
"i.	c #F6757A",
"j.	c #971B12",
"k.	c #4E2D55",
"l.	c #841F0E",
"m.	c #804075",
"n.	c #581314",
"o.	c #1C1C1B",
"p.	c #200618",
"q.	c #A22806",
"r.	c #591314",
"s.	c #94240A",
"t.	c #59202F",
"u.	c #0099DB",
"v.	c #B55088",
"w.	c #574310",
"    . + @ # # # # # # # # $ $ # $ $ $ $ $ $ $ $ $ $ $ $ $ % % % % % % @ @ $ $ $ $ $ $ $ $ @ $ $ @ @ @ @ @ @ @ @ @ @ @ % & .     ",
"    * = @ # # # # # # # # $ $ # $ $ $ $ $ $ $ $ $ $ $ $ $ % % % % % % @ @ $ $ $ $ $ $ $ $ @ $ $ @ @ @ @ @ @ @ @ @ @ @ % % *     ",
"    @ # # % % % % % % % % % % % % % % % % % % % % % % % % % % % % % % % % % % % % % % % % % % % % % % % % % % % % % % % % %     ",
"    # % % $ $ % % % % % % % % % % % % % % % % % % % % % % % % % % % % % % % % % % % % % % % % % % % % % % % % % % $ $ % - - ;   ",
"    # % % $ $ % % % % % % % % % % % % % % % % % % % % % % % % % % % % % % % % % % % % % % % % % % % % % % % % % % $ $ % - - > ; ",
"    # , , % % % - - , , , , , , , , , , , , , , - - , - - , - - - - - - - - - - - % % - - % - - % % % % % % % % , % % % - - ;   ",
"    # , , % % % - - , , , , , , , , , , , , , , - - , - - , - - - - - - - - - - - % % - - % - - % % % % % % % % , % % % - -     ",
"    # % % % % - ' ' ' ' ' ' ' ' ' ' ' ' ' ' ' ' ' ' ' ' ' ' ' ' ' ' ' ' ' ' ' ' ' ' ' ' ' ' ' ' ' ' ' ' ' ' ) ) % % % % - -     ",
"    # % % % % , ' ' $ ! ! ~ ~ ~ { ] ^ ~ ~ / ( _ : : : : : : ' ' : : ' : : ' ' ' ' ' ' ' ' ' ' ' ' ' ' ' ' ' ' ' % % % % - -     ",
"    # % % % % , ' ' $ ! ! ~ ~ ~ { < [ } ~ | 1 _ : : : : : : ' ' : : ' : : ' ' ' ' ' ' ' ' ' ' ' ' ' ' ' ' ' ' ' % % % % - -     ",
"    # % % % % , ' ' ! ~ ~ : : : 2 3 4 5 : 6 7 8 : : 9 0 a b c d e ' ' f g ' h i j k l m n o ] h ' ' ' ' ' ' ' ' @ % % % - -     ",
"    $ % % % % , ' ' ~ : : : : : 2 3 p 6 q r s 8 ' t u v w x y z A B C D E F G H I J K L M N ' ' ' ' ' ' ' ' ' ' @ % % % - -     ",
"    $ % % % % , ' ' ~ : : : : : 2 3 : 6 O y s 8 ' g P ' ' Q f ' R S T U ' V ] ] ] ] W X U Y Z ` ' ' ' ' ' ' ' ' @ % % % - -     ",
"    # % % % % , ' ' ~ : : : : :  ...: +.j / @.#.' $.%.&.*.x L ' =.-.Y ;.' >.Y &.B ' ' ' ' ,.'.#.' ' ' ' ' ' ).).@ % % % - -     ",
"    # % % % % , ' ' ~ : : : : :  ...: ' ' : @.#.' ' !.~...{.].' B ^./.' ' ' (._.:.] V <.] :.^.[.' ' ' ' ' ' ).).@ % % % - -     ",
"    $ % % % % , ' ' ~ : : : : ' : : ' ' ' ' ' ' ' ' ' ' ' ' ' ' ' ' ' ' ' ' ' ' ' ' ' ' ' ' ' ' ' ' ' ' ' ' ' ' @ % % % - -     ",
"    $ % % % % , ' ' : : : ' ' : ' ' ' ' ' ' ' ' ' ' ' ' ' ' ' ' ' ' ' ' ' ' ' ' ' ' ' ' ' ' ' ' ' ' ' ' ' ' ).).@ % % % - -     ",
"    $ % % % % , ' ' : : : ' ' : ' ' ' ' ' ' ' ' ' ' ' ' ' ' ' ' ' ' ' ' ' ' ' ' ' ' ' ' ' ' ' ' ' ' ' ' ' ' ).).@ % % % - -     ",
"    $ % % % % , ' ' ~ : : : : ' ' ' ' ' ' ' ' ' ' ' ' ' ' ' ' ' ' ' ' ' ' ' ' ' ' ' ' ' ' ' ' ' ' ' ' ' ' ' ).).$ % % % - -   }.",
"    $ % % % % , ' ' : : : ' ' ' ' ' ' ' ' ' ' ' ' ' ' ' ' ' ' ' ' ' ' ' ' ' ' ' ' ' ' ' ' ' ' ' ' ' ' ' ' ' ).).@ % % % - -     ",
"  |.$ % % % % , ' ' : : : ' ' ' ' ' ' ' ' ' ' ' ' ' ' ' ' ' ' ' ' ' ' ' ' ' ' ' ' ' ' ' ' ' ' ' ' ' ' ' ' ' ).).@ % % % - -     ",
"    $ % % % % , ' ' : ' ' ' ' ' ' ' ' ' ' ' ' ' ' ' ' ' ' ' ' ' ' ' ' ' ' ' ' ' ' ' ' ' ' ' ' ' ' ' ' ' ' ' ).).$ % % % - - ;   ",
"    $ % % % % - ' ' ' : : ' ' ' ' ' ' ' ' ' ' ' ' ' ' ' ' ' ' ' ' ' ' ' ' ' ' ' ' ' ' ' ' ' ' ' ' ' ' ' ' ' ).).$ % % % - -     ",
"    $ % % % % - ' ' ' : : ' ' ' ' ' ' ' ' ' ' ' ' ' ' ' ' ' ' ' ' ' ' ' ' ' ' ' ' ' ' ' ' ' ' ' ' ' ' ' ' ' ).).$ % % % - -     ",
"    $ % % % % , ' ' : ' ' ' ' ' ' ' ' ' 1.' ' ' ' ' ' ' ' ' ' ' ' ' ' ' ' ' ' ' ' ' ' ' ' ' ' ' ' ' ' ' ' ' ).).$ % % % - -     ",
"    $ % % % % , ' ' : ' ' ' ' ' ' ' ' ' 2.' ' ' ' ' ' ' ' ' ' ' ' ' ' ' ' ' ' ' ' ' ' ' ' ' ' ' ' ' ' ' ' ' ).).$ % % % - -     ",
"    @ % % % % - ' ' ' : : ' ' ' ' ' ' ' ' ' ' ' ' ' ' ' ' ' ' ' ' ' ' ' ' ' ' ' ' ' ' ' ' ' ' ' ' ' ' ' ' ' ).).$ % % % - -     ",
"    $ % % % % - ' ' : ' ' ' ' ' ' ' ' ' ' ' ' ' ' ' ' ' ' ' ' ' ' ' ' ' ' ' ' ' ' ' ' ' ' ' ' ' ' ' ' ' ' ' ).).$ % % % - -     ",
"    $ % % % % - ' ' : ' ' ' ' ' ' ' ' ' ' ' ' ' ' ' ' ' ' ' ' ' ' ' ' ' ' ' ' ' ' ' ' ' ' ' ' ' ' ' ' ' ' ' ).).$ % % % - -     ",
"    @ % % % % - ' ' ' ' ' ' ' ' ' ' ' ' ' ' ' ' ' ' ' ' ' ' ' ' ' ' ' ' ' ' ' ' ' ' ' ' ' ' ' ' ' ' ' ' ' ' ).).$ % % % , ,     ",
"    @ % % % % - ' ' : ' ' ' ' ' ' ' ' ' ' ' ' ' ' ' ' ' ' ' ' ' ' ' ' ' ' ' ' ' ' ' ' ' ' ' ' ' ' ' ' ' ' ' ).).# % % % - -     ",
"    @ % % % % - ' ' : ' ' ' ' ' ' ' ' ' ' ' ' ' ' ' ' ' ' ' ' ' ' ' ' ' ' ' ' ' ' ' ' ' ' ' ' ' ' ' ' ' ' ' ).).# % % % - -     ",
"  3.@ % % % % - ' ' ' ' ' ' ' ' ' ' ' ' ' ' ' ' ' ' ' ' ' ' ' ' ' ' ' ' ' ' ' ' ' ' ' ' ' ' ' ' ' ' ' ' ' ' ).).$ % % % , ,     ",
"    @ % % % % - ' ' ' ' ' ' ' ' ' ' ' ' ' ' ' ' ' ' ' ' ' ' ' ' ' ' ' ' ' ' ' ' ' ' ' ' ' ' ' ' ' ' ' ' ' ' ).).$ % % % , ,     ",
"    @ % % % % % ' ' ' 4.4.' ' 5.6.6.4.' ' 5.' ' 6.6.5.' ' 5.7.7.' ' 4.' ' 6.4.4.7.' ' 6.6.' 5.5.' ' ' ' ' ' ).).# % % % , ,     ",
"    @ % % % % - ' ' ' 5.5.' ' 6.4.4.7.' ' 6.' ' 5.5.7.' ' 5.4.4.' ' 4.' ' 7.' ' 5.' ' 4.4.6.4.4.' ' ' ' ' ' ).).$ % % % , ,     ",
"    @ % % % % - ' ' ' 5.5.' ' 6.4.4.7.' ' 6.' ' 5.5.7.' ' 5.4.4.' ' 4.' ' 7.' ' 5.' ' 4.4.6.4.4.' ' ' ' ' ' ).).$ % % % , ,     ",
"    @ % % % % % ' ' ' ' ' ' ' ' ' ' ' ' ' ' ' ' ' ' ' ' ' ' ' ' ' ' ' ' ' ' ' ' ' ' ' ' ' ' ' ' ' ' ' ' ' ' ).).# % % % , ,     ",
"    @ % % % % % ' ' ' 5.5.' ' 4.6.6.' 5.5.' 6.6.4.4.' 7.7.' 5.5.' ' 5.' ' ' ' ' ' ' ' ' ' ' ' ' ' ' ' ' ' ' ).).# % % % , ,     ",
"    @ % % % % % ' ' ' 5.5.' ' 4.6.6.' 5.5.' 6.6.4.4.' 7.7.' 5.5.' ' 5.' ' ' ' ' ' ' ' ' ' ' ' ' ' ' ' ' ' ' ).).# % % % , ,     ",
"  3.@ % % % % % ' ' ' 6.6.7.7.5.4.4.' 4.4.' 7.7.4.4.' 5.5.4.6.6.' ' 4.' ' ' ' ' ' ' ' ' ' ' ' ' ' ' ' ' ' ' ).).# % % % , ,     ",
"    @ % % % % % ' ' ' ' ' ' ' ' ' ' ' ' ' ' ' ' ' ' ' ' ' ' ' ' ' ' ' ' ' ' ' ' ' ' ' ' ' ' ' ' ' ' ' ' ' ).).).# % % % , ,     ",
"    @ % % % % % ' ' ' ' ' ' ' ' ' ' ' ' ' ' ' ' ' ' ' ' ' ' ' ' ' ' ' ' ' ' ' ' ' ' ' ' ' ' ' ' ' ' ' ' ' ).).).# % % % , ,     ",
"    @ % % % % % ) ) ' ' ' ' ' ' ' ' ).' ' ).).).).).).).).).).).).).).).).).).).).).).).).).).).).).).).).).) ) $ % % % , ,     ",
"    @ % % % % % ) ) ' ' ' ' ' ' ' ' ).' ' ).).).).).).).).).).).).).).).).).).).).).).).).).).).).).).).).).) ) $ % % % , ,     ",
"    @ % % % % % % % % @ @ % % @ % % @ @ @ @ @ @ @ @ @ @ @ @ @ @ @ @ $ @ @ $ $ $ $ $ $ $ $ $ # # # # # # # # $ $ % % % % , ,     ",
"    @ % % $ $ % % % % % % % % % % % % % % % % % % % % % % % % % % % % % % % % % % % % % % % % % % % % % % % % % % $ $ % , ,     ",
"    @ % % $ $ % % % % % % % % % % % % % % % % % % % % % % % % % % % % % % % % % % % % % % % % % % % % % % % % % % $ $ % , ,     ",
"    % , , % % % % % % % % % % % % % % % % % % % % % % % % % % % % % % % % % % % % % % % % % % % % % % % % % % % , % % , - -     ",
"    % % % - - - - - - - - - - - - - - - - , - - , , - , , , , , , , , , , , , , , , , , , , , , , , , , , , , , , , , - % %     ",
"    8.% % - - - - - - - - - - - - - - - - , - - , , 9., , 0., , , , 0., 0., , , , , , , , , , , , , , , , , , , , , , - % a.    ",
"    b.c.d.c.b.                                      e.      f.    f.    f.                                        g.h.          ",
"  b.c.d.i.d.c.b.                                    e.        f.j.      f.                                        g.h.          ",
"    b.c.d.c.b.      k.              |.              e.                f.0.          k.                            l.g.          ",
"      b.c.b.                      k.m.|.            e.              e.0.                                          n.g.g.        ",
"  }.    b.                          k.9.e.e.9.) o.e.9.                    }.                              }.        p.g.q.r.    ",
"                                    9.e.          c.          ;                                                         s.g.g.g.",
"                                    e.          ; t.c.      ; > ;                                                           r.g.",
"                          ;         e.            ;       ; > u.> ;                                                             ",
"          3.    ;       ; v.;       e.                      ; > ;               ;                         3.    ;               ",
"    }.  3.v.3.            ;       |.e.|.                      ;     }.                                  3.v.3.              k.  ",
"          3.                        e.                                    3.                              3.                    ",
"                    }.            e.9.                                              }.                              }.          ",
"                            w.9.9.w.                                                                                            "};
