/* XPM */
static char * moves_xpm[] = {
"64 64 53 1",
" 	c #464D4F",
".	c #45CCE0",
"+	c #45C8DC",
"@	c #466A71",
"#	c #28221F",
"$	c #383F40",
"%	c #41ACBC",
"&	c #382B2F",
"*	c #62797E",
"=	c #55A9B8",
"-	c #3B6F78",
";	c #536265",
">	c #120418",
",	c #441A2A",
"'	c #59202F",
")	c #241A29",
"!	c #2F1C17",
"~	c #321F3C",
"{	c #B55088",
"]	c #68386C",
"^	c #14091A",
"/	c #889C9E",
"(	c #160D1C",
"_	c #141413",
":	c #292A28",
"<	c #334043",
"[	c #242A2B",
"}	c #191B1D",
"|	c #000000",
"1	c #4B3F38",
"2	c #143151",
"3	c #0099DB",
"4	c #261627",
"5	c #F6757A",
"6	c #1D1B26",
"7	c #08020C",
"8	c #251713",
"9	c #0F0315",
"0	c #866D0E",
"a	c #5B1A10",
"b	c #5A3359",
"c	c #D0B702",
"d	c #BC240D",
"e	c #160D1B",
"f	c #971B12",
"g	c #130718",
"h	c #4E2D55",
"i	c #4A2745",
"j	c #804075",
"k	c #1C1C1B",
"l	c #130B16",
"m	c #1F1115",
"n	c #574310",
"          ..    .+@              #   $ $          $        $ $$$",
" $$$$$$$$$...$$..%$$$$$$$$$$$$ $$#$$$$$$$$$$$$$$$$$$$$$$$$$$$$$$",
" $$$$$$$$$...$$...$$$$...$$$...$$...$$$...$$$$$$.....$$$$$$$$$$$",
" $&* $$$$$...$$...$$......$$...$$...$$......$$$......$$$$$&* $$$",
" $&  $$$$$........$..$$$$..$$..$$..$$..$$$$..$$..$$$.$$$$$&  $$$",
" $&&$$$$$$..$..$..$..$$$$..$$..$$.$$$........$$.....$$$$$$&&$$$$",
" $$$$$$$$$..$..$..$..$$$$..$$$....$$$..$$$$$$$$$$$$..$$$$$$$$$$$",
"*         ..    ..  ..  ..    =..-   ...   ..  ..  ..           ",
" $$$$$$$$....$$....$$....$$$$$;..&$$$$......$$$......$$$$$$$$$$;",
"& $ $  *>>>>>>>>>>>>>>>>>>>>>>*  $>>>,')>>>>>>>>>>>>>>>>>>>>>>>>",
"!    $ *>>>>>>>>>>>>>>>>>>>>>>*  $>>>>)>>>>>>>>>>>>>>>>>>>>>>>>>",
"! &&   *>>>>>>>>>>>>>>>)>>~>>>*  $>>>>>>>>>>>>>>>>{>>>>)>>~>>>>>",
"! &$*  *>>>>>]^/////*/********    ;*****;*;;;;;;;(>>>>>>>~{~>]>>",
"!  $$  *>>>>>>/                                   >>>>>>>>~>>>>>",
"!      *>>>>>/ *                                * $>>]>>>>>>>>>>",
"!      *>>>>>/&  $&&&&&&&&&$&$&$$$$$$$ $ $     &  $>>>>>>>>>>>>>",
"&    $ *>>,>>/  $_____________________________:   $>>>>>>>>>>>>>",
"!     $*>>>>>/  &_*<[[[[[}[}}}}_}_}_______}____;  $>>>>>>'>>>>>>",
"&      ;)>>>>/  &_<[}}}}}}}}_}_}_________}_____;  $>>>>>>>>>>>>]",
"! &&   *>>>>>*  &_[}}}}}}_}_}_________}__[____|;  &>>>>>>>>>)>>>",
"& &$*  *>>>>>/  &_[}}}_}_}_}}[________}__[_____; &1>>>>>>>>)2)>>",
"&  $$  *>>>>>*  &_[}}_}_______[<_____}__<_____|; $ >>>>>>>)232)>",
"&      *>>>>>*  &_}}_}__________<_[[[__<<_____|*  ;>>>>>>>>)2)>>",
"&      ;>>>>>*  &_[}}____________<<_}[[<____}_|;  $>>>>>>>>>)>>>",
"&      *>>>>>*  &_}}__________}__[_[___<__<[__|*  $>>>~>>>>>>>>>",
"&      ;>>>>>*  &_}____________}_[_*}__*<<____|*  $>>>>>>>>>>>>>",
"&      *>>>>>*  $__}________}}__[__}*}*<[_____|*  $>>>>>>>>>>>>>",
"! &&   ;>>>~>*  &_}___________}}[}__[[<_[_____|*  $>>>>>>>>~>>>>",
"& &$*  *>>>>>;  $__}____________[_}*[[}_[_____|*  $>>4>>>>>>>>>>",
"!  $$  ;>>>>>*  $_}_____________<<*_<}*_[_____|*  $>>>>>>>>>>4>>",
"&      *>>>>>;  $___________[<<<_[___<_*______|*  &>>>4>>>>>>>>>",
"_$ $   ;>>>>>;  $_}____}}[[[______[[}<_[<_____|/  $>>>>>>>>>>>>>",
"& $ $$ ;>>>>>;  $___}}}_____________[*[__<____|*  &>>>>>>>>>>>>>",
"_  $ $ ;>>>>>;   ____________________[*___[___|/  &>>>>>>>>>~>>>",
"&     $;>>>>>;  $_____________________<____[__|*  &>>>>>>>>~{~>>",
"_ &&   ;>)>>>;   _____________________[_____}_|/  &>>>>>>>>>~>>>",
"_ &$*  ;)2)>>;   _____________________[_______|/  &>>)>>>>>>>>>>",
"_  $$  *232)>;   _____________________}_______|/  &>>>>>>>>>>>>>",
"_      ;)2)>>;   ____________________________||/  &>>>>>,>>>>>>>",
"&      *>)>>>;   :_____|_|||||||||||||||||||||:*  &>>>>,',>>>>>>",
"_      ;>>>>>;     ; ; ;;;;;;;;;;*;******/////*   &~>>,'5',>>>>>",
"&      *>>>>~; *                                * &>>>>,',>>~>>>",
"&      ;,>>>> &                                & &$>>>>>,>>>>>>>",
"& &&   *>>>>>  $$$$$$$$$$&$&$&&&&&&&&&&&&&&&&&&&&$ >4>>>>>>>>>>>",
"& &$*  *>>>>>                                      4]4>>>>>>>>>>",
"&$ $$  *>>>>>                                      >4>>>>>>>)>>>",
"&      *>~>>>>                                    >>>>>>>~>>>>>>",
"&      *~{~>>>>** * * ******************* * *****6>>>>>>~{~>>>>>",
"&   $ $*>~>>>|7|||||||||||||||8||8||||8|8||||||||99>>>>>>~>>>>>>",
"!    $ *>>>>>>>>>>>>>]>>>>>>>>0>>a>>>>a>a>>>>>>>>>>>>>>>>>>>>>>>",
"&     $*>>>>>>>>>>>>>>>>>>>b>>c>>>d>ed>>d>>>>>>>>>>>>>>>>>>>>>>>",
"! &&   *>>>>>>>>>>>>>>>>>>>>>>c>>>>df>>>d>>>>>>>>>>>>>>>>>>>>>>>",
"& &$*  *>>>>>>>>>>>>>>>>>>>>>>c>>>>>>>gda>>>>>>>>>>>>>>>>>>>>>>>",
"&  $$  *>>h>>>>>>>i>>>>>>>>>>>c>>>>>>>ca>>h>>>>>>>>>>>>>>>h>>>>>",
"!      *>>>>>>>>>hji>>>0cc0:kc0>>>>>>l|>>>>>>>>>>>>>>>>>>>>>>>>>",
"&$$    *>>>>>>>>>>h>>>0c>>>>>>>>>>>>>]>>>>>>>>>>>>>>>]>>>>>>>>>>",
"! $$   *>>>>>>>>>>>>>>c>>,>>>>>)>>>>>>>>>>>>>>>>>>>>>>>>>>>>>>>>",
"&   $ $*>>>>>>>>>>>>>>c>)',>>>)2)>>>>>>>>>>>>>>>>>>>>>>>>>>>>>>>",
"!    $ *>>>>>)>>>>>>>>c>>)>>>)232)>>>>>>>>>>>>>>>>>>>>>>>>>>>>>>",
"! &&  $*)>>>){)>>>i>>>c>>>>>>>)2)>>>>>>>)>>>>>>>>>>>>~>>)>>>>>>>",
"! &$*  *>>>>>)>>>i]i>>c>>>>>>>>)>>]>>>>>>>>>>>>>>>>>~{~>>>>>>>h>",
"!  $$  *>>>>>>>>>>i>>c0>>>>>>>>>>>>>>~>>>>>>>>>>>>>>>~>>>>>>>>>>",
"*       >>]>>>>>>mn00n>>>>>>>>>>>>>>>>>>>>]>>>>>>>>>>>>>>>]>>>>>",
" $$$$$$$>>>>>>>>>>>>>>>>>>>>>>>>>>>>>>>>>>>>>>>>>>>>>>>>>>>>>>>>"};
