/* XPM */
static char *_e781e927a974e43c61c67ceed93d0e0keYF8kxGnCetndTV[] = {
/* columns rows colors chars-per-pixel */
"64 64 25 1 ",
"  c #120418",
". c #171D33",
"X c #261627",
"o c #241A29",
"O c #321F3C",
"+ c #441A2A",
"@ c #59202F",
"# c #143151",
"$ c #4A2745",
"% c #4E2D55",
"& c #5A3359",
"* c #47337E",
"= c #68386C",
"- c #1E444C",
"; c #1E5767",
": c #A22633",
"> c #804075",
", c #F6757A",
"< c #484C84",
"1 c #505C9E",
"2 c #6148AF",
"3 c #684DBD",
"4 c #795BDE",
"5 c #B55088",
"6 c #0099DB",
/* pixels */
"                                                      O         ",
"                                          =                     ",
"                                    &                        o  ",
"            +                                               o#o ",
"         o +:+                                           o o#6#o",
"            +        %                       $       %      o#o ",
"               X                            $>%              o  ",
"          =               =                  %            =     ",
"                                      +                         ",
"                                     +@o                        ",
"                                =     o                         ",
"  5    o               o  O                       5    o  O     ",
"             =           O5O =              $            O5O =  ",
"                          O              44444            O     ",
"     =               =                 11444444      =          ",
"                                     -111144444                 ",
"          +                          4-11144111                 ",
"                       O             4----11--           @      ",
"        o      =            ;        44--1---  =               =",
"  $                               $   411--       $         o   ",
" $=$              $              $=$   1--                 o#o  ",
"  $                       441  =  $     --                o#6#o ",
"                         @41-1          1--                o#o  ",
"                         444-11         4111114444          o   ",
"                         444--1       + 44111444444   O         ",
"       + 24*      X     44444---       444114444444             ",
"         444        $   4444411--      444114444441             ",
"         34<       $5$ 44444441---  X44444114444411        O    ",
"                    $ 4444444111---144444411444411-  X          ",
"             X      444444444-11---11444441144411-           X  ",
"      X          111144444441-------114441111411--    X         ",
"               --1114444444411------144444111111-               ",
" O            11-1114444444411-----144444-411111                ",
"             11144444444444111---111444444411111            O   ",
"           44444444444444411----111444444441111144         O5O  ",
"         o 444444444444111------1144444444111114444444      O   ",
"     o  o#o4444444111111---------1444444411111444444444         ",
"       o#6#44444111111111--------144444411-111444444444         ",
"        o#o444111--111111-------11444441----11444444444 +       ",
"  O      o  41--------111  X---11144441-----1114444444 +@+      ",
" O5O  +          -------     -1-1444411-----1-111111  +@,@+     ",
"  O         O    .------   XX1114444411-----1-11111    +@+  O   ",
"        +          ----    X%44444444111--111---        +       ",
"    X             #         X4444444411111111--     X           ",
"   X=X                      4444-444111444411-     X=X          ",
"    X                 #      444441-111144411-      X       o   ",
"         O                 %      4-11114441-            O      ",
"        O5O                         -11-4411-           O5O     ",
"         O                           ---411--            O      ",
"    X                =                4411--                    ",
"   X+X                     &           441-                     ",
"  X+:+X                                                         ",
" X+:,:+X                                                        ",
"  X+:+X   %       $                       %               %     ",
"   X+X           %>$                                            ",
" =  X             %                  =               =          ",
"                         +     o                                ",
"                        o@+   o#o                               ",
"             o           o   o#6#o                              ",
"     O  o   o5o   $           o#o       o            O  o       ",
"  = O5O      o   $=$           o  =                 O5O       % ",
"     O            $                  O               O          ",
"          =                               =               =     ",
"                                                                "
};
