/* XPM */
static char *_015d236cc00441d9e95aa0c79c1fc345HudtSJivhJCVcMj[] = {
/* columns rows colors chars-per-pixel */
"64 64 21 1 ",
"  c #160C1E",
". c #171D33",
"X c #261627",
"o c #241A29",
"O c #321F3C",
"+ c #441A2A",
"@ c #59202F",
"# c #143151",
"$ c #4A2745",
"% c #4E2D55",
"& c #5A3359",
"* c #68386C",
"= c #1E444C",
"- c #1E5767",
"; c #A22633",
": c #804075",
"> c #F6757A",
", c #505C9E",
"< c #795BDE",
"1 c #B55088",
"2 c #0099DB",
/* pixels */
"                                                      O         ",
"                                          *                     ",
"                                    &                        o  ",
"            +                                               o#o ",
"         o +;+                                           o o#2#o",
"            +        %                       $       %      o#o ",
"               X                            $:%              o  ",
"          *               *                  %            *     ",
"                                      +                         ",
"                                     +@o                        ",
"                                *     o                         ",
"  1    o               o  O                       1    o  O     ",
"             *           O1O *              $            O1O *  ",
"                          O                               O     ",
"     *               *                               *          ",
"                                                                ",
"          +                                                     ",
"                     ,,<<<                               @      ",
"        o      *     ,,,,,, -                  *               *",
"  $                   =,,,==      $               $         o   ",
" $*$              $   ,,,,===    $*$       <<<<<           o#o  ",
"  $                   ,,,,,,,,,,  $       <<<<<<<         o#2#o ",
"                      ,,<<,,,,,,,=        <<<<<<<<         o#o  ",
"                     <<<<<<<,,,===<<      <<<<<<<,<         o   ",
"               <<<<<<<<<<<<<<,,,,<<,  +   ,<<<<<<,,,  O         ",
"       +      <<<<<<<<<<<<<<,,,,,,,,=      ,<<<,,,,,,           ",
"             <<<<<<<<<<<<<<<,====,,==  1   ==<,,,,,,,,          ",
"           O <<<<<<<<<<<<<<,=====,,===      <,,,,,,,,,,    O    ",
"            <<<<<<<<<<<<<<,======,,,===      ,,,,,,,,,,         ",
"            <<<<=<<,,,,,<,,======,,,,==      X  =,,,==       X  ",
"      X    <<<<<<<,,,=,==,======,,<<,===           =  X         ",
"           <<<<<<,,,,,==,,======,<<<,===        O               ",
" O         <<<<<,,===,,,,======,,,,,====                        ",
"          <<<<<,,=====,,=======,,,,====                     O   ",
"          <<<<<,,======================                    O1O  ",
"         o<<<<,,=======================        O            O   ",
"     o  o<<<,,,======,,,===============              o          ",
"       o#<<<,,,=====,,,,,==,,,=========                         ",
"        o<<=,,======,,,,,,,,,,,========                 +       ",
"  O      <<<===, ,==,,,,,,,,,,,,====,=,,          O    +@+      ",
" O1O  +   <,==    ==,,,,,,,,,,,,,=,,==,<=,  #    O1O  +@>@+     ",
"  O         O    . ,,<,,,,,,<,,,,,,,,,,<<===   X  O    +@+  O   ",
"        +          ,<,,,,=,<<,,,,=,,,,,<<<==,           +       ",
"    X             # <=,,==,<,,,====,,,,,<<<<=       X           ",
"   X*X              <====,,,,,,====,,,,,,<<<       X*X          ",
"    X                <,=,,,,,,======,,==            X       o   ",
"         O             ,,,,,===========     o            O      ",
"        O1O             =,============                  O1O     ",
"         O               ============                    O      ",
"    X                *      =========                           ",
"   X+X                     &    ===,,                           ",
"  X+;+X                            ,,                           ",
" X+;>;+X                                                        ",
"  X+;+X   %       $                       %               %     ",
"   X+X           %:$                                            ",
" *  X             %                  *               *          ",
"                         +     o                                ",
"                        o@+   o#o                               ",
"             o           o   o#2#o                              ",
"     O  o   o1o   $           o#o       o            O  o       ",
"  * O1O      o   $*$           o  *                 O1O       % ",
"     O            $                  O               O          ",
"          *                               *               *     ",
"                                                                "
};
