/* XPM */
static char *eb33b608bf9f40d7feaff92533829a76SkabnYfNmAJzITSW[] = {
/* columns rows colors chars-per-pixel */
"64 64 20 1 ",
"  c #120418",
". c #261627",
"X c #241A29",
"o c #321F3C",
"O c #441A2A",
"+ c #59202F",
"@ c #143151",
"# c #4A2745",
"$ c #4E2D55",
"% c #5A3359",
"& c #68386C",
"* c #1E444C",
"= c #1E5767",
"- c #A22633",
"; c #804075",
": c #F6757A",
"> c #505C9E",
", c #795BDE",
"< c #B55088",
"1 c #0099DB",
/* pixels */
"                                                      o         ",
"                                          &                     ",
"                                    %                        X  ",
"            O                                               X@X ",
"         X O-O                                           X X@1@X",
"            O        $                       #       $      X@X ",
"               .                            #;$              X  ",
"          &               &                  $            &     ",
"                                      O ,,                      ",
"                                     O,,,,,                     ",
"                                &    ,,,,,,,                    ",
"  <    X               X  o         ,,,,,,,>      <    X  o     ",
"             &           o<o &      ,,,,,,>>*            o<o &  ",
"                          o          ,>>>>>**             o     ",
"     &               &                >>>>***        &          ",
"                                        ****                    ",
"          O                              ***                    ",
"                       o                 >>*             +      ",
"        X      &            =            ,>>   &               &",
"  #                 ,,,,,,,,,,,   #      ,,>>     #         X   ",
" #&#              ,,,,,,,,****,,,#&#     ,,,>              X@X  ",
"  #              >,,,,,,,**>>>>>>>#     ,,,,>>            X@1@X ",
"                >,,,,,,,,**>>>>>>>>>   ,,,,,>>             X@X  ",
"                ,,,,,,,>>**>>>>>>>>>>  ,,,,,,>              X   ",
"               ,,,,,,,,>>**>>>>>>>>>>>,,,,,,,>>       o         ",
"       O    ,,,,,,,,,,,>>****>>>>>>>>>>,,,,,,>>                 ",
"          ,>,,,,,,,,,,>>*****>>>>>**>>>,,,,,,,>>                ",
"          >>,,,,,,,,,,>**************>,,,,,,,,**           o    ",
"          >>,,,,,,,,,>>**************>,,,,,,,,*>>    .          ",
"          >>>,,,,,,,>>***************>,,,***,,*>>>           .  ",
"      .  >>>>,,>>>>>>>***********  ****,**>>,>>>>>>*  .         ",
"         >>>>>>>>>>>>>***********  **>>>*>>>>>>**>>,,,,         ",
" o       >>>>>>>>>>>>>**>********o *>>>>>>>>>****>>,,,,,        ",
"         >>>>>>**>>>>>*>>*********>*>>>>*>>>>****>,,,,,,    o   ",
"          ***>**>>>>>>>**********>>,,,   >>>****>>,,,>>,   o<o  ",
"         X**>>*>>>>>>>**********>>,,,     >>>>>>>>,>>>      o   ",
"     X  X@X >>>*>>>>>***********>>,,,X    ,,,,,,,,,> X          ",
"       X@1@X*>>>>>>>************>>,,,,   ,,,,,,,,,,             ",
"        X@X  >>,,>>>************>>,,>>,,,,,,,,,,,,,     O       ",
"  o      X   >>,,,>>************>>,,,>,,,,,,**,,,,*    O+O      ",
" o<o  O       ,,,,>>************>,,,,,,,,,,,*>,,,**o  O+:+O     ",
"  o         o ,,,,>>*********  *>,,,***,,,,,*>,,,**    O+O  o   ",
"        O     ,,,,>*********$.  ,*****>,,,,,,,,,>*>     O       ",
"    .         ,,,>>*********..  ,*>>,>>,,,,,,,>>**  .           ",
"   .&.         ,,>********>     ,*>>,,,,,>>>>>**** .&.          ",
"    .          ,,>>*****>>      ,,,,,,>>>>******    .       X   ",
"         o    ,,**>***     $   ,,,,,,>>*    X            o      ",
"        o<o  *,***>*         ,,,,,,,,>*                 o<o     ",
"         o  >>,*>>           ,,,,,,,>>                   o      ",
"    .      >>>>*>>   &       ,,,,,,,>           ,,              ",
"   .O.     >>>,*>          %  ,,,,,>           ,,,,             ",
"  .O-O.    ,,,,*>              ,,              ,*,,             ",
" .O-:-O.   ,,,,>>                               *>,             ",
"  .O-O.   $,,,>>* #                       $               $     ",
"   .O.      ,,>> $;#                                            ",
" &  .        ,>   $                  &               &          ",
"                         O     X                                ",
"                        X+O   X@X                               ",
"             X           X   X@1@X                              ",
"     o  X   X<X   #           X@X       X            o  X       ",
"  & o<o      X   #&#           X  &                 o<o       $ ",
"     o            #                  o               o          ",
"          &                               &               &     ",
"                                                                "
};
