/* XPM */
static char *e524615e3e494b3ff4fd3c688ac6831d78XOsqwQZWfzOEf1[] = {
/* columns rows colors chars-per-pixel */
"64 64 29 1 ",
"  c #120418",
". c #261627",
"X c #241A29",
"o c #321F3C",
"O c #441A2A",
"+ c #59202F",
"@ c #2B1D47",
"# c #2E1F4D",
"$ c #143151",
"% c #4A2745",
"& c #4E2D55",
"* c #5A3359",
"= c #493677",
"- c #46327B",
"; c #68386C",
": c #1E444C",
"> c #1E5767",
", c #A22633",
"< c #804075",
"1 c #F6757A",
"2 c #505C9E",
"3 c #5A42A1",
"4 c #6248B1",
"5 c #674DBB",
"6 c #684DBC",
"7 c #6D52C7",
"8 c #795BDE",
"9 c #B55088",
"0 c #0099DB",
/* pixels */
"                                                      o         ",
"                                          ;                     ",
"                                    *                        X  ",
"            O                                               X$X ",
"         X O,O                                           X X$0$X",
"            O        &                       %       &      X$X ",
"               .                            %<&              X  ",
"          ;               ;                  &            ;     ",
"                                      O                         ",
"                                     O+X                        ",
"                                ;     X                         ",
"  9    X               X  o                       9    X  o     ",
"             ;           o9o ;              %            o9o ;  ",
"                          o                               o     ",
"     ;               ;                               ;          ",
"                                                                ",
"          O                                                     ",
"                       o              8:88               +      ",
"        X      ;            >88888888888888    ;               ;",
"  %                         2888888888888888      %         X   ",
" %;%              %        28888888888888882               X$X  ",
"  %                       8888888888888888222             X$0$X ",
"                   888888888888888888888882222             X$X  ",
"                  88882228888888888822222222222             X   ",
"                888882222888888888822222222222::      o         ",
"       O       888882222288888888822::::2222::::888             ",
"              888888222222228888882::::::22222228888            ",
"           o88888882222222222888882:::::::2222222288       o    ",
"          888888888222222222228888::::::::222222222  .          ",
"         88888888822:2222222228882:::::::::2222:::           .  ",
"      .  888888882222:22222222888:::::::: ::22::::    .         ",
"         888888882222:2222222888882:::::     22::               ",
" o       88822888222::2222228888882::::       222               ",
"          88288888:::2222228:888882::::                     o   ",
"          :8888888222:222228888882::::            4888-    o9o  ",
"         X :8888822:::::2228888882:::::        o  7885#     o   ",
"     X  X$X 2222:2:::::::228888822:::::    2:8     83=@         ",
"       X$0$X 222:::::::::22888882:2::::22222:88     66          ",
"        X$X   2::::::::::22888822222::22222::88         O       ",
"  o      X     ::::::::::22888222222::228:::888   o    O+O      ",
" o9o  O         2:::::::2288822:222:  :288888888 o9o  O+1+O     ",
"  o         o   822:::::228882222::    88888822288o    O+O  o   ",
"        O        822::::222222:22:      88882222888     O       ",
"    .             82:      22:::    .    8882222888 .           ",
"   .;.                             .;.    882222888.;.          ",
"    .                 $             .      88222    .       X   ",
"         o                 &                8            o      ",
"        o9o                                             o9o     ",
"         o                                               o      ",
"    .                ;                                          ",
"   .O.                     *                                    ",
"  .O,O.                                                         ",
" .O,1,O.                                                        ",
"  .O,O.   &       %                       &               &     ",
"   .O.           &<%                                            ",
" ;  .             &                  ;               ;          ",
"                         O     X                                ",
"                        X+O   X$X                               ",
"             X           X   X$0$X                              ",
"     o  X   X9X   %           X$X       X            o  X       ",
"  ; o9o      X   %;%           X  ;                 o9o       & ",
"     o            %                  o               o          ",
"          ;                               ;               ;     ",
"                                                                "
};
