/* XPM */
static char *_68ab60b4fa447d2ad423b1f26975fdaEArxYxqP5oNmNslD[] = {
/* columns rows colors chars-per-pixel */
"64 64 86 1 ",
"  c #160C1E",
". c #160D1F",
"X c #160E20",
"o c #160F21",
"O c #180E23",
"+ c #190E24",
"@ c #171526",
"# c #1B1027",
"$ c #1A1127",
"% c #1A1228",
"& c #1A1328",
"* c #1C132B",
"= c #191C2C",
"- c #181D2C",
"; c #261627",
": c #241A29",
"> c #26183C",
", c #321F3C",
"< c #1A2433",
"1 c #1E2036",
"2 c #32203D",
"3 c #441A2A",
"4 c #59202F",
"5 c #2A1C45",
"6 c #143151",
"7 c #312743",
"8 c #203345",
"9 c #2F304A",
"0 c #223F4F",
"q c #352A5E",
"w c #362A5F",
"e c #3B2A65",
"r c #3B2966",
"t c #333B65",
"y c #4A2745",
"u c #4E2D55",
"i c #5A3359",
"p c #68386C",
"a c #1E444C",
"s c #214551",
"d c #1E5767",
"f c #304767",
"g c #304868",
"h c #3A4273",
"j c #3A4574",
"k c #A22633",
"l c #804075",
"z c #83507F",
"x c #F6757A",
"c c #4B3685",
"v c #4F398C",
"b c #434D88",
"n c #464C8A",
"m c #4B5694",
"M c #4D5897",
"N c #4E5999",
"B c #50509C",
"V c #505C9E",
"C c #5C44A6",
"Z c #564EA3",
"A c #5D45A8",
"S c #5F46AC",
"D c #5452A3",
"F c #5752A7",
"G c #624EB6",
"H c #6155B6",
"J c #6C50C4",
"K c #6C58C7",
"L c #6F53CA",
"P c #7054CD",
"I c #7155CF",
"U c #7256D1",
"Y c #7457D5",
"T c #7259D2",
"R c #7259D3",
"E c #7558D6",
"W c #7658D7",
"Q c #745AD6",
"! c #765AD7",
"~ c #765BDA",
"^ c #775ADB",
"/ c #785ADC",
"( c #795BDD",
") c #795BDE",
"_ c #B55088",
"` c #0099DB",
/* pixels */
"                                                      ,         ",
"                                          p                     ",
"                                    i                        :  ",
"            3                                               :6: ",
"         : 3k3                                           : :6`6:",
"            3        u                       y       u      :6: ",
"               ;                            ylu              :  ",
"          p               p                  u            p     ",
"                        +>5%$         3                         ",
"                       QR^UD<@       34:                        ",
"                      QFbHBZ8-o p     :                         ",
"  _    :             )Kfsjfa-                     _    :  ,     ",
"             p       JGnt7z9op              y            ,_, p  ",
"                     rwh1$2            CY)                ,     ",
"     p               prw%o            QY))))         p          ",
"                      %+             )))IP))                    ",
"          3             %            /)IvcmV                    ",
"                       ,             P)WSCMa             4      ",
"        :      p            d         )/WVa    p               p",
"  y                               y   //Vaa       y         :   ",
" ypy              y              ypy    V                  :6:  ",
"  y                            p  y                       :6`6: ",
"                         4                                 :6:  ",
"                                             ,              :   ",
"                       )))            3     ,`,       ,         ",
"       3          ;))))))))                  ,                  ",
"                )aaa)))))))a  ;        _                        ",
"           ,  V)aaVVV))))VVVaVVV    ;                      ,    ",
"             VV)aVVVV))VVaaaaVV)/                    ;          ",
"           aVV))aVVVVVVaaaaaaaVVVV           ;               ;  ",
"      ;   ))))))aVVVVVaaaaaaaaVVVV    ;               ;         ",
"         )VV)))))))VVaaaaaaaaVVVVVaa            ,               ",
" ,       VVV)))))VVVVaaaaaaaVVVVVVVVV)                          ",
"         VVV))))VVVVVVaaaaVVVVVVVVVVa)))))))))              ,   ",
"         VVVVVVVVVVVVVVVVVV)))VVVVVVa)))))))))aVVVV        ,_,  ",
"         :VVVVVVVVVV))VVVV)))VVVVVVaaaa)))))))aVVV)))       ,   ",
"     :  :6:VaaaaaVV))))VVVaa)VVVVVaaVVV))))))))VV)))))          ",
"       :6`6: aaaaVV)))VVaaaVVVVVVVaaVVVV))))))))))))))          ",
"        :6:    aaV))))VaaVVVVVVVV))aVVV)))))))))))))))  3       ",
"  ,      :     VVV)))VaaVVVVaaVV)))aVV)))))))))))VVVVV 343      ",
" ,_,  3         V))))VaaVVVVaVVV)))))))))))))VVVVVVVa 34x43     ",
"  ,         ,   V)))VaaaVVVaaVV)))))))))))VVVVaaaaaa   343  ,   ",
"        3       ))))VaaaaaaaaVV)))))))))VVVaaaaaaa      3       ",
"    ;            )))VaaaaaaaaVVVVVVVVVVVVVaaaaaa    ;           ",
"   ;p;           )))VVaaaaVaaaVVVaaaaaaVVaaaaa     ;p;          ",
"    ;            ))))VVVVVVaaaaaaaaaaaaaaaaaa       ;       :   ",
"         ,       )))))))VVVaaaaaaaaaaaaVaaaa:            ,      ",
"        ,_,      ))))))))Vaaaaaaaaaaaaaaaaa             ,_,     ",
"         ,       ))))))))VaaaaaaaVaaaaaVVVa              ,      ",
"    ;            ))a))))VVaaaaaaaa  VaVVVV                      ",
"   ;3;           )))))))Vaaaaa       aVVVV                      ",
"  ;3k3;           ))))VVaaaa          VVV)                      ",
" ;3kxk3;           )VVVaaaa            ))                       ",
"  ;3k3;   u       y  aaaa                 u               u     ",
"   ;3;           uly                                            ",
" p  ;             u                  p               p          ",
"                         3     :                                ",
"                        :43   :6:                               ",
"             :           :   :6`6:                              ",
"     ,  :   :_:   y           :6:       :            ,  :       ",
"  p ,_,      :   ypy           :  p                 ,_,       u ",
"     ,            y                  ,               ,          ",
"          p                               p               p     ",
"                                                                "
};
