/* XPM */
static char *bbb6ecb78e3c4ce7cfec88b3fe783d00udoZmDGWWALIPeZq[] = {
/* columns rows colors chars-per-pixel */
"64 64 19 1 ",
"  c #160C1E",
". c #261627",
"X c #241A29",
"o c #321F3C",
"O c #441A2A",
"+ c #59202F",
"@ c #143151",
"# c #4A2745",
"$ c #4E2D55",
"% c #5A3359",
"& c #68386C",
"* c #1E444C",
"= c #A22633",
"- c #804075",
"; c #F6757A",
": c #505C9E",
"> c #795BDE",
", c #B55088",
"< c #0099DB",
/* pixels */
"                                                      o         ",
"                                          &                     ",
"                                    %                        X  ",
"            O                                               X@X ",
"         X O=O                                           X X@<@X",
"            O        $                       #       $      X@X ",
"               .                            #-$              X  ",
"          &               &                  $            &     ",
"                                      O                         ",
"                                     O+X                        ",
"                                &     X                         ",
"  ,    X               X  o                       ,    X  o     ",
"             &           o,o &              #            o,o &  ",
"                          o                               o     ",
"     &               &                               &          ",
"                                                                ",
"          O                 >:                                  ",
"                       o  >>>>***                        +      ",
"        X      &        >>>>>>>>:>             &               &",
"  #                    >>>:*>>>::*#               #         X   ",
" #&#              #   >>>>**>>:**#&#                       X@X  ",
"  #                  >>>>*>>>:*** #                       X@<@X ",
"                    >>>>>*>>>:***                          X@X  ",
"                   >>>>>>>>>>:***            o              X   ",
"                >>>>>>>>>>>>>:******  O     o<o       o         ",
"       O      >>>>>>>>>>>>>>>:::***::>>>>    o                  ",
"             >>>>>>>>>>>>>>>:::::*:>>>>>>>>                     ",
"           o>>>>>>>>>>>>>>>::::::*>>>>>>>>>>               o    ",
"            >>>>>>>>>>>>>::*::::**>>>>>>>>>>>>>>>>>  .          ",
"            >>>>>>>>>>>::****::***>>>>>>*>>>>>>>>>>>         .  ",
"      .     >>>>>>>>>:::*********::>>::::::::>>>>>>>  .         ",
"             >>>>::::::****:****:::::::::::::>>>>>>>            ",
" o           >>>>::::::****:***:::::::::::::::::*>>>            ",
"             >>>::**::********::::::::::**::::::**>         o   ",
"             o>>::*****:****::>>>>:::::***::::::**>        o,o  ",
"         X    ::*:**::::::::::>>>>::::***:::::::**>         o   ",
"     X  X@X   ::*::*:::::::::>>>>>:::****::::::**>>  X          ",
"       X@<@X   **:::::::::::::>>>::******::::***>>              ",
"        X@X    >>>::::::::::::::::**::***:>***>>>:      O       ",
"  o      X      >>>>:>>>:::::::****:::***:>>>>>>::o    O+O      ",
" o,o  O         >>>>>>>>::::*******:::***:>>>>>:::,o  O+;+O     ",
"  o         o    >>>>::::::********:****::>>>>>::*o    O+O  o   ",
"        O        >>>::*:***********:***::>>>>>:::*      O       ",
"    .             >:::****::**********:::>>>>>:::*  .           ",
"   .&.              :   **::*******.*::>>>>>>>:::  .&.          ",
"    .                 @    *****    . >>>>>>>>::    .       X   ",
"         o                 $ *         >>>>>>>           o      ",
"        o,o                             >>>             o,o     ",
"         o                                               o      ",
"    .                &                                          ",
"   .O.                     %                                    ",
"  .O=O.                                                         ",
" .O=;=O.                                                        ",
"  .O=O.   $       #                       $               $     ",
"   .O.           $-#                                            ",
" &  .             $                  &               &          ",
"                         O     X                                ",
"                        X+O   X@X                               ",
"             X           X   X@<@X                              ",
"     o  X   X,X   #           X@X       X            o  X       ",
"  & o,o      X   #&#           X  &                 o,o       $ ",
"     o            #                  o               o          ",
"          &                               &               &     ",
"                                                                "
};
